Music_EventGhetsis:
	channel_count 4
	channel 1, Music_EventGhetsis_Ch1
	channel 2, Music_EventGhetsis_Ch2
	channel 3, Music_EventGhetsis_Ch3
	channel 4, Music_EventGhetsis_Ch4

Music_EventGhetsis_Ch1:
	volume 7, 7
	note_type 12, 10, 7
	tempo 95
	rest 8
	octave 5
	volume_envelope 15, 7
	duty_cycle 1
.mainloop:
	octave 5
	duty_cycle 1
	stereo_panning TRUE, FALSE
	vibrato 0, 5, 3
	note_type 12, 15, 7
	note C_, 1
	rest 1
	octave 4
	note F#, 1
	rest 1
	note C_, 16
	octave 3
	note A#, 1
	rest 1
	octave 4
	note C_, 1
	rest 1
	note C#, 1
	rest 1
	note D#, 1
	rest 1
	note C#, 1
	rest 1
	octave 3
	note A#, 1
	rest 1
	octave 4
	note C_, 1
	rest 1
	note C#, 1
	rest 1
	note C_, 7
	rest 1
	note E_, 1
	rest 1
	note G#, 1
	rest 1
	octave 5
	note C_, 12
	octave 4
	note B_, 4
	note A#, 11
	rest 1
	note A#, 1
	rest 1
	note F#, 1
	rest 1
	note C_, 12
	octave 3
	note A#, 1
	rest 1
	octave 4
	note C_, 1
	rest 1
	note C#, 11
	rest 1
	note C#, 1
	rest 1
	note C_, 1
	rest 1
	note F#, 1
	rest 1
	note F_, 2
	note A_, 1
	rest 1
	note G#, 1
	rest 1
	octave 5
	note D_, 8
	octave 3
	note B_, 11
	rest 1
	note B_, 1
	rest 1
	note A#, 1
	rest 1
	octave 4
	note E_, 1
	rest 1
	note D#, 2
	note G_, 1
	rest 1
	note F#, 1
	rest 1
	octave 5
	note C_, 8
	octave 4
	note C#, 1
	rest 1
	note D#, 1
	rest 1
	note F_, 8
	note D#, 1
	rest 1
	note C#, 1
	rest 1
	vibrato 0, 0, 0
	note C_, 1
	rest 7
	note C_, 1
	rest 11
	note C_, 2
	note C_, 2
	note C_, 2
	note_type 6, 15, 7
	rest 4
	note_type 1, 15, 7
	rest 1
	note_type 6, 15, 7
	rest 7
	note_type 1, 15, 7
	rest 5
	note_type 6, 15, 7
	sound_loop 0, .mainloop

Music_EventGhetsis_Ch2:
	note_type 12, 10, 7
	rest 8
	octave 3
	duty_cycle 2
	stereo_panning TRUE, FALSE
.mainloop:
	octave 3
	duty_cycle 2
	note A_, 1
	rest 3
	note C_, 1
	rest 3
	note A_, 1
	rest 3
	note F#, 1
	rest 3
	note A_, 1
	rest 3
	note F#, 1
	rest 3
	note A_, 1
	rest 3
	note F#, 1
	rest 3
	note A_, 1
	rest 3
	note C_, 1
	rest 3
	note A_, 1
	rest 3
	note F#, 1
	rest 3
	note A_, 1
	rest 3
	note F#, 1
	rest 3
	note A_, 1
	rest 3
	note F#, 1
	rest 3
	note G#, 1
	rest 3
	octave 2
	note A#, 1
	rest 3
	octave 3
	note G#, 1
	rest 3
	octave 2
	note A#, 1
	rest 3
	octave 3
	note G#, 1
	rest 3
	octave 2
	note A#, 1
	rest 3
	octave 3
	note G#, 1
	rest 3
	octave 2
	note A#, 1
	rest 3
	octave 3
	note G#, 1
	rest 3
	octave 2
	note A#, 1
	rest 3
	octave 3
	note G#, 1
	rest 3
	octave 2
	note A#, 1
	rest 3
	octave 3
	note G#, 1
	rest 3
	octave 2
	note A#, 1
	rest 3
	octave 3
	note G#, 1
	rest 3
	octave 2
	note A#, 1
	rest 3
	octave 3
	note G_, 1
	rest 3
	octave 2
	note A_, 1
	rest 3
	octave 3
	note G_, 1
	rest 3
	octave 2
	note A_, 1
	rest 3
	octave 3
	note G_, 1
	rest 3
	octave 2
	note A_, 1
	rest 3
	octave 3
	note G_, 1
	rest 3
	octave 2
	note A_, 1
	rest 3
	octave 3
	note G#, 1
	rest 3
	note F_, 1
	rest 3
	note G#, 1
	rest 3
	note F_, 1
	rest 3
	note F_, 1
	rest 7
	note F_, 1
	rest 11
	note F_, 1
	rest 1
	note F_, 1
	rest 1
	note F_, 1
	rest 3
	note_type 1, 10, 7
	rest 1
	note_type 12, 10, 7
	rest 3
	note_type 1, 10, 7
	rest 11
	note_type 12, 10, 7
	sound_loop 0, .mainloop

Music_EventGhetsis_Ch3:
	note_type 12, 1, 0
	stereo_panning FALSE, TRUE
	rest 8
.mainloop:
	note_type 12, 1, 7
	octave 2
	note C_, 2
	volume_envelope 3, 7
	note C_, 2
	volume_envelope 1, 7
	note C#, 2
	volume_envelope 3, 7
	note C#, 2
	volume_envelope 1, 7
	note C_, 2
	volume_envelope 3, 7
	note C_, 2
	volume_envelope 1, 7
	octave 1
	note A#, 2
	volume_envelope 3, 7
	note A#, 2
	volume_envelope 1, 7
	octave 2
	note C_, 2
	volume_envelope 3, 7
	note C_, 2
	volume_envelope 1, 7
	note C#, 2
	volume_envelope 3, 7
	note C#, 2
	volume_envelope 1, 7
	note C_, 2
	volume_envelope 3, 7
	note C_, 2
	volume_envelope 1, 7
	octave 1
	note A#, 2
	volume_envelope 3, 7
	note A#, 2
	volume_envelope 1, 7
	octave 2
	note C_, 2
	volume_envelope 3, 7
	note C_, 2
	volume_envelope 1, 7
	note C#, 2
	volume_envelope 3, 7
	note C#, 2
	volume_envelope 1, 7
	note C_, 2
	volume_envelope 3, 7
	note C_, 2
	volume_envelope 1, 7
	octave 1
	note A#, 2
	volume_envelope 3, 7
	note A#, 2
	volume_envelope 1, 7
	octave 2
	note C_, 2
	volume_envelope 3, 7
	note C_, 2
	volume_envelope 1, 7
	note C#, 2
	volume_envelope 3, 7
	note C#, 2
	volume_envelope 1, 7
	note C_, 2
	volume_envelope 3, 7
	note C_, 2
	volume_envelope 1, 7
	octave 1
	note A#, 2
	volume_envelope 3, 7
	note A#, 2
	volume_envelope 1, 7
	note A#, 2
	volume_envelope 3, 7
	note A#, 2
	volume_envelope 1, 7
	note B_, 2
	volume_envelope 3, 7
	note B_, 2
	volume_envelope 1, 7
	note A#, 2
	volume_envelope 3, 7
	note A#, 2
	volume_envelope 1, 7
	note G#, 2
	volume_envelope 3, 7
	note G#, 2
	volume_envelope 1, 7
	note A#, 2
	volume_envelope 3, 7
	note A#, 2
	volume_envelope 1, 7
	note B_, 2
	volume_envelope 3, 7
	note B_, 2
	volume_envelope 1, 7
	note A#, 2
	volume_envelope 3, 7
	note A#, 2
	volume_envelope 1, 7
	note G#, 2
	volume_envelope 3, 7
	note G#, 2
	volume_envelope 1, 7
	note A#, 2
	volume_envelope 3, 7
	note A#, 2
	volume_envelope 1, 7
	note B_, 2
	volume_envelope 3, 7
	note B_, 2
	volume_envelope 1, 7
	note A#, 2
	volume_envelope 3, 7
	note A#, 2
	volume_envelope 1, 7
	note G#, 2
	volume_envelope 3, 7
	note G#, 2
	volume_envelope 1, 7
	note A#, 2
	volume_envelope 3, 7
	note A#, 2
	volume_envelope 1, 7
	note B_, 2
	volume_envelope 3, 7
	note B_, 2
	volume_envelope 1, 7
	note A#, 2
	volume_envelope 3, 7
	note A#, 2
	volume_envelope 1, 7
	note G#, 2
	volume_envelope 3, 7
	note G#, 2
	volume_envelope 1, 7
	note A_, 2
	volume_envelope 3, 7
	note A_, 2
	volume_envelope 1, 7
	note A#, 2
	volume_envelope 3, 7
	note A#, 2
	volume_envelope 1, 7
	note A_, 2
	volume_envelope 3, 7
	note A_, 2
	volume_envelope 1, 7
	note G#, 2
	volume_envelope 3, 7
	note G#, 2
	volume_envelope 1, 7
	note A_, 2
	volume_envelope 3, 7
	note A_, 2
	volume_envelope 1, 7
	note A#, 2
	volume_envelope 3, 7
	note A#, 2
	volume_envelope 1, 7
	note A_, 2
	volume_envelope 3, 7
	note A_, 1
	rest 1
	volume_envelope 1, 7
	note G#, 2
	volume_envelope 3, 7
	note G#, 2
	volume_envelope 1, 7
	note A#, 2
	volume_envelope 3, 7
	note A#, 2
	volume_envelope 1, 7
	note B_, 2
	volume_envelope 3, 7
	note B_, 2
	volume_envelope 1, 7
	note A#, 2
	volume_envelope 3, 7
	note A#, 2
	volume_envelope 1, 7
	note G#, 2
	volume_envelope 3, 7
	note G#, 2
	volume_envelope 1, 7
	octave 2
	note C_, 1
	rest 7
	note C_, 1
	rest 11
	note C_, 2
	note C_, 2
	note C_, 2
	octave 3
	rest 2
	note_type 1, 1, 7
	rest 1
	note_type 12, 1, 7
	rest 3
	note_type 1, 1, 7
	rest 11
	note_type 12, 1, 7
	sound_loop 0, .mainloop

Music_EventGhetsis_Ch4:
	toggle_noise 1
	drum_speed 12
	stereo_panning TRUE, TRUE
	drum_note 7, 1
	drum_note 7, 1
	drum_note 7, 1
	drum_note 7, 1
	drum_note 7, 1
	drum_note 7, 1
	drum_note 7, 1
	drum_note 7, 1
.mainloop:
	octave 6
	toggle_noise
	toggle_noise 4
	drum_note 12, 6
	rest 16
	rest 10
	drum_note 12, 6
	octave 8
	rest 16
	rest 2
	toggle_noise
	toggle_noise 1
	drum_note 7, 1
	drum_note 7, 1
	drum_note 7, 1
	drum_note 7, 1
	drum_note 7, 1
	drum_note 7, 1
	drum_note 7, 1
	drum_note 7, 1
	octave 6
	toggle_noise
	toggle_noise 4
	drum_note 12, 6
	rest 16
	rest 10
	drum_note 12, 6
	rest 16
	rest 10
	drum_note 12, 6
	rest 16
	rest 10
	drum_note 12, 16
	drum_note 12, 8
	drum_note 12, 16
	drum_note 12, 4
	drum_speed 1
	rest 1
	drum_speed 12
	rest 3
	drum_speed 1
	rest 11
	drum_speed 12
	sound_loop 0, .mainloop
