Music_FloaromaTown:
	channel_count 3
	channel 1, Music_FloaromaTown_Ch1
	channel 2, Music_FloaromaTown_Ch2
	channel 3, Music_FloaromaTown_Ch3
 
Music_FloaromaTown_Ch1:
	tempo 90
	volume 7, 7
	duty_cycle 0
	pitch_offset $0001
	note_type 12, 8, 7
	octave 2
	note C#, 8
	octave 4
	note C#, 1
	note F_, 1
	note G#, 8
	rest 6
	octave 2
	note C#, 8
	octave 3
	note G#, 1
	octave 4
	note C#, 1
	note F_, 8
	rest 6
Music_FloaromaTown_Ch1_loop:
	octave 2
	note C#, 8
	octave 4
	note C#, 1
	note F_, 1
	note G#, 6
	octave 3
	note G#, 1
	octave 4
	note C#, 1
	note F_, 6
	octave 2
	note C#, 8
	octave 3
	note G#, 1
	octave 4
	note C#, 1
	note F_, 6
	octave 3
	note F_, 1
	note G#, 1
	octave 4
	note C#, 6
	octave 2
	note G#, 8
	octave 4
	note D#, 1
	note F#, 1
	note G#, 6
	note C_, 1
	note D#, 1
	note F#, 6
	octave 2
	note G#, 8
	octave 4
	note C_, 1
	note D#, 1
	note F#, 6
	octave 3
	note F#, 1
	note G#, 1
	octave 4
	note C_, 6
	octave 2
	note G#, 8
	octave 4
	note F#, 1
	note G#, 1
	octave 5
	note C_, 6
	octave 4
	note D#, 1
	note F#, 1
	note G#, 6
	octave 3
	note C_, 8
	octave 4
	note D#, 1
	note F#, 1
	note G#, 6
	octave 3
	note G#, 1
	octave 4
	note C_, 1
	note D#, 6
	octave 3
	note C#, 8
	octave 4
	note C#, 1
	note F_, 1
	note G#, 6
	octave 3
	note G#, 1
	octave 4
	note C#, 1
	note F_, 6
	octave 2
	note C#, 8
	octave 4
	note C#, 1
	note F_, 1
	note A#, 6
	octave 3
	note G#, 1
	note A#, 1
	octave 4
	note C#, 6
	octave 2
	note F_, 8
	octave 4
	note G#, 1
	octave 5
	note C#, 1
	note F_, 6
	octave 4
	note F_, 1
	note G#, 1
	octave 5
	note C#, 6
	octave 2
	note E_, 8
	octave 4
	note A#, 1
	octave 5
	note C#, 1
	note E_, 6
	octave 4
	note E_, 1
	note G_, 1
	note A#, 6
	octave 2
	note D#, 8
	octave 4
	note F#, 1
	note A#, 1
	octave 5
	note C#, 6
	octave 4
	note D#, 1
	note F#, 1
	note A#, 6
	octave 2
	note F#, 8
	octave 4
	note F#, 1
	note A_, 1
	octave 5
	note C#, 6
	octave 4
	note C#, 1
	note F#, 1
	note A_, 6
	;;;;;;;;;;; five at a time
	octave 2
	note G#, 8
	octave 3
	note G#, 1
	octave 4
	note C#, 1
	note F_, 6
	note C#, 1
	note F_, 1
	note G#, 6
	note F_, 1
	note G#, 1
	octave 5
	note C#, 6
	octave 4
	note G#, 1
	octave 5
	note C#, 1
	note F_, 6
	note C#, 1
	note F_, 1
	note G#, 6
	octave 2
	note G_, 8
	octave 3
	note G_, 1
	note A#, 1
	octave 4
	note C#, 6
	octave 3
	note A#, 1
	octave 4
	note C#, 1
	note E_, 6
	note C#, 1
	note E_, 1
	note G_, 6
	note E_, 1
	note G_, 1
	note A#, 6
	note G_, 1
	note A#, 1
	octave 5
	note C#, 6
	;;;;;;;;;;;; two at a time
	octave 2
	note D#, 8
	octave 3
	note F#, 1
	note A#, 1
	octave 4
	note C#, 6
	octave 3
	note A#, 1
	octave 4
	note C#, 1
	note D#, 6
	octave 2
	note G#, 8
	octave 3
	note F#, 1
	note G#, 1
	octave 4
	note C_, 6
	octave 3
	note A#, 1
	octave 4
	note C#, 1
	note D#, 6
	octave 2
	note C#, 8
	octave 3
	note G#, 1
	octave 4
	note C#, 1
	note F_, 6
	note C#, 1
	note F_, 1
	note G#, 6
	octave 2
	note G#, 8
	octave 3
	note C#, 8
	note G#, 8
	;;;;;;;;;;; second half
	note D#, 4
	note F#, 4
	note A#, 4
	octave 4
	note C#, 4
	octave 3
	note F#, 4
	note A#, 4
	note G#, 4
	octave 4
	note C_, 4
	note D#, 4
	note F#, 4
	octave 3
	note G#, 4
	note F#, 4
	note F_, 4
	note G#, 4
	octave 4
	note C_, 4
	note F_, 4
	octave 3
	note G#, 4
	octave 4
	note C_, 4
	octave 3
	note A#, 4
	octave 4
	note D_, 4
	note F_, 4
	note D_, 4
	octave 3
	note B_, 4
	note D_, 4
	note D#, 4
	note F#, 4
	note A#, 4
	note F#, 4
	note A#, 4
	octave 4
	note D#, 4
	octave 3
	note G#, 4
	octave 4
	note C_, 4
	note D#, 4
	note C_, 4
	note D#, 4
	octave 3
	note F#, 4
	note F_, 4
	note G#, 4
	note B_, 4
	note G#, 4
	note B_, 4
	octave 4
	note D#, 4
	octave 3
	note A#, 4
	octave 4
	note C#, 4
	note F_, 4
	note C#, 4
	note F_, 4
	note A#, 4
	octave 3
	note D#, 4
	note F#, 4
	note A#, 4
	octave 4
	note C#, 4
	note F#, 8
	octave 3
	note G#, 4
	octave 4
	note C_, 4
	note D#, 4
	note F#, 4
	note G#, 8
	octave 3
	note C#, 4
	note G#, 4
	octave 4
	note C#, 4
	note F_, 4
	note G#, 8
	octave 2
	note A#, 4
	octave 3
	note F_, 4
	note G#, 4
	octave 4
	note D_, 4
	note F_, 8
	octave 3
	note D#, 4
	note F#, 4
	note A#, 4
	octave 4
	note C#, 4
	note F#, 4
	note C#, 4
	octave 2
	note G#, 4
	octave 3
	note D#, 4
	note F#, 4
	note G#, 4
	octave 4
	note C_, 4
	note D#, 4
	note C#, 4
	octave 3
	note A_, 4
	note F#, 4
	note C#, 4
	octave 2
	note A_, 4
	note F#, 4
	octave 3
	note A_, 4
	note F#, 4
	note C#, 4
	octave 2
	note A_, 4
	note F#, 4
	note C#, 4
	octave 3
	note G#, 4
	note D#, 4
	note C#, 4
	octave 2
	note G#, 4
	note D#, 4
	note C#, 4
	note G#, 4
	octave 3
	note D#, 4
	note G#, 4
	octave 4
	note C#, 4
	note D#, 4
	octave 3
	note A#, 4
	sound_loop 0, Music_FloaromaTown_Ch1_loop
 
Music_FloaromaTown_Ch2:
	pitch_offset $0001
	duty_cycle 2
	note_type 12, 4, 7
	rest 8
	octave 3
	note G#, 16
	rest 8
	note F_, 16
Music_FloaromaTown_Ch2_loop:
	duty_cycle 1
	octave 5
	volume_envelope 4, 3
	note G#, 1
	note A#, 1
	note G#, 1
	note A#, 1
	note G#, 1
	note A#, 1
	note G#, 1
	note A#, 1
	octave 6
	note F_, 8
	octave 5
	note F_, 8
	note G#, 8
	octave 6
	note C#, 1
	note D#, 1
	note C#, 1
	note D#, 1
	note C#, 1
	note D#, 1
	note C#, 1
	note D#, 1
	note C#, 1
	note D#, 1
	note C#, 1
	note D#, 1
	note C#, 1
	note D#, 1
	note C#, 2
	note C_, 8
	note C#, 4
	note C_, 4
	octave 5
	note B_, 4
	octave 6
	note C_, 4
	note A#, 1
	octave 7
	note C_, 1
	octave 6
	note A#, 1
	octave 7
	note C_, 1
	octave 6
	note A#, 1
	octave 7
	note C_, 1
	octave 6
	note A#, 1
	octave 7
	note C_, 1
	octave 6
	note A#, 1
	octave 7
	note C_, 1
	octave 6
	note A#, 1
	octave 7
	note C_, 1
	octave 6
	note A#, 1
	octave 7
	note C_, 1
	octave 6
	note A#, 1
	octave 7
	note C_, 1
	octave 6
	note A#, 8
	octave 7
	note C_, 8
	note C_, 2
	note C#, 2
	note C_, 2
	octave 6
	note A#, 2
	note A_, 1
	note A#, 1
	note A_, 1
	note A#, 1
	note A_, 4
	note G#, 8
	note G#, 2
	note A#, 2
	note G#, 2
	note F#, 2
	note C_, 1
	note C#, 1
	note C_, 1
	note C#, 1
	note C_, 4
	note C#, 8
	note F#, 2
	note F_, 2
	note E_, 2
	note F_, 2
	octave 7
	note C#, 1
	note D#, 1
	note C#, 1
	note D#, 1
	note C#, 4
	octave 6
	note A#, 8
	note G#, 1
	note A#, 1
	note G#, 1
	note A#, 1
	note G#, 1
	note A#, 1
	note G#, 1
	note A#, 1
	note G#, 8
	octave 4
	note C#, 4
	note G#, 4
	octave 5
	note C#, 4
	note F_, 4
	octave 7
	note C#, 1
	note D#, 1
	note C#, 1
	note D#, 1
	note C#, 4
	octave 4
	note C#, 4
	note G_, 4
	octave 5
	note C#, 4
	note G_, 4
	octave 7
	note C#, 1
	note D#, 1
	note C#, 1
	note D#, 1
	note C#, 4
	octave 4
	note C#, 4
	note F#, 4
	octave 5
	note C#, 4
	note F#, 4
	octave 7
	note C#, 1
	note D#, 1
	note C#, 1
	note D#, 1
	note C#, 4
	volume_envelope 7, 0
	duty_cycle 2
	octave 3
	note F#, 16
	note A_, 8
	note G#, 8
	note C#, 16
	note C#, 8
	note G#, 8
	octave 4
	note C#, 8
	octave 3
	note G_, 8
	note C#, 16
	note C#, 8
	note G_, 8
	octave 4
	note C#, 8
	octave 3
	note F#, 8
	note C#, 8
	octave 2
	note A#, 8
	octave 3
	note C#, 16
	note C_, 8
	note C#, 16
	octave 2
	note F_, 8
	note G#, 16
	note G#, 8
	note A#, 16
	note A#, 8
	octave 3
	note C_, 16
	octave 2
	note A#, 8
	note G#, 16
	note G#, 8
	octave 3
	note D_, 16
	note F_, 8
	note D#, 16
	note D#, 8
	note F#, 16
	note G#, 8
	octave 2
	note B_, 16
	note B_, 8
	octave 3
	note F_, 16
	note F_, 8
	octave 4
	note D#, 8
	note C#, 8
	octave 3
	note A#, 8
	note D#, 8
	note F#, 8
	note G#, 8
	note F_, 8
	octave 2
	note G#, 8
	octave 3
	note C#, 8
	octave 2
	note A#, 8
	octave 3
	note D_, 8
	note F_, 8
	note A#, 8
	note G#, 8
	note F#, 8
	note C#, 16
	note D#, 8
	note F#, 16
	note F#, 8
	note C#, 16
	note D#, 8
	note F_, 16
	note F_, 8
	volume_envelope 4, 5
	octave 2
	note G#, 4
	octave 3
	note D#, 4
	note F#, 4
	note G#, 4
	octave 4
	note D#, 4
	note A#, 4
	sound_loop 0, Music_FloaromaTown_Ch2_loop
 
Music_FloaromaTown_Ch3:
	stereo_panning TRUE, TRUE
	note_type 12, 1, 3
	vibrato 22, 2, 3
	rest 16
	rest 16
	rest 16
Music_FloaromaTown_Ch3_branch_1:
	octave 5
	note F_, 16
	octave 4
	note G#, 7
	rest 1
	note G#, 8
	octave 5
	note F_, 8
	note C#, 8
	note C_, 8
	octave 4
	note B_, 8
	octave 5
	note C_, 8
	note A#, 16
	note A#, 6
	rest 2
	note A#, 16
	note A_, 8
	note G#, 8
	note F#, 8
	note C_, 8
	note C#, 8
	note C_, 8
	note C#, 8
	note A#, 16
	note A#, 6
	rest 2
	note G#, 16
	octave 6
	note C#, 8
	octave 5
	note G_, 16
	octave 6
	note C#, 8
	octave 5
	note F#, 16
	octave 6
	note C#, 8
	octave 5
	note C#, 16
	note D#, 8
	note F_, 16
	note F_, 16
	volume_envelope 2, 3
	note F_, 16
	note F_, 16
	volume_envelope 1, 3
	note F_, 8
	octave 6
	note C_, 16
	note C#, 8
	octave 5
	note A#, 8
	note A_, 8
	note G#, 8
	note F#, 8
	octave 4
	note A#, 8
	octave 5
	note C_, 8
	note C#, 16
	note C#, 16
	;;;;;;;;;;;;; second half
	volume_envelope 1, 2
	note D#, 8
	note F_, 8
	note F#, 8
	note F_, 8
	note D#, 8
	octave 4
	note A#, 16
	octave 5
	note C_, 8
	octave 4
	note A#, 16
	note G#, 8
	octave 5
	note B_, 16
	note A#, 8
	note G#, 8
	note F#, 8
	note F_, 8
	octave 4
	note A#, 8
	octave 5
	note C_, 8
	note D#, 8
	note F_, 8
	note D#, 8
	note F_, 8
	octave 6
	note D#, 16
	note C#, 8
	octave 5
	note A#, 8
	note G#, 8
	note F#, 8
	octave 4
	note A#, 8
	octave 5
	note C_, 8
	note D#, 8
	note C#, 16
	note C#, 8
	note G#, 16
	note G#, 8
	note F#, 8
	note F_, 8
	note D#, 8
	octave 4
	note A#, 16
	octave 5
	note C_, 8
	note C#, 16
	note C#, 16
	note C#, 16
	note C#, 16
	note C#, 8
	rest 16
	volume_envelope 1, 3
	octave 4
	note G#, 8
	sound_loop 0, Music_FloaromaTown_Ch3_branch_1