Music_RSGymVictory:
	channel_count 4
	channel 1, Music_RSGymVictory_Ch1
	channel 2, Music_RSGymVictory_Ch2
	channel 3, Music_RSGymVictory_Ch3
	channel 4, Music_RSGymVictory_Ch4
 
 
Music_RSGymVictory_Ch1:
	tempo 136
	duty_cycle $3
	vibrato 18, 1, 5
	pitch_offset $0001
	note_type 6, 9, 7
	octave 3
	note G_, 12
	note D#, 2
	note G_, 2
	note A#, 12
	note G_, 2
	note A#, 2
	octave 4
	note D#, 12
	octave 3
	note A#, 2
	octave 4
	note D#, 2
	volume_envelope 9, 0
	note F_, 16
	volume_envelope 9, 7
	note F_, 16
Music_RSGymVictory_Ch1_loop_main:
	duty_cycle $3
	volume_envelope 7, 3
	octave 3
	note D#, 4
	octave 4
	note D#, 4
	note G_, 8
	octave 3
	note D_, 4
	octave 4
	note D_, 4
	note F_, 8
	octave 3
	note C_, 4
	octave 4
	note C_, 4
	note D#, 8
	octave 3
	note D_, 4
	note A#, 4
	octave 4
	note D_, 8
	octave 3
	note D#, 4
	octave 4
	note D#, 4
	note G_, 8
	octave 3
	note D_, 4
	octave 4
	note D_, 4
	note F_, 8
	octave 3
	note C_, 4
	octave 4
	note C_, 4
	octave 3
	note F_, 4
	note F_, 4
	note G_, 16
	duty_cycle $2
	volume_envelope 7, 0
	note D#, 4
	rest 4
	note A#, 8
	note D_, 4
	rest 4
	note A#, 8
	note C_, 4
	rest 4
	note G#, 8
	octave 2
	note A#, 4
	rest 4
	octave 3
	note F_, 8
	duty_cycle $3
	volume_envelope 7, 3
	note G_, 4
	note F_, 4
	note D#, 8
	note F_, 4
	note D#, 4
	note D_, 8
	note D#, 4
	note D_, 4
	note C_, 4
	octave 2
	note A#, 4
	note G_, 16
	duty_cycle $0
	volume_envelope 9, 0
	rest 16
	octave 4
	note A#, 1
	rest 5
	note A#, 4
	note G#, 1
	note G_, 1
	note D#, 1
	rest 3
	duty_cycle $3
	volume_envelope 6, 0
	octave 3
	note G_, 12
	note D#, 2
	note G_, 2
	note A#, 16
	note A_, 16
	duty_cycle $0
	volume_envelope 9, 0
	octave 5
	note C_, 1
	rest 5
	note C_, 4
	octave 4
	note A#, 1
	note A_, 1
	note F_, 1
	rest 3
	duty_cycle $3
	volume_envelope 6, 0
	octave 3
	note A_, 12
	note F_, 2
	note A_, 2
	octave 4
	note C_, 16
	rest 8
	duty_cycle $0
	volume_envelope 9, 0
	note F_, 4
	note G_, 4
	note A#, 1
	rest 5
	note A#, 4
	note G#, 1
	note F_, 1
	note D_, 1
	rest 3
	octave 3
	note F_, 12
	note D_, 2
	note F_, 2
	note A#, 16
	duty_cycle $0
	volume_envelope 9, 0
	note A#, 1
	rest 1
	note A#, 1
	rest 1
	note A#, 4
	note G#, 1
	note D#, 1
	octave 2
	note A#, 2
	duty_cycle $3
	volume_envelope 6, 0
	note A#, 2
	octave 3
	note F_, 2
	note G_, 12
	note D#, 4
	note D_, 16
	note_type 8, 11, 4
	duty_cycle $0
	octave 2
	note A#, 2
	octave 3
	note F_, 2
	note A#, 2
	octave 4
	note D_, 2
	note F_, 2
	note G#, 2
	volume_envelope 8, 0
	duty_cycle $3
	octave 3
	note G_, 12
	volume_envelope 8, 7
	note G_, 12
	volume_envelope 9, 5
	octave 4
	note G_, 4
	note F_, 4
	note D#, 4
	note D_, 4
	note D#, 4
	octave 3
	note A#, 4
	volume_envelope 8, 0
	note F_, 12
	volume_envelope 8, 7
	note F_, 12
	volume_envelope 9, 5
	octave 4
	note F_, 4
	note G_, 4
	note F_, 4
	note D#, 4
	note F_, 4
	note C_, 4
	volume_envelope 8, 0
	note D_, 12
	volume_envelope 8, 7
	note D_, 12
	octave 3
	note D_, 12
	volume_envelope 9, 5
	octave 4
	note D_, 6
	note F_, 6
	duty_cycle $0
	note_type 6, 8, 2
	octave 3
	note G#, 4
	note G#, 4
	octave 4
	note D#, 4
	octave 3
	note G#, 2
	note G#, 2
	note D#, 2
	note G#, 2
	note A#, 2
	octave 4
	note D#, 2
	note G#, 2
	note A#, 2
	octave 5
	note D#, 2
	note A#, 2
	octave 3
	note G_, 4
	note G_, 4
	octave 4
	note D#, 4
	octave 3
	note G_, 2
	note G_, 2
	note D#, 2
	note G_, 2
	note A#, 2
	octave 4
	note D#, 2
	note G_, 2
	note A#, 2
	octave 5
	note D#, 2
	note G_, 2
	sound_loop 0, Music_RSGymVictory_Ch1_loop_main
 
Music_RSGymVictory_Ch2:
	duty_cycle $3
	vibrato 18, 3, 5
	pitch_offset $0001
	note_type 6, 11, 7
	octave 3
	note A#, 12
	note G_, 2
	note A#, 2
	octave 4
	note D#, 12
	octave 3
	note A#, 2
	octave 4
	note D#, 2
	note G_, 12
	note D#, 2
	note G_, 2
	volume_envelope 9, 0
	note A#, 16
	volume_envelope 9, 7
	note A#, 16
Music_RSGymVictory_Ch2_loop_main:
	duty_cycle $2
	volume_envelope 11, 2
	octave 5
	note D#, 4
	note D_, 4
	note C_, 8
	note D_, 4
	note C_, 4
	octave 4
	note A#, 8
	octave 5
	note C_, 4
	octave 4
	note A#, 4
	note G#, 4
	note G_, 4
	note A#, 8
	volume_envelope 11, 4
	note A#, 8
	volume_envelope 11, 2
	octave 5
	note D#, 4
	note D_, 4
	note C_, 8
	note D_, 4
	note C_, 4
	octave 4
	note A#, 8
	octave 5
	note C_, 4
	octave 4
	note A#, 4
	note G#, 4
	note G_, 4
	note D#, 12
	duty_cycle $0
	volume_envelope 10, 2
	note C_, 2
	note D_, 2
	note D#, 4
	note D_, 4
	note C_, 8
	note D_, 4
	note C_, 4
	octave 3
	note A#, 8
	octave 4
	note C_, 4
	octave 3
	note A#, 4
	note G#, 4
	note G_, 4
	note A#, 8
	volume_envelope 10, 4
	note A#, 8
	volume_envelope 10, 2
	octave 4
	note D#, 4
	note D_, 4
	note C_, 8
	note D_, 4
	note C_, 4
	octave 3
	note A#, 8
	octave 4
	note C_, 4
	octave 3
	note A#, 4
	note G#, 4
	note G_, 4
	note D#, 16
	duty_cycle $3
	sound_call Music_RSGymVictory_Ch2_branch_1
	volume_envelope 11, 0
	note F#, 1
	note G_, 7
	note F_, 8
	volume_envelope 11, 0
	note D#, 16
	volume_envelope 11, 7
	note D#, 12
	volume_envelope 11, 0
	note C_, 4
	octave 3
	note A#, 16
	volume_envelope 11, 7
	note A#, 16
	duty_cycle $0
	sound_call Music_RSGymVictory_Ch2_branch_1
	volume_envelope 11, 0
	octave 4
	note A#, 8
	octave 5
	note D_, 8
	note D#, 16
	volume_envelope 11, 7
	note D#, 12
	volume_envelope 11, 0
	note F_, 4
	note D#, 16
	volume_envelope 11, 7
	note D#, 16
	sound_loop 0, Music_RSGymVictory_Ch2_loop_main
 
Music_RSGymVictory_Ch2_branch_1:
	volume_envelope 11, 0
	note A#, 12
	note G_, 2
	note A#, 2
	octave 4
	note D#, 16
	note D#, 16
	volume_envelope 11, 7
	note D#, 16
	volume_envelope 11, 0
	note C_, 12
	octave 3
	note A_, 2
	octave 4
	note C_, 2
	note F_, 16
	note F_, 16
	volume_envelope 11, 7
	note F_, 16
	volume_envelope 11, 0
	octave 3
	note G#, 12
	note F_, 2
	note G#, 2
	octave 4
	note D_, 16
	note D_, 8
	volume_envelope 11, 7
	note D_, 8
	sound_ret
 
Music_RSGymVictory_Ch3:
	note_type 6, 1, 0
	octave 3
	note D#, 2
	note G_, 1
	note A#, 2
	octave 4
	note D#, 2
	note G_, 1
	note D#, 2
	note G_, 1
	note A#, 2
	octave 5
	note D#, 2
	note G_, 1
	octave 3
	note D#, 2
	note G_, 1
	note A#, 2
	octave 4
	note D#, 2
	note G_, 1
	note D#, 2
	note G_, 1
	note A#, 2
	octave 5
	note D#, 2
	note G_, 1
	octave 3
	note D#, 2
	note G_, 1
	note A#, 2
	octave 4
	note D#, 2
	note G_, 1
	note D#, 2
	note G_, 1
	note A#, 2
	octave 5
	note D#, 2
	note G_, 1
	octave 6
	note D_, 2
	octave 5
	note A#, 1
	note F_, 2
	note D_, 2
	octave 4
	note A#, 1
	note F_, 2
	note D_, 1
	octave 3
	note A#, 2
	note F_, 2
	note D_, 1
	octave 2
	note A#, 2
	octave 3
	note D_, 1
	note F_, 2
	note A#, 2
	octave 4
	note D_, 1
	note F_, 2
	note A#, 1
	octave 5
	note D_, 2
	note F_, 2
	note A#, 1
Music_RSGymVictory_Ch3_loop_main:
	volume_envelope 1, 4
	octave 3
	note D#, 4
	rest 12
	note D_, 4
	rest 12
	note C_, 4
	rest 12
	octave 2
	note A#, 4
	rest 12
	octave 3
	note D#, 4
	rest 12
	note D_, 4
	rest 12
	note C_, 4
	rest 4
	note F_, 2
	rest 2
	note D_, 2
	rest 2
	note D#, 4
	rest 12
	octave 2
	note D#, 4
	rest 4
	note D#, 4
	rest 4
	note A#, 4
	rest 4
	note A#, 4
	rest 4
	note G#, 4
	rest 4
	note G#, 4
	rest 4
	note A#, 4
	rest 4
	note D_, 8
	note D#, 4
	rest 4
	note D#, 4
	rest 4
	note A#, 4
	rest 4
	note A#, 4
	rest 4
	note G#, 2
	rest 2
	note A#, 2
	rest 2
	octave 3
	note C_, 2
	rest 2
	note D_, 2
	rest 2
	note D#, 4
	rest 12
	octave 2
	note D#, 4
	rest 4
	note D#, 4
	rest 4
	note D#, 4
	rest 4
	note D#, 4
	rest 4
	note D#, 1
	rest 1
	note D#, 1
	rest 1
	note D#, 7
	rest 1
	note D#, 1
	rest 1
	note D#, 1
	rest 1
	note D#, 4
	rest 2
	octave 3
	note D#, 6
	octave 2
	note G_, 4
	note F_, 4
	rest 4
	note F_, 4
	rest 4
	note F_, 4
	rest 4
	note F_, 4
	rest 4
	note F_, 1
	rest 1
	note F_, 1
	rest 1
	note F_, 7
	rest 1
	note F_, 1
	rest 1
	note F_, 2
	octave 3
	note C_, 6
	octave 2
	note F_, 6
	octave 3
	note C_, 4
	octave 2
	note A#, 4
	rest 4
	note A#, 4
	rest 4
	note A#, 4
	rest 4
	note A#, 4
	rest 4
	note A#, 1
	rest 1
	note A#, 1
	rest 1
	note A#, 7
	rest 1
	note A#, 1
	rest 1
	note A#, 2
	note F_, 6
	note D#, 6
	note D_, 4
	note D#, 4
	rest 4
	note D#, 4
	rest 4
	note D#, 4
	rest 4
	note D#, 4
	rest 4
	note A#, 15
	rest 1
	note A#, 4
	rest 2
	octave 3
	note C_, 4
	rest 2
	note D_, 4
	note D#, 16
	note D#, 16
	volume_envelope 2, 4
	note D#, 16
	rest 16
	volume_envelope 1, 4
	note F_, 16
	note F_, 16
	note F_, 16
	volume_envelope 2, 4
	rest 16
	volume_envelope 1, 4
	octave 2
	note A#, 16
	note A#, 16
	volume_envelope 2, 4
	note A#, 16
	rest 16
	volume_envelope 1, 4
	octave 3
	note D#, 2
	rest 2
	note D#, 2
	rest 6
	note D#, 1
	rest 1
	note D#, 1
	rest 1
	note D#, 2
	rest 4
	note G#, 4
	rest 2
	note D#, 2
	rest 2
	note D#, 2
	rest 2
	note D#, 2
	rest 6
	note D#, 1
	rest 1
	note D#, 1
	rest 1
	note D#, 2
	rest 4
	note G_, 4
	rest 2
	note D#, 2
	rest 2
	sound_loop 0, Music_RSGymVictory_Ch3_loop_main
 
Music_RSGymVictory_Ch4:
	toggle_noise $3
	drum_speed 6
	drum_note 12, 12
	drum_note 1, 2
	drum_note 1, 2
	drum_note 12, 12
	drum_note 1, 2
	drum_note 1, 2
	drum_note 12, 12
	drum_note 1, 2
	drum_note 1, 2
	drum_note 12, 16
	drum_note 12, 12
	drum_note 1, 4
Music_RSGymVictory_Ch4_loop_main:
	drum_note 4, 16
	rest 16
	drum_note 4, 16
	rest 12
	drum_note 4, 4
	drum_note 4, 16
	rest 16
	drum_note 4, 12
	drum_note 4, 4
	drum_note 4, 8
	drum_note 3, 4
	drum_note 3, 2
	drum_note 3, 2
	drum_note 1, 8
	drum_note 1, 8
	drum_note 1, 8
	drum_note 1, 8
	drum_note 1, 4
	drum_note 3, 4
	drum_note 1, 4
	drum_note 3, 4
	drum_note 1, 4
	drum_note 3, 4
	drum_note 1, 4
	drum_note 3, 2
	drum_note 3, 2
	drum_note 1, 4
	drum_note 3, 4
	drum_note 1, 4
	drum_note 3, 4
	drum_note 1, 4
	drum_note 3, 4
	drum_note 1, 4
	drum_note 3, 2
	drum_note 3, 2
	drum_note 1, 4
	drum_note 3, 4
	drum_note 1, 4
	drum_note 3, 4
	drum_note 1, 8
	drum_note 3, 1
	drum_note 3, 1
	drum_note 3, 2
	drum_note 3, 2
	drum_note 3, 2
	drum_note 12, 16
	drum_note 3, 6
	drum_note 3, 2
	drum_note 3, 4
	drum_note 3, 4
	sound_call Music_RSGymVictory_Ch4_branch_1
	sound_call Music_RSGymVictory_Ch4_branch_1
	drum_note 1, 4
	drum_note 1, 4
	drum_note 3, 4
	drum_note 1, 2
	drum_note 1, 2
	drum_note 1, 6
	drum_note 1, 2
	drum_note 3, 4
	drum_note 1, 4
	sound_call Music_RSGymVictory_Ch4_branch_2
	sound_call Music_RSGymVictory_Ch4_branch_2
	drum_note 1, 4
	drum_note 3, 4
	drum_note 1, 4
	drum_note 3, 4
	drum_note 1, 2
	drum_note 3, 2
	drum_note 3, 2
	drum_note 1, 2
	drum_note 3, 2
	drum_note 3, 2
	drum_note 1, 2
	drum_note 3, 2
	drum_note 12, 16
Music_RSGymVictory_Ch4_loop_9:
	rest 16
	sound_loop 11, Music_RSGymVictory_Ch4_loop_9
	drum_note 1, 4
	drum_note 1, 8
	drum_note 1, 2
	drum_note 1, 2
	drum_note 1, 6
	drum_note 1, 6
	drum_note 1, 2
	drum_note 3, 2
	drum_note 1, 4
	drum_note 1, 8
	drum_note 1, 2
	drum_note 1, 2
	drum_note 1, 4
	drum_note 3, 2
	drum_note 1, 2
	drum_note 3, 4
	drum_note 1, 4
	sound_loop 0, Music_RSGymVictory_Ch4_loop_main
 
Music_RSGymVictory_Ch4_branch_1:
	drum_note 1, 2
	drum_note 1, 2
	drum_note 1, 4
	drum_note 3, 4
	drum_note 1, 2
	drum_note 1, 2
	drum_note 1, 6
	drum_note 1, 2
	drum_note 3, 4
	drum_note 1, 2
	drum_note 3, 2
	drum_note 1, 8
	drum_note 3, 4
	drum_note 3, 4
	drum_note 3, 6
	drum_note 3, 2
	drum_note 3, 4
	drum_note 3, 4
	sound_ret
 
Music_RSGymVictory_Ch4_branch_2:
	drum_note 1, 4
	drum_note 3, 4
	drum_note 3, 4
	drum_note 1, 4
	sound_ret