Music_KnightsTempora:
	channel_count 3
	channel 1, Music_KnightsTempora_Ch1
	channel 2, Music_KnightsTempora_Ch2
	channel 3, Music_KnightsTempora_Ch3

Music_KnightsTempora_Ch1:
	volume 7, 7
	duty_cycle 1
	note_type 4, 13, 7
	octave 2
	tempo 216
.mainloop:
	note_type 4, 13, 7
	octave 2
	duty_cycle 1
	note G_, 3
	note_type 4, 6, 7
	note G_, 1
	rest 2
	octave 3
	volume_envelope 11, 7
	note D_, 3
	volume_envelope 6, 7
	note D_, 1
	rest 2
	volume_envelope 12, 7
	note D#, 3
	volume_envelope 6, 7
	note D#, 1
	rest 2
	volume_envelope 11, 7
	note A#, 3
	volume_envelope 6, 7
	note A#, 1
	rest 2
	note_type 4, 11, 7
	note G_, 3
	volume_envelope 6, 7
	note G_, 1
	rest 2
	note_type 2, 11, 7
	rest 8
	note_type 1, 11, 7
	rest 8
	note_type 2, 11, 7
	rest 16
	rest 8
	note_type 4, 12, 7
	octave 2
	note G_, 3
	note_type 4, 6, 7
	note G_, 1
	note_type 2, 6, 7
	rest 2
	note_type 4, 10, 7
	octave 3
	rest 1
	note C#, 3
	volume_envelope 6, 7
	note C#, 1
	rest 2
	volume_envelope 11, 7
	note D_, 3
	volume_envelope 6, 7
	note D_, 1
	rest 2
	volume_envelope 10, 7
	note A_, 3
	volume_envelope 6, 7
	note A_, 1
	rest 1
	note_type 4, 10, 7
	rest 1
	note F#, 3
	note_type 4, 6, 7
	note F#, 1
	rest 2
	note_type 2, 11, 7
	rest 8
	note_type 1, 11, 7
	rest 8
	note_type 2, 11, 7
	rest 16
	rest 8
	octave 2
	note_type 4, 11, 7
	note G_, 3
	note_type 4, 6, 7
	note G_, 1
	note_type 2, 6, 7
	rest 3
	octave 3
	note_type 2, 10, 7
	rest 1
	note_type 4, 10, 7
	note D_, 3
	note_type 4, 6, 7
	note D_, 1
	note_type 2, 6, 7
	rest 3
	note_type 2, 10, 7
	rest 1
	note_type 4, 11, 7
	note D#, 3
	volume_envelope 6, 7
	note D#, 1
	octave 4
	rest 1
	note_type 1, 11, 7
	rest 2
	note_type 2, 11, 7
	rest 1
	note_type 4, 10, 7
	note C#, 3
	note_type 4, 6, 7
	note C#, 1
	octave 3
	note_type 1, 11, 7
	rest 6
	note_type 2, 11, 7
	rest 1
	note_type 4, 11, 7
	note A#, 3
	note_type 4, 6, 7
	note A#, 1
	note_type 2, 11, 7
	rest 16
	rest 7
	octave 2
	note_type 2, 12, 7
	rest 5
	note_type 4, 12, 7
	rest 6
	note G_, 3
	note_type 4, 6, 7
	note G_, 1
	octave 3
	note_type 4, 10, 7
	rest 2
	note C#, 3
	note_type 4, 6, 7
	note C#, 1
	note_type 2, 6, 7
	rest 2
	note_type 2, 11, 7
	rest 2
	note_type 4, 11, 7
	note D_, 3
	note_type 4, 6, 7
	note D_, 1
	octave 4
	note_type 2, 10, 7
	rest 4
	note_type 4, 10, 7
	note C#, 3
	note_type 4, 6, 7
	note C#, 1
	octave 3
	note_type 2, 10, 7
	rest 2
	note_type 1, 10, 7
	rest 4
	note_type 4, 10, 7
	note A_, 3
	note_type 4, 6, 7
	note A_, 1
	note_type 2, 10, 7
	rest 16
	rest 2
	octave 4
	note_type 2, 11, 7
	rest 5
	note_type 12, 11, 7
	rest 2
	note_type 1, 11, 7
	rest 10
	note_type 4, 11, 7
	note A#, 6
	note_type 4, 10, 7
	note A_, 2
	note G#, 2
	note G_, 2
	note_type 4, 11, 7
	note F#, 6
	note_type 4, 10, 7
	note A_, 6
	note_type 4, 11, 7
	note G#, 6
	note_type 4, 10, 7
	note D_, 6
	note C#, 6
	note_type 4, 9, 7
	note G_, 6
	note_type 12, 5, -7
	note F#, 16
	note F_, 16
	sound_loop 0, .mainloop

Music_KnightsTempora_Ch2:
	duty_cycle 0
	note_type 4, 10, 7
.mainloop:
	note_type 4, 10, 7
	rest 3
	octave 3
	note_type 4, 6, -7
	note D_, 3
	note E_, 3
	volume_envelope 8, -7
	note D_, 3
	note E_, 3
	volume_envelope 9, -7
	note D_, 3
	note E_, 3
	volume_envelope 11, -7
	note D_, 3
	volume_envelope 10, -7
	note E_, 3
	volume_envelope 11, -7
	note D_, 3
	volume_envelope 10, -7
	note E_, 3
	volume_envelope 11, -7
	note D_, 3
	volume_envelope 9, -7
	note E_, 3
	note D_, 3
	volume_envelope 8, -7
	note E_, 3
	note D_, 3
	rest 3
	note_type 4, 7, -7
	note C#, 3
	note E_, 3
	volume_envelope 8, -7
	note C#, 3
	note E_, 3
	volume_envelope 9, -7
	note C#, 3
	note E_, 3
	volume_envelope 11, -7
	note C#, 3
	volume_envelope 10, -7
	note E_, 3
	volume_envelope 11, -7
	note C#, 3
	volume_envelope 10, -7
	note E_, 3
	volume_envelope 11, -7
	note C#, 3
	volume_envelope 9, -7
	note E_, 3
	note C#, 3
	volume_envelope 8, -7
	note E_, 3
	note C#, 3
	note_type 4, 10, 7
	rest 3
	note_type 4, 7, -7
	note D_, 3
	note E_, 3
	note_type 4, 8, -7
	note D_, 3
	note E_, 3
	note_type 4, 9, -7
	note D_, 3
	note E_, 3
	note_type 4, 11, -7
	note D_, 3
	note_type 4, 10, -7
	note E_, 3
	note_type 4, 11, -7
	note D_, 3
	note_type 4, 10, -7
	note E_, 3
	note_type 4, 11, -7
	note D_, 3
	note_type 4, 9, -7
	note E_, 3
	note D_, 3
	note_type 4, 8, -7
	note E_, 3
	note D_, 3
	note_type 4, 10, 7
	rest 3
	note_type 4, 7, -7
	note C#, 3
	note E_, 3
	note_type 4, 8, -7
	note C#, 3
	note E_, 3
	note_type 4, 9, -7
	note C#, 3
	note E_, 3
	note_type 4, 11, -7
	note C#, 3
	note_type 4, 10, -7
	note E_, 3
	note_type 4, 11, -7
	note C#, 3
	note_type 4, 10, -7
	note E_, 3
	note_type 4, 11, -7
	note C#, 3
	note_type 4, 9, -7
	note E_, 3
	note C#, 3
	note_type 4, 8, -7
	note E_, 3
	note_type 4, 7, -7
	note C#, 3
	note_type 4, 10, 7
	octave 4
	note D_, 6
	note_type 4, 9, 7
	note C#, 2
	note_type 4, 8, 7
	note C_, 2
	note_type 4, 9, 7
	octave 3
	note B_, 2
	note_type 4, 10, 7
	note A#, 6
	note_type 4, 9, 7
	octave 4
	note C#, 6
	note C_, 6
	note_type 4, 8, 7
	octave 3
	note F#, 6
	note_type 4, 9, 7
	note F_, 6
	note_type 4, 8, 7
	note B_, 6
	note_type 12, 4, -7
	note A#, 16
	note A_, 16
	sound_loop 0, .mainloop

Music_KnightsTempora_Ch3:
	note_type 6, 1, 1
	octave 3
.mainloop:
	note_type 6, 1, 1
	note D_, 16
	note_type 4, 1, 0
	note G_, 12
	note A#, 12
	note A_, 16
	note A_, 2
	note A_, 2
	note G#, 2
	note G_, 2
	note_type 6, 1, 0
	note F#, 16
	note G_, 16
	note_type 4, 1, 0
	note A#, 12
	octave 4
	note D_, 12
	note C#, 16
	note C#, 2
	note C_, 2
	octave 3
	note B_, 2
	note A#, 2
	note_type 6, 1, 0
	note A_, 16
	note_type 4, 1, 0
	note G_, 6
	note F#, 2
	note F_, 2
	note E_, 2
	note D#, 6
	note F#, 6
	note F_, 6
	octave 2
	note B_, 6
	note A#, 6
	octave 3
	note E_, 6
	note_type 12, 3, 0
	note D_, 16
	note C#, 16
	sound_loop 0, .mainloop
