Music_LittlerootTown:
	channel_count 4
	channel 1, Music_LittlerootTown_Ch1
	channel 2, Music_LittlerootTown_Ch2
	channel 3, Music_LittlerootTown_Ch3
	channel 4, Music_LittlerootTown_Ch4
 
Music_LittlerootTown_Ch1:
	tempo 175
	duty_cycle 1
	pitch_offset $0001
	note_type 12, 7, 4
	octave 2
	rest 6
Music_LittlerootTown_Ch1_loop:
	octave 2
	note F_, 2
	octave 3
	note C_, 2
	note A_, 2
	note C_, 2
	octave 2
	note F_, 2
	octave 3
	note C_, 2
	note A_, 2
	note C_, 2
	octave 2
	note A_, 2
	octave 3
	note E_, 2
	octave 4
	note C_, 2
	octave 3
	note E_, 2
	octave 2
	note G_, 2
	octave 3
	note C#, 2
	note A_, 2
	note G_, 2
	note D_, 2
	note A_, 2
	octave 4
	note F_, 2
	octave 3
	note A_, 2
	note C#, 2
	note A_, 2
	octave 4
	note F_, 2
	octave 3
	note A_, 2
	note C_, 2
	note A_, 2
	octave 4
	note F_, 2
	octave 3
	note A_, 2
	octave 4
	note F_, 2
	note D_, 2
	octave 3
	note A_, 2
	note G_, 2
	octave 2
	note A#, 2
	octave 3
	note F_, 2
	octave 4
	note D_, 2
	octave 3
	note F_, 2
	octave 2
	note A#, 2
	octave 3
	note F_, 2
	octave 4
	note D_, 2
	octave 3
	note F_, 2
	octave 2
	note G_, 2
	octave 3
	note D_, 2
	octave 4
	note D_, 2
	octave 3
	note D_, 2
	octave 2
	note G_, 2
	octave 3
	note D_, 2
	octave 4
	note D_, 2
	octave 3
	note D_, 2
	note C_, 2
	note G_, 2
	octave 4
	note F_, 2
	octave 3
	note G_, 2
	note C_, 2
	note G_, 2
	octave 4
	note F_, 2
	octave 3
	note G_, 2
	note C_, 2
	note G_, 2
	octave 4
	note E_, 2
	octave 3
	note G_, 2
	note C_, 2
	note G_, 2
	octave 4
	note E_, 2
	octave 3
	note G_, 2
	duty_cycle 2
	volume_envelope 9, 3
	octave 2
	note F_, 2
	octave 3
	note C_, 2
	note A_, 2
	note C_, 2
	octave 2
	note F_, 2
	octave 3
	note C_, 2
	note A_, 2
	octave 4
	note C_, 2
	octave 2
	note A_, 2
	octave 3
	note E_, 2
	octave 4
	note C_, 2
	octave 3
	note E_, 2
	octave 2
	note G_, 2
	octave 3
	note C#, 2
	note A_, 2
	note G_, 2
	note D_, 2
	note A_, 2
	octave 4
	note F_, 2
	octave 3
	note A_, 2
	note C#, 2
	note A_, 2
	octave 4
	note F_, 2
	octave 3
	note A_, 2
	note C_, 2
	note A_, 2
	octave 4
	note F_, 2
	octave 3
	note A_, 2
	octave 4
	note F_, 2
	note D_, 2
	octave 3
	note A_, 2
	note G_, 2
	octave 2
	note A#, 2
	octave 3
	note F_, 2
	octave 4
	note D_, 2
	octave 3
	note F_, 2
	octave 2
	note A#, 2
	octave 3
	note F_, 2
	octave 4
	note D_, 2
	octave 3
	note F_, 2
	octave 2
	note G_, 2
	octave 3
	note D_, 2
	octave 4
	note D_, 2
	octave 3
	note D_, 2
	octave 2
	note G_, 2
	octave 3
	note D_, 2
	octave 4
	note D_, 2
	note G_, 2
	octave 3
	note C_, 2
	note G_, 2
	octave 4
	note F_, 2
	octave 3
	note G_, 2
	note C_, 2
	note G_, 2
	octave 4
	note F_, 2
	octave 3
	note G_, 2
	note C_, 2
	note G_, 2
	octave 4
	note E_, 2
	octave 3
	note G_, 2
	note C_, 2
	note G_, 2
	octave 4
	note E_, 2
	octave 3
	note G_, 2
	octave 2
	note A_, 2
	octave 3
	note E_, 2
	octave 4
	note C_, 2
	octave 3
	note E_, 2
	octave 2
	note A_, 2
	octave 3
	note E_, 2
	octave 4
	note C#, 2
	octave 3
	note E_, 2
	note D_, 2
	note A_, 2
	octave 4
	note F_, 2
	octave 3
	note A_, 2
	octave 2
	note B_, 2
	octave 3
	note F_, 2
	octave 4
	note D_, 2
	octave 3
	note F_, 2
	octave 2
	note A#, 2
	octave 3
	note F_, 2
	octave 4
	note D_, 2
	octave 3
	note F_, 2
	octave 2
	note G_, 2
	octave 3
	note D_, 2
	note A#, 2
	note D_, 2
	note C_, 2
	note G_, 2
	octave 4
	note C_, 2
	note D_, 2
	octave 3
	note C_, 2
	note G_, 2
	octave 4
	note E_, 2
	octave 3
	note G_, 2
	octave 2
	note A_, 2
	octave 3
	note E_, 2
	note A_, 2
	note E_, 2
	octave 2
	note A_, 2
	octave 3
	note E_, 2
	octave 4
	note C#, 2
	note E_, 2
	octave 3
	note D_, 2
	note A_, 2
	octave 4
	note F_, 2
	octave 3
	note A_, 2
	octave 2
	note B_, 2
	octave 3
	note F_, 2
	octave 4
	note D_, 2
	octave 3
	note F_, 2
	octave 2
	note A#, 2
	octave 3
	note F_, 2
	octave 4
	note D_, 2
	octave 3
	note F_, 2
	octave 2
	note B_, 2
	octave 3
	note F_, 2
	octave 4
	note D_, 2
	note F_, 2
	octave 3
	note C_, 2
	note G_, 2
	octave 4
	note F_, 2
	octave 3
	note G_, 2
	note C_, 2
	note G_, 2
	octave 4
	note E_, 2
	note G_, 2
	volume_envelope 7, 4
	duty_cycle 1
	sound_loop 0, Music_LittlerootTown_Ch1_loop
 
Music_LittlerootTown_Ch2:
	pitch_offset $0001
	duty_cycle 2
	note_type 12, 6, 0
	octave 1
	note C_, 2
	note E_, 4
Music_LittlerootTown_Ch2_loop:
	sound_call Music_LittlerootTown_Ch2_branch_1
	note F_, 2
	note A_, 2
	note G_, 2
	note F_, 4
	rest 2
	note D_, 2
	octave 1
	note A#, 1
	rest 1
	note A#, 4
	octave 2
	note D_, 2
	octave 1
	note G_, 4
	rest 2
	note D_, 2
	note G_, 1
	rest 1
	note G_, 4
	octave 2
	note D_, 2
	note C_, 4
	rest 2
	note C_, 2
	note G_, 2
	note C_, 2
	octave 1
	note A#, 2
	note G_, 2
	note E_, 4
	rest 2
	note E_, 2
	note C_, 2
	octave 2
	note C_, 2
	octave 3
	note C_, 2
	octave 1
	note A#, 2
	sound_call Music_LittlerootTown_Ch2_branch_1
	note F_, 2
	note D_, 2
	note E_, 2
	note F_, 4
	rest 2
	note D_, 2
	note A#, 1
	rest 1
	note A#, 4
	note F#, 2
	note G_, 4
	rest 2
	note G_, 2
	octave 2
	note D_, 2
	octave 1
	note G_, 4
	note A#, 2
	octave 2
	note C_, 4
	rest 2
	note C_, 1
	rest 1
	note G_, 1
	rest 1
	note C_, 2
	octave 1
	note A#, 1
	rest 1
	note G_, 1
	rest 1
	note E_, 4
	rest 2
	note E_, 1
	rest 1
	note C_, 1
	rest 1
	octave 2
	note C_, 2
	octave 3
	note C_, 2
	octave 1
	note A#, 2
	octave 2
	note C_, 4
	rest 2
	note C_, 2
	note C#, 1
	rest 1
	note C#, 4
	octave 1
	note A#, 2
	note A_, 5
	rest 1
	octave 2
	note D_, 2
	octave 1
	note B_, 2
	note F_, 4
	note A_, 2
	note A#, 4
	rest 2
	note G_, 2
	note E_, 2
	note G_, 4
	octave 2
	note D_, 2
	note C_, 4
	rest 2
	octave 1
	note A_, 2
	note A#, 1
	rest 1
	note A#, 4
	note G_, 2
	note A_, 4
	rest 2
	note A_, 2
	octave 2
	note C#, 2
	octave 1
	note A_, 4
	octave 2
	note C#, 2
	octave 1
	note F_, 4
	rest 2
	octave 2
	note D_, 2
	octave 1
	note B_, 1
	rest 1
	note B_, 4
	note G_, 2
	note A#, 4
	rest 2
	note G_, 2
	note B_, 1
	rest 1
	note B_, 4
	note G_, 2
	octave 2
	note C_, 4
	rest 2
	note F_, 2
	note C_, 1
	rest 1
	note C_, 4
	octave 1
	note G_, 2
	sound_loop 0, Music_LittlerootTown_Ch2_loop
 
Music_LittlerootTown_Ch2_branch_1:
	note F_, 4
	rest 2
	note F_, 2
	octave 2
	note C_, 1
	rest 1
	octave 1
	note F_, 4
	note G_, 2
	note A_, 4
	rest 2
	note A_, 2
	octave 2
	note C#, 1
	rest 1
	octave 1
	note A_, 3
	rest 1
	note G_, 1
	rest 1
	note D_, 4
	rest 2
	note A_, 2
	octave 2
	note C#, 1
	rest 1
	octave 1
	note A_, 4
	note G_, 2
	note C_, 4
	rest 2
	octave 1
	note A_, 2
	note B_, 2
	sound_ret
 
Music_LittlerootTown_Ch3:
	stereo_panning TRUE, TRUE
	note_type 12, 1, 3
	vibrato 22, 1, 3
	octave 5
	note C_, 2
	note F_, 2
	note G_, 2
Music_LittlerootTown_Ch3_branch_1:
	note_type 6, 1, 3
	note G#, 1
	note A_, 11
	note_type 12, 1, 3
	note G_, 2
	note A_, 2
	note G_, 2
	note A_, 2
	note A#, 2
	octave 6
	note C_, 5
	volume_envelope 3, 3
	note C_, 1
	volume_envelope 1, 3
	note D_, 2
	octave 5
	note A_, 2
	volume_envelope 3, 3
	note A_, 2
	volume_envelope 1, 3
	note A_, 2
	octave 6
	note C#, 2
	note D_, 2
	volume_envelope 3, 3
	note D_, 2
	volume_envelope 1, 3
	note E_, 4
	note D_, 2
	volume_envelope 3, 3
	note D_, 2
	octave 5
	volume_envelope 1, 3
	note A_, 2
	note G_, 2
	note F_, 2
	note E_, 2
	note F_, 2
	note A_, 2
	octave 6
	note_type 6, 1, 3
	note C#, 1
	note D_, 7
	note_type 12, 1, 3
	octave 5
	note D_, 2
	note E_, 2
	note F_, 8
	octave 6
	note C_, 2
	octave 5
	note A#, 1
	volume_envelope 3, 3
	note A#, 1
	volume_envelope 1, 3
	note A#, 2
	note A_, 2
	note F_, 8
	note_type 6, 1, 3
	octave 6
	note C#, 1
	note D_, 3
	note_type 12, 1, 3
	octave 5
	note A_, 1
	volume_envelope 3, 3
	note A_, 1
	volume_envelope 1, 3
	note A_, 2
	note G_, 2
	note F_, 12
	note E_, 2
	note D_, 2
	note E_, 6
	note F_, 2
	note G_, 2
	volume_envelope 1, 6
	octave 4
	note C_, 2
	octave 5
	note C_, 2
	octave 4
	note A#, 2
	note_type 6, 1, 6
	note G#, 1
	note A_, 11
	note_type 12, 1, 6
	note G_, 2
	note A_, 2
	note G_, 2
	note A_, 2
	note A#, 2
	volume_envelope 3, 6
	note A#, 2
	note_type 6, 1, 6
	octave 5
	note C#, 1
	note C_, 7
	note_type 12, 1, 6
	note D_, 2
	octave 4
	note A_, 2
	note G_, 2
	note A_, 2
	octave 5
	note C#, 2
	note D_, 2
	volume_envelope 3, 6
	note D_, 2
	volume_envelope 1, 6
	note E_, 2
	volume_envelope 3, 6
	note E_, 2
	volume_envelope 1, 6
	note F_, 2
	volume_envelope 3, 6
	note F_, 2
	volume_envelope 1, 6
	octave 4
	note A_, 2
	note G_, 2
	note F_, 2
	note E_, 2
	note F_, 2
	note A_, 2
	octave 5
	note_type 6, 1, 6
	note C#, 1
	note D_, 7
	note_type 12, 1, 6
	octave 4
	note D_, 2
	note E_, 2
	note F_, 8
	octave 5
	note C_, 2
	octave 4
	note A#, 1
	volume_envelope 3, 6
	note A#, 1
	volume_envelope 1, 6
	note A#, 2
	note A_, 2
	note F_, 8
	note_type 6, 1, 6
	octave 5
	note C#, 1
	note D_, 3
	note_type 12, 1, 6
	octave 4
	note A_, 1
	volume_envelope 3, 6
	note A_, 1
	volume_envelope 1, 6
	note A_, 2
	note G_, 2
	note F_, 12
	note E_, 2
	note F_, 2
	note G_, 6
	note A_, 2
	note A#, 2
	volume_envelope 3, 6
	note A#, 2
	volume_envelope 1, 3
	octave 5
	note A_, 2
	note A#, 2
	octave 6
	note C_, 8
	note C#, 2
	octave 5
	note A#, 2
	note A_, 2
	note G_, 2
	note F_, 1
	volume_envelope 3, 3
	note F_, 1
	volume_envelope 1, 3
	note F_, 4
	note E_, 2
	note D_, 2
	volume_envelope 3, 3
	note D_, 2
	volume_envelope 1, 3
	note F_, 2
	note A_, 2
	note G_, 8
	volume_envelope 3, 3
	note G_, 2
	note_type 6, 1, 3
	note E_, 1
	note F_, 3
	note_type 12, 1, 3
	note D_, 2
	note F_, 2
	note E_, 1
	volume_envelope 3, 3
	note E_, 1
	volume_envelope 1, 3
	note E_, 4
	note F_, 2
	note G_, 2
	volume_envelope 3, 3
	note G_, 2
	volume_envelope 1, 6
	octave 4
	note A_, 2
	note A#, 2
	octave 5
	note C_, 8
	volume_envelope 3, 6
	note C_, 2
	octave 4
	volume_envelope 1, 6
	note A_, 2
	octave 5
	note C#, 2
	note E_, 2
	note G_, 2
	note F_, 2
	note E_, 2
	note F_, 2
	note D_, 2
	volume_envelope 3, 6
	note D_, 2
	volume_envelope 1, 6
	note F_, 2
	note A_, 2
	note G_, 8
	volume_envelope 3, 6
	note G_, 2
	note_type 6, 1, 6
	note E_, 1
	note F_, 3
	note_type 12, 1, 6
	note D_, 2
	note F_, 2
	note E_, 1
	volume_envelope 3, 6
	note E_, 1
	volume_envelope 1, 6
	note E_, 4
	note F_, 2
	note G_, 4
	volume_envelope 1, 3
	note A#, 2
	note G_, 2
	sound_loop 0, Music_LittlerootTown_Ch3_branch_1
 
Music_LittlerootTown_Ch4:
	toggle_noise $3
	drum_speed 12
	rest 6
Music_LittlerootTown_Ch4_loop:
	rest 16
	rest 16
	rest 16
	rest 16
	rest 16
	rest 16
	rest 16
	rest 16
	sound_call Music_LittlerootTown_Ch4_branch_1
	sound_call Music_LittlerootTown_Ch4_branch_1
	sound_call Music_LittlerootTown_Ch4_branch_1
	sound_call Music_LittlerootTown_Ch4_branch_1
	sound_call Music_LittlerootTown_Ch4_branch_1
	sound_call Music_LittlerootTown_Ch4_branch_1
	sound_call Music_LittlerootTown_Ch4_branch_1
	sound_call Music_LittlerootTown_Ch4_branch_1
	sound_call Music_LittlerootTown_Ch4_branch_1
	sound_call Music_LittlerootTown_Ch4_branch_1
	sound_call Music_LittlerootTown_Ch4_branch_1
	sound_call Music_LittlerootTown_Ch4_branch_1
	sound_call Music_LittlerootTown_Ch4_branch_1
	sound_call Music_LittlerootTown_Ch4_branch_1
	sound_call Music_LittlerootTown_Ch4_branch_1
	sound_call Music_LittlerootTown_Ch4_branch_1
	sound_loop 0, Music_LittlerootTown_Ch4_loop
Music_LittlerootTown_Ch4_branch_1:
	drum_note 3, 2
	drum_note 7, 2
	drum_note 3, 2
	drum_note 7, 2
	drum_note 3, 2
	drum_note 7, 2
	drum_note 3, 2
	drum_note 7, 2
	sound_ret