Music_LugiaBattle:
	channel_count 3
	channel 1, Music_LugiaBattle_Ch1
	channel 2, Music_LugiaBattle_Ch2
	channel 3, Music_LugiaBattle_Ch3

Music_LugiaBattle_Ch1:
; Pat 0 Row 8
	tempo $66
	duty_cycle $3
	note_type 12, 12, 7
	rest 4
	octave 3
	note G#, 6
	note G_, 6
	note A#, 6
	note A_, 6
	octave 4
	note C_, 6
	octave 3
	note B_, 6
	octave 4
	note C#, 6
	volume_envelope 4, -7
	note D_, 14
; Pat 1 Row 0
	volume_envelope 12, 7
	note E_, 2
	rest 6
	note E_, 2
	rest 6
	note F#, 12
	octave 4
	note E_, 1
	note C#, 1
	octave 3
	note F#, 1
	note D#, 1
; Pat 2 Row 0
Music_LugiaBattle_Ch1_L:
	duty_cycle $0
	volume_envelope 12, 7
	octave 2
	note B_, 2
	note B_, 4
	volume_envelope 12, 8
	note F#, 10
	volume_envelope 12, 7
	note F#, 10
	note B_, 2
	note A#, 2
	octave 3
	note F#, 2
	volume_envelope 12, 8
	note G_, 10
	volume_envelope 12, 7
	note G_, 10
	note A_, 4
	note G_, 2
	note F_, 6
; Pat 3 Row 0
	volume_envelope 12, 8
	note F#, 16
	volume_envelope 12, 7
	note F#, 16
	rest 16
	octave 2
	note B_, 4
	octave 3
	note G_, 2
	note G_, 2
	note G_, 2
	note A_, 6
; Pat 4 Row 0
	rest 10
	octave 2
	note F#, 2
	note B_, 2
	note E_, 2
	note F#, 4
	note B_, 12
	duty_cycle $2
	volume_envelope 10, 6
	octave 3
	note E_, 6
	note G_, 6
	note C_, 6
	note E_, 6
	duty_cycle $0
	volume_envelope 12, 7
	note G_, 2
	note A#, 6
; Pat 5 Row 0
	octave 2
	note F#, 2
	octave 1
	note B_, 2
	octave 2
	note F#, 2
	note G_, 6
	note E_, 4
	note F#, 2
	octave 1
	note B_, 2
	octave 2
	note F#, 2
	note G_, 6
	note A_, 4
	note F#, 2
	octave 1
	note B_, 2
	octave 2
	note F#, 2
	note G_, 6
	note E_, 2
	note G_, 2
	note F#, 2
	octave 1
	note B_, 2
	octave 2
	note F#, 2
	note G_, 6
	octave 3
	note F_, 1
	note F#, 1
	note G_, 1
	note G#, 1
; Pat 6 Row 0
	volume_envelope 12, 8
	note A_, 12
	volume_envelope 12, 7
	note A_, 10
	note G_, 4
	note E_, 2
	note F_, 4
	volume_envelope 12, 8
	note F#, 12
	volume_envelope 12, 7
	note F#, 8
	note G_, 4
	octave 2
	note B_, 4
	octave 3
	note C_, 4
; Pat 7 Row 0
	volume_envelope 12, 8
	note C#, 12
	volume_envelope 12, 7
	note C#, 8
	note D_, 6
	note F#, 4
	note E_, 2
	volume_envelope 12, 8
	octave 2
	note B_, 8
	note A_, 8
	volume_envelope 12, 7
	note A_, 4
	octave 3
	note C_, 4
	octave 2
	note B_, 4
	note E_, 2
	note F_, 2
; Pat 8 Row 0
	volume_envelope 12, 8
	note A_, 12
	volume_envelope 12, 7
	note A_, 8
	note A#, 4
	octave 3
	note D_, 4
	note C_, 4
	volume_envelope 12, 8
	note C#, 12
	volume_envelope 12, 7
	note C#, 8
	note E_, 4
	octave 2
	note B_, 4
	octave 3
	note F#, 4
; Pat 9 Row 0
	volume_envelope 12, 8
	note G_, 12
	volume_envelope 12, 7
	note G_, 8
	note F_, 4
	octave 4
	note C_, 4
	note D#, 4
	note_type 8, 12, 7
	note A#, 6
	note A_, 2
	note G#, 2
	note G_, 2
	note F#, 6
	note F_, 2
	note E_, 2
	note D#, 2
	note D_, 6
	note C#, 2
	note C_, 2
	octave 3
	note B_, 2
	note A#, 6
	note A_, 2
	note G#, 2
	note G_, 2
; Pat 10 Row 0
	rest 6
	volume_envelope 12, 2
	note F#, 2
	note F#, 2
	note F#, 2
	note F_, 2
	note F_, 2
	note F_, 2
	note G#, 2
	note G#, 2
	note G#, 2
	note G_, 2
	note G_, 2
	note G_, 2
	note A#, 2
	note A#, 2
	note A#, 2
	note A_, 2
	note A_, 2
	note A_, 2
	octave 4
	note C_, 2
	note C_, 2
	note C_, 2
	note D_, 6
	octave 3
	note D#, 2
	note D#, 2
	note D#, 2
	note D_, 2
	note D_, 2
	note D_, 2
	note F_, 2
	note F_, 2
	note F_, 2
	note E_, 2
	note E_, 2
	note E_, 2
	note G_, 2
	note G_, 2
	note G_, 2
	note F#, 2
	note F#, 2
	note F#, 2
	note A_, 2
	note A_, 2
	note A_, 2
; Pat 11 Row 0
	note_type 12, 12, 7
	note A#, 2
	rest 6
	note A#, 2
	rest 10
	note A#, 4
	rest 4
	note_type 8, 12, 2
	note A#, 2
	note A#, 2
	note A#, 2
	note_type 12, 12, 7
	octave 4
	note C_, 2
	rest 6
	note C_, 2
	rest 6
	duty_cycle $3
	note F#, 12
	octave 4
	note E_, 1
	note C#, 1
	octave 3
	note F#, 1
	note D#, 1
	sound_loop 0, Music_LugiaBattle_Ch1_L

Music_LugiaBattle_Ch2:
; Pat 0 Row 8
	duty_cycle $3
	note_type 12, 12, 7
	rest 4
	octave 3
	note D#, 6
	note D_, 6
	note F_, 6
	note E_, 6
	note G_, 6
	note F#, 6
	note G#, 6
	volume_envelope 4, -7
	note A_, 14
; Pat 1 Row 0
	volume_envelope 12, 7
	note A#, 2
	rest 6
	note A#, 2
	rest 6
	octave 4
	note C#, 16
; Pat 2 Row 0
Music_LugiaBattle_Ch2_L:
	rest 10
	duty_cycle $0
	octave 3
	note G_, 2
	note F#, 2
	note A_, 2
	note B_, 4
	octave 4
	note D_, 12
	duty_cycle $2
	volume_envelope 10, 6
	octave 3
	note G_, 6
	note E_, 6
	note C_, 6
	note E_, 6
	note G_, 2
	octave 2
	note A#, 8
; Pat 3 Row 2
	duty_cycle $3
	volume_envelope 12, 7
	octave 4
	note F#, 1
	note A_, 1
	note B_, 2
	note A_, 1
	note G#, 1
	note A_, 2
	note F#, 1
	note F_, 1
	note E_, 2
	note D#, 1
	octave 3
	note B_, 1
	octave 4
	note D#, 4
	note D#, 1
	note E_, 1
	note D#, 1
	note E_, 1
	note F#, 2
	note F#, 6
	duty_cycle $2
	volume_envelope 10, 6
	octave 3
	note C_, 2
	octave 2
	note G_, 2
	octave 3
	note C_, 2
	note E_, 2
	note F#, 2
	note G_, 2
	note E_, 2
	note C_, 2
	octave 2
	note G_, 2
	octave 3
	note C_, 2
	note E_, 2
	octave 4
	note C_, 2
	octave 3
	note G_, 2
	note A#, 6
; Pat 4 Row 0
	duty_cycle $3
	volume_envelope 12, 7
	vibrato 5, 2, 5
	octave 4
	note D#, 1
	rest 1
	note D#, 2
	volume_envelope 12, 8
	vibrato 0, 0, 0
	octave 3
	note B_, 8
	volume_envelope 12, 7
	vibrato 5, 2, 5
	note B_, 12
	rest 2
	note F#, 2
	note B_, 2
	octave 4
	note D#, 2
	volume_envelope 12, 8
	vibrato 0, 0, 0
	note E_, 8
	volume_envelope 12, 7
	vibrato 5, 2, 5
	note E_, 8
	note G_, 6
	note F#, 6
	note F_, 4
; Pat 5 Row 0
	volume_envelope 12, 8
	vibrato 0, 0, 0
	note F#, 12
	volume_envelope 12, 7
	vibrato 5, 2, 5
	note F#, 12
	note E_, 8
	note D#, 16
	note E_, 16
; Pat 6 Row 0
Music_LugiaBattle_Ch2_L1:
	octave 3
	note E_, 2
	rest 2
	note E_, 2
	rest 2
	note E_, 1
	rest 1
	note E_, 2
	rest 2
	note E_, 3
	rest 1
	note E_, 2
	rest 2
	note E_, 1
	rest 1
	note E_, 2
	rest 2
	note E_, 2
	rest 2
	sound_loop 2, Music_LugiaBattle_Ch2_L1
; Pat 7 Row 0
Music_LugiaBattle_Ch2_L2:
	octave 2
	note B_, 2
	rest 2
	note B_, 2
	rest 2
	note B_, 1
	rest 1
	note B_, 2
	rest 2
	note B_, 3
	rest 1
	note B_, 2
	rest 2
	note B_, 1
	rest 1
	note B_, 2
	rest 2
	note B_, 2
	rest 2
	sound_loop 2, Music_LugiaBattle_Ch2_L2
; Pat 8 Row 0
	octave 3
	note E_, 2
	rest 2
	note E_, 2
	rest 2
	note E_, 1
	rest 1
	note E_, 2
	rest 2
	note E_, 3
	rest 1
	note E_, 2
	rest 2
	note E_, 1
	rest 1
	note E_, 2
	rest 2
	note E_, 2
	rest 2
	note G#, 2
	rest 2
	note G#, 2
	rest 2
	note G#, 1
	rest 1
	note G#, 2
	rest 2
	note G#, 3
	rest 1
	note G#, 2
	rest 2
	note G#, 1
	rest 1
	note G#, 2
	rest 2
	note G#, 2
	rest 2
; Pat 9 Row 0
	note D_, 2
	rest 2
	note D_, 2
	rest 2
	note D_, 1
	rest 1
	note D_, 2
	rest 2
	note D_, 3
	rest 1
	note D_, 2
	rest 2
	note D_, 1
	rest 1
	note A#, 2
	rest 2
	note A#, 2
	rest 2
	duty_cycle $0
	note_type 8, 12, 7
	vibrato 0, 0, 0
	octave 4
	note D_, 6
	note C#, 2
	note C_, 2
	octave 3
	note B_, 2
	note A#, 6
	note A_, 2
	note G#, 2
	note G_, 2
	note F#, 6
	note F_, 2
	note E_, 2
	note D#, 2
	note D_, 6
	note C#, 2
	note C_, 2
	octave 2
	note B_, 2
; Pat 10 Row 0
	note_type 12, 12, 7
	rest 16
	rest 16
	rest 16
	rest 12
	duty_cycle $3
	octave 3
	note G_, 1
	note G#, 1
	note A#, 1
	octave 4
	note C_, 1
; Pat 11 Row 0
	note D_, 2
	rest 6
	note D_, 2
	rest 10
	note D_, 4
	rest 4
	note_type 8, 12, 7
	note D_, 2
	note D_, 2
	note D_, 2
	note_type 12, 12, 7
	note E_, 2
	rest 6
	note E_, 2
	rest 6
	note C#, 16
	sound_loop 0, Music_LugiaBattle_Ch2_L

Music_LugiaBattle_Ch3:
; Pat 0 Row 4
	note_type 12, 2, 3
	octave 6
	note G_, 1
	note G#, 1
	note A_, 1
	note A#, 1
	note G_, 1
	note G#, 1
	note A_, 1
	note A#, 1
	note G_, 1
	note G#, 1
	note A_, 1
	note A#, 1
	note G_, 1
	note G#, 1
	note A_, 1
	note A#, 1
	note G_, 1
	note G#, 1
	note A_, 1
	note A#, 1
	note G_, 1
	note G#, 1
	note A_, 1
	note A#, 1
	note G_, 1
	note G#, 1
	note A_, 1
	note A#, 1
	note G_, 1
	note G#, 1
	note A_, 1
	note A#, 1
	note G_, 1
	note G#, 1
	note A_, 1
	note A#, 1
	note G_, 1
	note G#, 1
	note A_, 1
	note A#, 1
	note G_, 1
	note G#, 1
	note A_, 1
	note A#, 1
	note G_, 1
	note G#, 1
	note A_, 1
	note A#, 2
	rest 3
	note G_, 1
	note D_, 1
	octave 5
	note G_, 1
	note D_, 1
	octave 4
	note G_, 1
	note D_, 1
	octave 3
	note G_, 1
	note D_, 1
; Pat 1 Row 0
	volume_envelope 1, 6
	note E_, 2
	rest 6
	note E_, 2
	rest 6
	note C#, 14
	octave 2
	note F#, 2
; Pat 2 Row 0
Music_LugiaBattle_Ch3_L:
	octave 1
	note B_, 2
	octave 2
	note F#, 2
	octave 1
	note B_, 2
	octave 2
	note F#, 2
	octave 1
	note B_, 2
	octave 2
	note F#, 2
	octave 1
	note B_, 2
	octave 2
	note F#, 2
	octave 1
	note B_, 2
	octave 2
	note F#, 2
	octave 1
	note B_, 2
	octave 2
	note F#, 2
	octave 1
	note B_, 2
	octave 2
	note F#, 2
	octave 1
	note B_, 2
	octave 2
	note F#, 2
	note C_, 2
	note G_, 2
	note C_, 2
	note G_, 2
	note C_, 2
	note G_, 2
	note C_, 2
	note G_, 2
	note C_, 2
	note G_, 2
	note C_, 2
	note G_, 2
	note C_, 2
	note G_, 2
	note C_, 2
	note G_, 2
	sound_loop 3, Music_LugiaBattle_Ch3_L
; Pat 3 Row 0
; Pat 4 Row 0
; Pat 5 Row 0
Music_LugiaBattle_Ch3_L1:
	octave 1
	note B_, 2
	octave 2
	note F#, 2
	sound_loop 14, Music_LugiaBattle_Ch3_L1
	octave 1
	note A#, 2
	octave 2
	note F#, 2
	octave 1
	note A#, 2
	octave 2
	note F#, 2
; Pat 6 Row 0
Music_LugiaBattle_Ch3_L2:
	octave 1
	note A#, 2
	octave 2
	note E_, 2
	sound_loop 8, Music_LugiaBattle_Ch3_L2
Music_LugiaBattle_Ch3_L3:
	note C_, 2
	note F#, 2
	sound_loop 8, Music_LugiaBattle_Ch3_L3
; Pat 7 Row 0
Music_LugiaBattle_Ch3_L4:
	octave 1
	note G#, 2
	octave 2
	note C#, 2
	sound_loop 8, Music_LugiaBattle_Ch3_L4
Music_LugiaBattle_Ch3_L5:
	octave 1
	note A_, 2
	octave 2
	note D_, 2
	sound_loop 8, Music_LugiaBattle_Ch3_L5
; Pat 8 Row 0
Music_LugiaBattle_Ch3_L6:
	octave 1
	note A#, 2
	octave 2
	note E_, 2
	sound_loop 8, Music_LugiaBattle_Ch3_L6
Music_LugiaBattle_Ch3_L7:
	note C#, 2
	note G#, 2
	sound_loop 8, Music_LugiaBattle_Ch3_L7
; Pat 9 Row 0
Music_LugiaBattle_Ch3_L8:
	octave 1
	note A#, 2
	octave 2
	note G_, 2
	sound_loop 8, Music_LugiaBattle_Ch3_L8
	note A#, 4
	rest 4
	note A#, 4
	rest 4
	note A#, 3
	rest 1
	note A#, 3
	rest 1
	note A#, 3
	rest 1
	note A#, 3
	rest 1
; Pat 10 Row 0
	note A#, 16
	note F_, 4
	note A#, 8
	note F_, 4
	note G#, 16
	note D_, 4
	note G#, 8
	note D_, 4
; Pat 11 Row 0
	note G_, 2
	rest 6
	note G_, 2
	rest 6
	note D_, 4
	note G_, 2
	rest 6
	note_type 8, 1, 6
	note G_, 2
	note G_, 2
	note G_, 2
	note_type 12, 1, 6
	note C_, 2
	rest 6
	note C_, 2
	rest 6
	octave 3
	note C#, 14
	octave 2
	note F#, 2
	sound_loop 0, Music_LugiaBattle_Ch3_L
