Music_MewtwoBattle:
	channel_count 4
	channel 1, Music_MewtwoBattle_Ch1
	channel 2, Music_MewtwoBattle_Ch2
	channel 3, Music_MewtwoBattle_Ch3
	channel 4, Music_MewtwoBattle_Ch4

Music_MewtwoBattle_Ch1:
	tempo $78
	volume 7, 7
	stereo_panning TRUE, TRUE
	note_type 12, 0, 0
	rest 16
	duty_cycle_pattern 1, 1, 1, 1
	vibrato 5, 2, 1
	octave 4
	note_type 10, 15, 2
	note D#, 1
	note_type 11, 15, 2
	rest 2
	octave 3
	note_type 10, 15, 2
	note A#, 1
	note_type 6, 15, 2
	rest 1
	note_type 10, 15, 2
	note A#, 1
	note_type 6, 15, 2
	rest 1
	note_type 10, 15, 2
	note F_, 1
	note_type 6, 15, 2
	rest 1
	note_type 10, 15, 2
	note C_, 1
	note_type 6, 15, 2
	rest 1
	octave 2
	note_type 10, 15, 2
	note A#, 1
	note_type 6, 15, 2
	rest 1
	octave 3
	note_type 10, 15, 2
	note D_, 1
	note_type 6, 15, 2
	rest 1
	octave 4
	note_type 10, 15, 2
	note C_, 1
	note_type 6, 15, 2
	rest 1
	octave 3
	note_type 10, 15, 2
	note A#, 1
	note_type 6, 15, 2
	rest 1
	octave 4
	note_type 10, 15, 2
	note D#, 1
	note_type 6, 15, 2
	rest 1
	note_type 10, 15, 2
	note A#, 1
	note_type 6, 15, 2
	rest 1
	note B_, 2
	note_type 1, 15, 2
	note B_, 5
	note_type 6, 15, 2
	rest 13
	note_type 1, 15, 2
	rest 1
	note_type 6, 15, 2
	volume_envelope 15, 1
	octave 3
	note E_, 2
	octave 4
	note E_, 2
	volume_envelope 9, 8
	vibrato 3, 2, 4
	octave 5
	note E_, 16
	note E_, 16
	note E_, 10
	rest 2
	volume_envelope 15, 1
	vibrato 5, 2, 1
	octave 4
	note B_, 3
	rest 1
	volume_envelope 9, 8
	vibrato 3, 2, 4
	octave 3
	note B_, 16
	vibrato 5, 2, 1
	octave 4
	note_type 8, 15, 1
	note E_, 1
	rest 2
	octave 3
	note B_, 1
	rest 2
	vibrato 3, 2, 4
	volume_envelope 9, 8
	note A#, 16
	note A#, 9
	note_type 1, 9, 8
	rest 4
	note_type 8, 9, 8
	note_type 12, 9, 8
	rest 1
	vibrato 5, 2, 1
	octave 4
	note_type 9, 15, 1
	note E_, 2
	note_type 13, 15, 1
	rest 6
	note_type 8, 15, 1
	note E_, 1
	note_type 4, 15, 1
	rest 1
	octave 5
	note E_, 2
	rest 1
	octave 4
	note E_, 2
	rest 16
	octave 3
	note B_, 2
	rest 1
	octave 4
	note B_, 2
	rest 1
	octave 3
	note A#, 2
	rest 16
	note B_, 3
	octave 4
	note E_, 3
	note B_, 3
	octave 5
	note_type 6, 8, 1
	note B_, 1
	octave 6
	note C_, 1
	octave 5
	note B_, 1
	octave 6
	note C_, 1
	note C_, 1
	octave 5
	note B_, 1
	octave 6
	note C_, 1
	octave 5
	note B_, 1
	octave 6
	note C_, 1
	octave 5
	note B_, 1
	note B_, 1
	octave 6
	note C_, 1
	octave 5
	note B_, 1
	octave 6
	note C_, 1
	octave 5
	note B_, 1
	octave 6
	note C_, 1
	octave 5
	note B_, 1
	octave 6
	note C_, 1
	octave 5
	note B_, 1
	octave 6
	note C_, 1
	octave 5
	note B_, 1
	octave 6
	note C_, 1
	octave 5
	note B_, 1
	octave 6
	note C_, 1
	octave 5
	note B_, 1
	octave 6
	note C_, 1
	octave 5
	note B_, 1
	octave 6
	note C_, 1
	octave 5
	note B_, 1
	octave 6
	note C_, 1
	octave 5
	note B_, 1
	octave 6
	note C_, 1
	octave 5
	note B_, 1
	octave 6
	note C_, 1
	octave 5
	note B_, 1
	octave 6
	note C_, 1
	octave 5
	note B_, 1
	octave 6
	note C_, 1
	octave 5
	note B_, 1
	octave 6
	note C_, 1
	octave 5
	note B_, 1
	octave 6
	note C_, 1
	octave 5
	note B_, 1
	octave 6
	note C_, 1
	octave 5
	note B_, 1
	octave 6
	note C_, 1
	octave 5
	note B_, 1
	octave 6
	note C_, 1
	octave 5
	note B_, 1
	octave 6
	note C_, 1
	octave 5
	note B_, 1
	octave 6
	note C_, 1
	octave 5
	note B_, 1
	octave 6
	note C_, 1
	octave 5
	note B_, 1
	octave 6
	note C_, 1
	octave 5
	note B_, 1
	octave 6
	note C_, 1
	octave 5
	note B_, 1
	octave 6
	note C_, 1
	octave 5
	note B_, 1
	octave 6
	note C_, 1
	octave 5
	note B_, 1
	octave 6
	note C_, 1
	octave 5
	note B_, 1
	octave 6
	note C_, 1
	octave 5
	note B_, 1
	octave 6
	note C_, 1
	octave 5
	note B_, 1
	octave 6
	note C_, 1
	octave 5
	note B_, 1
	octave 6
	note C_, 1
	octave 5
	note B_, 1
	octave 6
	note C_, 1
Music_MewtwoBattle_Ch1_loop:
	duty_cycle_pattern 1, 1, 1, 1
	vibrato 0, 1, 3
	octave 3
	note_type 15, 12, 7
	note B_, 16
	note_type 12, 12, 7
	note A_, 4
	octave 4
	note_type 8, 12, 7
	note D_, 4
	note C_, 4
	octave 3
	note B_, 4
	octave 4
	note D_, 12
	note G_, 4
	note F_, 4
	note E_, 4
	note_type 12, 12, 7
	note D_, 1
	note E_, 1
	octave 3
	note A_, 14
	rest 8
	note_type 8, 12, 7
	note A#, 4
	note A_, 4
	note A#, 4
	octave 4
	note D_, 9
	note C_, 9
	octave 3
	note A#, 6
	note A_, 15
	note A_, 3
	note_type 12, 12, 7
	note G_, 1
	note_type 9, 12, 7
	note A_, 2
	note_type 6, 12, 7
	rest 1
	note_type 12, 12, 7
	note E_, 16
	rest 9
	note_type 8, 12, 7
	note E_, 4
	note F_, 4
	note G_, 4
	note A_, 4
	note B_, 4
	octave 4
	note C_, 4
	octave 3
	note B_, 4
	note A_, 4
	note G_, 4
	note A_, 15
	note A_, 3
	octave 4
	note C_, 3
	note G_, 9
	note_type 12, 12, 7
	note F_, 1
	note E_, 1
	note D_, 1
	note C_, 1
	note E_, 1
	note D_, 1
	note C_, 1
	octave 3
	note A#, 1
	octave 4
	note D_, 1
	note C_, 1
	octave 3
	note A#, 1
	note G_, 1
	note A_, 15
	rest 1
	duty_cycle_pattern 0, 0, 0, 0
	vibrato 0, 0, 0
	note A_, 7
	rest 1
	octave 4
	note F#, 7
	rest 1
	note C#, 15
	rest 1
	note D#, 8
	note A#, 4
	duty_cycle_pattern 2, 2, 1, 1
	vibrato 0, 1, 3
	note G#, 1
	note F_, 1
	octave 3
	note G_, 1
	note C_, 1
	rest 16
	rest 16
	rest 16
	rest 16
	duty_cycle_pattern 1, 1, 1, 1
	volume_envelope 13, 2
	octave 4
	note G_, 2
	rest 4
	note D_, 2
	rest 12
	note G_, 2
	rest 2
	note D_, 2
	rest 2
	note G_, 2
	rest 2
	note G#, 2
	rest 16
	rest 14
	note G_, 2
	rest 4
	note D_, 2
	rest 12
	note G_, 2
	rest 2
	note D_, 2
	rest 2
	note G_, 2
	rest 2
	note F_, 2
	rest 16
	rest 14
	note D#, 2
	rest 14
	note A#, 2
	rest 6
	note D#, 2
	rest 6
	note F_, 2
	rest 16
	rest 14
	note D#, 2
	rest 14
	octave 5
	note C_, 2
	rest 6
	note D_, 2
	rest 6
	note C_, 2
	rest 15
	duty_cycle_pattern 2, 2, 2, 2
	volume_envelope 15, 1
	octave 3
	note C_, 1
	note D_, 1
	note D#, 1
	note F_, 1
	note G_, 1
	note A_, 1
	note A#, 1
	octave 4
	note C_, 1
	note D_, 1
	note F_, 1
	note D#, 1
	note D_, 1
	note C_, 1
	octave 3
	note A#, 1
	octave 4
	note D_, 1
	rest 1
	note D_, 1
	note C_, 1
	note F_, 1
	note D#, 1
	note D_, 1
	note C_, 1
	note D#, 1
	note D_, 1
	note C_, 1
	octave 3
	note A#, 1
	note A_, 1
	octave 4
	note C_, 1
	octave 3
	note G_, 1
	note A_, 1
	note G_, 1
	note D#, 1
	note F_, 1
	note G_, 1
	note A_, 1
	note A#, 1
	octave 4
	note C_, 1
	note D_, 1
	note D#, 1
	note F_, 1
	note D#, 1
	note D_, 1
	note C_, 1
	note D#, 1
	note_type 9, 15, 1
	note D#, 2
	note_type 6, 15, 1
	rest 1
	note D#, 2
	note D_, 2
	note D#, 2
	note C_, 2
	note A_, 2
	rest 2
	note A_, 2
	rest 2
	note A_, 2
	rest 2
	note A_, 2
	note C_, 2
	note D_, 2
	note D_, 2
	note C_, 2
	note G_, 2
	note A_, 2
	note A#, 2
	note G_, 2
	note D#, 2
	note A#, 2
	octave 5
	note D_, 2
	note C_, 2
	octave 4
	note A#, 2
	note A_, 2
	note G_, 2
	note F_, 2
	note D#, 2
	note C_, 2
	note D_, 2
	note D#, 2
	octave 3
	note A_, 2
	note A#, 2
	note G_, 2
	note F_, 2
	note D#, 2
	note G_, 2
	note F_, 2
	note D#, 2
	note D_, 2
	note F_, 2
	note D#, 2
	note C_, 2
	note F_, 2
	rest 2
	note C_, 2
	note D_, 2
	note D#, 2
	note F_, 2
	note G_, 2
	note A_, 2
	note A#, 2
	note A_, 2
	note G_, 2
	note F_, 2
	note D#, 2
	note C_, 2
	note D#, 2
	note D_, 2
	note C_, 2
	note C_, 2
	note D#, 2
	note C_, 2
	note D#, 2
	note C_, 2
	note D_, 2
	octave 2
	note A_, 2
	octave 3
	note D_, 2
	octave 2
	note A_, 2
	octave 3
	note D_, 2
	octave 2
	note A_, 2
	octave 3
	note D_, 2
	octave 2
	note A_, 2
	octave 3
	note D_, 2
	octave 2
	note A_, 2
	octave 3
	note D_, 2
	note F_, 2
	note D_, 2
	note F_, 2
	note D_, 2
	note F_, 2
	note A#, 2
	note D#, 2
	octave 2
	note A#, 4
	rest 2
	octave 3
	note G_, 2
	note A#, 2
	note A_, 2
	note G_, 2
	note F_, 2
	note F_, 2
	note D_, 2
	octave 2
	note A#, 2
	note A#, 2
	octave 3
	note D#, 2
	octave 2
	note A#, 2
	octave 3
	note D_, 2
	octave 2
	note A_, 2
	octave 3
	note D_, 2
	note A_, 2
	rest 2
	note G_, 2
	note A_, 2
	note A_, 2
	note D_, 2
	note F_, 2
	note A_, 2
	note F_, 2
	note A_, 2
	note G_, 2
	note F_, 2
	note D_, 2
	note D#, 2
	note F_, 2
	note G_, 2
	note A_, 2
	note A#, 2
	octave 4
	note C_, 2
	note D_, 2
	note D#, 4
	note D_, 2
	note C_, 2
	note D#, 2
	note D_, 2
	note C_, 2
	octave 3
	note A#, 2
	octave 4
	note D#, 2
	note_type 8, 15, 1
	note D_, 1
	note D#, 1
	note D_, 1
	note D#, 1
	note D_, 1
	note D#, 1
	note_type 12, 15, 1
	note D_, 1
	note C_, 1
	octave 3
	note A#, 1
	note A_, 1
	octave 4
	note D_, 1
	octave 3
	note A_, 1
	note F_, 1
	note D#, 1
	note D_, 1
	note C_, 1
	note D#, 1
	note D_, 1
	note D#, 1
	note G_, 1
	octave 2
	note A#, 1
	octave 3
	note G_, 1
	note D#, 1
	note G_, 1
	octave 2
	note A#, 1
	octave 3
	note G_, 1
	note A#, 1
	note A_, 1
	note G_, 1
	note F_, 1
	note G_, 1
	note F_, 1
	note D#, 1
	note G_, 1
	note D_, 1
	note C_, 1
	note D_, 2
	note C_, 1
	octave 2
	note A_, 1
	octave 3
	note D_, 1
	note C_, 1
	note D_, 1
	octave 2
	note A_, 1
	octave 3
	note D_, 1
	octave 2
	note A_, 1
	octave 3
	note F_, 1
	note G_, 1
	note A_, 1
	note A#, 1
	octave 4
	note C_, 1
	octave 3
	note A#, 1
	note A_, 1
	note A#, 1
	octave 4
	note D#, 1
	note D_, 1
	note C_, 1
	octave 3
	note A#, 1
	note A#, 1
	note A_, 1
	note G_, 1
	note A#, 1
	note G_, 1
	note G_, 1
	note F_, 1
	note D#, 1
	note G_, 1
	note A_, 1
	note A#, 1
	note A_, 1
	note F_, 1
	note G_, 1
	note F_, 1
	note D#, 1
	note G_, 1
	note A_, 1
	octave 4
	note D#, 1
	note F_, 1
	note D#, 1
	note D_, 1
	note C_, 1
	note D#, 1
	octave 3
	note D#, 1
	note A#, 1
	note G_, 1
	note A#, 1
	octave 4
	note D#, 1
	note D_, 1
	note C_, 1
	note D#, 1
	note D#, 1
	note D_, 1
	note C_, 1
	octave 3
	note A#, 1
	duty_cycle_pattern 1, 1, 1, 1
	note_type 8, 15, 1
	note A#, 1
	octave 4
	note C_, 1
	note D_, 1
	note D#, 1
	note F_, 1
	note G_, 1
	volume_envelope 9, 8
	note A_, 16
	note A_, 16
	note A_, 16
	note A_, 16
	note A_, 16
	note A_, 10
	volume_envelope 15, 1
	note G_, 1
	note F_, 1
	note D#, 1
	note D_, 1
	note C_, 1
	octave 3
	note A#, 1
	volume_envelope 9, 8
	note A_, 16
	note A_, 16
	note A_, 16
	note A_, 16
	note A_, 16
	note A_, 16
	note_type 12, 9, 8
	rest 12
	octave 4
	note_type 14, 11, 7
	note D_, 3
	note_type 15, 11, 7
	rest 10
	octave 3
	note_type 14, 11, 7
	note B_, 3
	note_type 15, 11, 7
	rest 10
	octave 4
	note_type 14, 11, 7
	note D_, 3
	rest 9
	note_type 12, 11, 7
	note C_, 2
	octave 3
	note B_, 2
	octave 4
	note C_, 2
	volume_envelope 12, 7
	note D_, 15
	rest 13
	octave 3
	note_type 14, 11, 7
	note B_, 3
	note_type 6, 11, 7
	rest 1
	note B_, 11
	rest 1
	octave 4
	note E_, 11
	rest 1
	octave 3
	note B_, 7
	rest 1
	octave 4
	note D_, 11
	rest 1
	octave 3
	note B_, 11
	rest 16
	rest 16
	rest 16
	rest 9
	duty_cycle_pattern 2, 2, 1, 1
	volume_envelope 15, 1
	vibrato 0, 0, 0
	octave 4
	note D_, 2
	note C_, 2
	octave 3
	note B_, 2
	note A_, 2
	octave 4
	note D_, 2
	note C_, 2
	octave 3
	note B_, 2
	note A_, 2
	rest 16
	duty_cycle_pattern 1, 1, 1, 1
	volume_envelope 12, 7
	note A_, 14
	note_type 12, 12, 7
	rest 9
	duty_cycle_pattern 2, 2, 1, 1
	volume_envelope 15, 1
	octave 4
	note D_, 1
	note C_, 1
	octave 3
	note B_, 1
	octave 4
	note C_, 1
	note D_, 1
	note C_, 1
	octave 3
	note B_, 1
	octave 4
	note D_, 1
	rest 8
	duty_cycle_pattern 1, 1, 1, 1
	volume_envelope 12, 7
	note C_, 7
	rest 9
	duty_cycle_pattern 2, 2, 1, 1
	volume_envelope 15, 1
	note D_, 1
	note C_, 1
	octave 3
	note B_, 1
	note A_, 1
	octave 4
	note D_, 1
	note C_, 1
	octave 3
	note B_, 1
	note A_, 1
	rest 8
	duty_cycle_pattern 1, 1, 1, 1
	volume_envelope 12, 7
	note A_, 7
	rest 1
	duty_cycle_pattern 2, 2, 1, 1
	volume_envelope 15, 1
	octave 4
	note D_, 1
	note D_, 2
	note D_, 1
	rest 8
	volume_envelope 12, 7
	vibrato 0, 1, 3
	octave 3
	note E_, 1
	note F#, 1
	note G_, 1
	note A_, 1
	sound_loop 0, Music_MewtwoBattle_Ch1_loop

Music_MewtwoBattle_Ch2:
	duty_cycle_pattern 1, 1, 1, 1
	octave 3
	note_type 6, 12, 1
	note B_, 1
	note A#, 1
	note A_, 1
	note G#, 1
	octave 4
	note C_, 1
	octave 3
	note B_, 1
	note A#, 1
	note A_, 1
	octave 4
	note C#, 1
	note C_, 1
	octave 3
	note B_, 1
	note A_, 1
	octave 4
	note D_, 1
	note C#, 1
	note C_, 1
	octave 3
	note B_, 1
	octave 4
	note D#, 1
	note D_, 1
	note C#, 1
	note C_, 1
	note E_, 1
	note D#, 1
	note D_, 1
	note C#, 1
	note F_, 1
	note E_, 1
	note D#, 1
	note D_, 1
	note F#, 1
	note F_, 1
	note E_, 1
	note D#, 1
	note F_, 1
	note E_, 1
	note D#, 1
	note D_, 1
	note F#, 1
	note F_, 1
	note E_, 1
	note D#, 1
	note F_, 1
	note E_, 1
	note D#, 1
	note D_, 1
	note F#, 1
	note F_, 1
	note E_, 1
	note D#, 1
	note F_, 1
	note E_, 1
	note D#, 1
	note D_, 1
	note F#, 1
	note F_, 1
	note E_, 1
	note D#, 1
	note F_, 1
	note E_, 1
	note D#, 1
	note D_, 1
	note F#, 1
	note F_, 1
	note E_, 1
	note D#, 1
	volume_envelope 6, 8
	octave 3
	note E_, 16
	note E_, 16
	note E_, 16
	note E_, 16
	note E_, 16
	note E_, 16
	note E_, 16
	note E_, 16
	note E_, 16
	note E_, 16
	note E_, 16
	note E_, 8
	volume_envelope 12, 5
	note D_, 1
	note E_, 1
	note F#, 1
	note G_, 1
	note A_, 1
	note B_, 1
	octave 4
	note C_, 1
	note D_, 1
	note E_, 8
	octave 2
	note D_, 1
	note E_, 1
	note F#, 1
	note G_, 1
	note A_, 1
	note B_, 1
	octave 3
	note C_, 1
	note D_, 1
	note E_, 8
	octave 4
	note D_, 1
	note E_, 1
	note F#, 1
	note G_, 1
	note A_, 1
	note B_, 1
	octave 5
	note C_, 1
	note D_, 1
	note E_, 8
	octave 3
	note D_, 1
	note E_, 1
	note F#, 1
	note G_, 1
	note A_, 1
	note B_, 1
	octave 4
	note C_, 1
	note D_, 1
	note E_, 15
	rest 1
Music_MewtwoBattle_Ch2_loop:
	duty_cycle_pattern 2, 2, 2, 2
	vibrato 2, 2, 4
	octave 3
	note_type 15, 12, 5
	note B_, 16
	note_type 12, 12, 5
	note A_, 4
	octave 4
	note_type 8, 12, 5
	note D_, 4
	note C_, 4
	octave 3
	note B_, 4
	octave 4
	note D_, 12
	note G_, 4
	note F_, 4
	note E_, 4
	note_type 12, 12, 5
	note D_, 1
	note E_, 1
	octave 3
	note A_, 14
	rest 8
	note_type 8, 12, 5
	note A#, 4
	note A_, 4
	note A#, 4
	octave 4
	note D_, 9
	note C_, 9
	octave 3
	note A#, 6
	note A_, 15
	note A_, 3
	note_type 12, 12, 5
	note G_, 1
	note A_, 1
	note G_, 1
	note E_, 16
	rest 9
	note_type 8, 12, 5
	note E_, 4
	note F_, 4
	note G_, 4
	note A_, 4
	note B_, 4
	octave 4
	note C_, 4
	octave 3
	note B_, 4
	note A_, 4
	note G_, 4
	note A_, 15
	note A_, 3
	octave 4
	note C_, 3
	note G_, 9
	note_type 12, 12, 5
	note F_, 1
	note E_, 1
	note D_, 1
	note C_, 1
	note E_, 1
	note D_, 1
	note C_, 1
	octave 3
	note A#, 1
	octave 4
	note D_, 1
	note C_, 1
	octave 3
	note A#, 1
	note G_, 1
	note E_, 8
	rest 8
	duty_cycle_pattern 0, 0, 0, 0
	vibrato 0, 0, 0
	note B_, 15
	rest 1
	note E_, 8
	note G#, 8
	note G#, 8
	note A#, 4
	duty_cycle_pattern 0, 0, 1, 1
	vibrato 2, 2, 4
	octave 4
	note D#, 1
	octave 3
	note A#, 1
	note D#, 1
	octave 2
	note A#, 1
	note_type 9, 12, 5
	note A_, 2
	rest 16
	rest 16
	rest 16
	rest 16
	rest 16
	rest 3
	note_type 1, 12, 5
	rest 3
	note_type 9, 12, 5
	duty_cycle_pattern 1, 1, 1, 1
	octave 3
	note_type 12, 13, 2
	note G_, 1
	rest 5
	note D_, 1
	rest 13
	note G_, 1
	rest 3
	note D_, 1
	rest 3
	note G_, 1
	rest 3
	note G#, 1
	rest 16
	rest 15
	note G_, 1
	rest 5
	note D_, 1
	rest 13
	note G_, 1
	rest 3
	note D_, 1
	rest 3
	note G_, 1
	rest 3
	note F_, 1
	rest 16
	rest 15
	note D#, 1
	rest 15
	note A#, 1
	rest 7
	note D#, 1
	rest 7
	note F_, 1
	rest 16
	rest 15
	note D#, 1
	rest 15
	octave 4
	note C_, 1
	rest 7
	note D_, 1
	rest 7
	note C_, 1
	rest 16
	rest 15
	volume_envelope 15, 3
	octave 3
	note A_, 2
	note D_, 2
	note A_, 6
	note G_, 2
	octave 4
	note C_, 6
	octave 3
	note A#, 2
	note A_, 2
	octave 4
	note C_, 2
	octave 3
	note A#, 2
	note A_, 2
	note G_, 2
	note A#, 2
	note A_, 2
	note D_, 2
	note A_, 6
	note G_, 2
	octave 4
	note C_, 6
	note D#, 2
	note D_, 2
	note C_, 2
	note D_, 2
	note C_, 2
	octave 3
	note A#, 2
	note G_, 2
	note A_, 2
	note D_, 2
	note A_, 6
	note G_, 2
	octave 4
	note C_, 6
	octave 3
	note A#, 2
	note A_, 2
	note G_, 2
	note A#, 2
	note A_, 2
	note G_, 2
	note D#, 2
	note D_, 2
	note D#, 2
	note F_, 2
	note G_, 2
	note A_, 2
	note G_, 2
	note G_, 2
	note D_, 2
	note D#, 1
	note G_, 3
	note G_, 6
	note D#, 2
	note C_, 2
	note D#, 2
	vibrato 0, 3, 3
	note_type 14, 15, 7
	note D_, 3
	note_type 6, 15, 7
	rest 1
	note A_, 7
	rest 1
	octave 4
	note D_, 7
	rest 1
	note A_, 7
	rest 1
	note G_, 11
	rest 1
	note F_, 4
	note D#, 11
	rest 5
	octave 3
	note D_, 7
	rest 1
	note A_, 7
	rest 1
	octave 4
	note D_, 7
	rest 1
	note A_, 7
	rest 1
	note A#, 11
	rest 1
	note A_, 4
	note G_, 11
	rest 5
	octave 3
	note D_, 7
	rest 1
	note A_, 7
	rest 1
	octave 4
	note D_, 7
	rest 1
	note A_, 7
	rest 1
	note G_, 11
	rest 1
	note F_, 4
	note D#, 11
	rest 5
	octave 3
	note D_, 7
	rest 1
	note A_, 7
	rest 1
	octave 4
	note D_, 7
	rest 1
	note A_, 7
	rest 1
	octave 5
	note D#, 11
	rest 1
	note D_, 4
	note C_, 7
	rest 1
	octave 4
	note A#, 7
	rest 1
	octave 3
	note_type 15, 12, 8
	note D_, 16
	note_type 14, 12, 8
	note C_, 3
	note_type 6, 12, 8
	rest 1
	note_type 8, 12, 8
	note F_, 4
	note D#, 4
	note C_, 4
	note_type 11, 12, 8
	note D_, 6
	note_type 6, 12, 8
	note E_, 1
	note F_, 1
	note_type 13, 12, 8
	note A_, 12
	note_type 6, 12, 8
	rest 1
	note G_, 8
	octave 4
	note_type 8, 12, 8
	note C_, 4
	octave 3
	note A#, 4
	note G_, 4
	octave 4
	note_type 15, 12, 8
	note D_, 16
	note_type 14, 12, 8
	note C_, 3
	note_type 6, 12, 8
	rest 1
	note_type 8, 12, 8
	note F_, 4
	note D#, 4
	note C_, 4
	note_type 11, 12, 8
	note D_, 6
	note_type 6, 12, 8
	note E_, 1
	note F_, 1
	note_type 13, 12, 8
	note A_, 12
	note_type 6, 12, 8
	rest 1
	note A_, 7
	rest 1
	note_type 8, 12, 8
	note G_, 4
	note F_, 4
	note E_, 4
	vibrato 5, 1, 3
	note_type 12, 12, 8
	note F_, 12
	note E_, 2
	note F_, 2
	note G_, 6
	note D_, 6
	note G_, 4
	note F_, 6
	note E_, 6
	note C_, 4
	octave 3
	note B_, 6
	note_type 11, 12, 8
	note G_, 6
	note_type 9, 12, 8
	rest 6
	octave 4
	note F_, 16
	note_type 12, 12, 8
	note E_, 2
	note F_, 2
	note G_, 6
	note B_, 6
	octave 5
	note D_, 3
	rest 1
	note D_, 6
	octave 4
	note B_, 6
	note A_, 4
	note_type 11, 12, 8
	note G#, 6
	note_type 6, 12, 8
	rest 1
	note G#, 2
	note A_, 2
	note B_, 16
	octave 5
	note_type 12, 12, 8
	note C_, 12
	octave 4
	note B_, 2
	octave 5
	note C_, 2
	note D_, 6
	octave 4
	note A_, 6
	octave 5
	note D_, 4
	note C_, 12
	octave 4
	note B_, 2
	octave 5
	note C_, 2
	note D_, 6
	note E_, 6
	note D_, 4
	note C_, 12
	octave 4
	note B_, 2
	octave 5
	note C_, 2
	note D_, 6
	octave 4
	note A_, 6
	octave 5
	note D_, 4
	note C_, 12
	octave 4
	note B_, 2
	note A_, 2
	octave 5
	note_type 11, 12, 8
	note E_, 6
	note_type 6, 12, 8
	rest 1
	duty_cycle_pattern 2, 2, 1, 1
	volume_envelope 12, 5
	note D_, 2
	note C_, 2
	note D_, 2
	octave 4
	note B_, 2
	note G_, 2
	note E_, 2
	note B_, 2
	note G_, 2
	note E_, 2
	octave 3
	note B_, 2
	sound_loop 0, Music_MewtwoBattle_Ch2_loop

Music_MewtwoBattle_Ch3:
	note_type 12, 0, 0
	rest 16
	duty_cycle 7
	volume_envelope 1, 7
	octave 2
	note F_, 15
	rest 1
	note E_, 1
	rest 1
	note D_, 1
	rest 1
	note E_, 1
	rest 1
	note D_, 1
	rest 1
	note E_, 1
	rest 1
	note D_, 1
	rest 1
	note E_, 1
	rest 1
	note D_, 1
	rest 1
	note E_, 1
	rest 1
	note D_, 1
	rest 1
	note E_, 1
	rest 1
	note D_, 1
	rest 1
	note E_, 1
	rest 1
	note D_, 1
	rest 1
	note E_, 1
	rest 1
	note D_, 1
	rest 1
	note E_, 1
	rest 1
	note D_, 1
	rest 1
	note E_, 1
	rest 1
	note D_, 1
	rest 1
	note E_, 1
	rest 1
	note D_, 1
	rest 1
	note E_, 1
	rest 1
	note D_, 1
	rest 1
	note E_, 1
	rest 1
	note D_, 1
	rest 1
	note E_, 1
	rest 1
	note D_, 1
	rest 1
	note E_, 1
	rest 1
	note D_, 1
	rest 1
	note E_, 1
	rest 1
	note D_, 1
	rest 1
	note E_, 1
	rest 1
	note D_, 1
	rest 1
	note E_, 1
	rest 1
	note D_, 1
	rest 1
	note E_, 1
	rest 1
	note D_, 1
	rest 1
	note E_, 1
	rest 1
	note D_, 1
	rest 1
	note E_, 1
	rest 1
	note D_, 1
	rest 1
	note E_, 1
	rest 1
	note D_, 1
	rest 1
	note E_, 1
	rest 1
	note D_, 1
	rest 1
	note E_, 1
	rest 1
	note D_, 1
	rest 1
	note E_, 1
	rest 1
	note D_, 1
	rest 1
	note E_, 1
	rest 1
	note D_, 1
	rest 1
	note E_, 1
	rest 1
	note D_, 1
	rest 1
	note E_, 1
	rest 1
	note D_, 1
	rest 1
	note E_, 1
	rest 1
	note D_, 1
	rest 1
	note E_, 1
	rest 1
	note D_, 1
	rest 1
	note E_, 1
	rest 1
	note D_, 1
	rest 1
	note E_, 1
	rest 1
	note D_, 1
	rest 1
Music_MewtwoBattle_Ch3_loop:
	octave 1
	note A_, 3
	note A_, 3
	note A_, 1
	note A_, 1
	rest 1
	note A_, 1
	octave 2
	note E_, 2
	octave 1
	note B_, 1
	note A_, 2
	note E_, 1
	note A_, 3
	note A_, 3
	note A_, 1
	note A_, 1
	rest 1
	note A_, 1
	octave 2
	note E_, 2
	note A_, 1
	note G_, 1
	note F_, 1
	note E_, 1
	note F_, 3
	note F_, 3
	note F_, 1
	note F_, 1
	rest 1
	octave 1
	note F_, 1
	note F_, 1
	note F_, 1
	octave 2
	note C_, 1
	note C_, 3
	note F_, 3
	note F_, 3
	note F_, 1
	note F_, 1
	rest 1
	octave 1
	note F_, 1
	note F_, 1
	octave 2
	note C_, 1
	note F_, 1
	note E_, 1
	note D_, 1
	note C_, 1
	octave 1
	note A#, 3
	note A#, 3
	note A#, 1
	note A#, 1
	rest 1
	note A#, 1
	note A_, 1
	note A#, 1
	octave 2
	note D_, 1
	note C_, 2
	octave 1
	note G_, 1
	note A#, 3
	note A#, 3
	note A#, 1
	note A#, 1
	rest 1
	note A#, 1
	note A_, 1
	note A#, 1
	octave 2
	note D_, 1
	note C_, 1
	octave 1
	note A#, 1
	note G_, 1
	note A_, 3
	note A_, 3
	note A_, 1
	note A_, 1
	rest 1
	note A_, 1
	octave 2
	note E_, 2
	octave 1
	note A_, 1
	note E_, 2
	note G_, 1
	note A_, 3
	note A_, 3
	note A_, 1
	note A_, 1
	rest 1
	note A_, 1
	octave 2
	note E_, 2
	octave 1
	note A_, 1
	note E_, 2
	note G_, 1
	note F_, 3
	note F_, 3
	note F_, 1
	note F_, 1
	rest 1
	note F_, 1
	note F_, 1
	note F_, 1
	octave 2
	note C_, 1
	note C_, 3
	octave 1
	note F_, 3
	note F_, 3
	note F_, 1
	note F_, 1
	rest 1
	octave 2
	note C_, 1
	octave 1
	note A_, 1
	octave 2
	note C_, 1
	note F_, 1
	note E_, 1
	note D_, 1
	note C_, 1
	octave 1
	note A#, 3
	note A#, 3
	note A#, 1
	note A#, 1
	rest 1
	note A#, 1
	note A#, 1
	note A#, 1
	octave 2
	note F_, 1
	octave 1
	note A#, 2
	note A_, 1
	note A#, 3
	note A#, 3
	note A#, 1
	note A#, 1
	rest 1
	note A#, 1
	note A#, 1
	note A#, 1
	octave 2
	note D_, 1
	note C_, 1
	octave 1
	note A#, 1
	note G_, 1
	note A_, 3
	note A_, 3
	note A_, 1
	note A_, 1
	rest 1
	note A_, 1
	octave 2
	note E_, 2
	octave 1
	note A_, 1
	note G_, 2
	note E_, 1
	note A_, 3
	note A_, 3
	note A_, 1
	note A_, 1
	rest 1
	note A_, 1
	octave 2
	note E_, 2
	octave 1
	note A_, 1
	note G_, 2
	note E_, 1
	note A_, 3
	note A_, 3
	note A_, 1
	note A_, 1
	rest 1
	note A_, 1
	octave 2
	note E_, 2
	octave 1
	note A_, 1
	note G_, 2
	note E_, 1
	note A_, 3
	note A_, 3
	note A_, 2
	note A#, 1
	note A#, 1
	note A#, 2
	note A#, 1
	note A#, 2
	note A#, 1
	note E_, 2
	note A_, 2
	note G_, 2
	note E_, 2
	note A_, 2
	note G_, 2
	note E_, 2
	note A_, 2
	note G_, 2
	note E_, 2
	note A_, 2
	note G_, 2
	note E_, 2
	note A_, 2
	note G_, 2
	note E_, 2
	note A_, 2
	note G_, 2
	note E_, 2
	note A_, 2
	note G_, 2
	note E_, 2
	note A_, 2
	note G_, 2
	note E_, 2
	note A_, 2
	note G_, 2
	note E_, 2
	note A_, 2
	note G_, 2
	note E_, 2
	note A_, 2
	note A_, 2
	note G_, 2
	note E_, 2
	note A_, 2
	note G_, 2
	note E_, 2
	note A_, 2
	note G_, 2
	note E_, 2
	note A_, 2
	note G_, 2
	note E_, 2
	note A_, 2
	note G_, 2
	note E_, 2
	note A_, 2
	note A#, 2
	note G#, 2
	note F_, 2
	note A#, 2
	note G#, 2
	note F_, 2
	note A#, 2
	note G#, 2
	note F_, 2
	note A#, 2
	note G#, 2
	note F_, 2
	note A#, 2
	note G#, 2
	note F_, 2
	note A#, 2
	note A_, 2
	note G_, 2
	note E_, 2
	note A_, 2
	note G_, 2
	note E_, 2
	note A_, 2
	note G_, 2
	note E_, 2
	note A_, 2
	note G_, 2
	note E_, 2
	note A_, 2
	note G_, 2
	note E_, 2
	note A_, 2
	note F_, 2
	octave 2
	note C_, 2
	octave 1
	note A#, 2
	note F_, 2
	octave 2
	note C_, 2
	octave 1
	note A#, 2
	note F_, 2
	octave 2
	note C_, 2
	octave 1
	note A#, 2
	note F_, 2
	octave 2
	note C_, 2
	octave 1
	note A#, 2
	note F_, 2
	octave 2
	note C_, 2
	octave 1
	note A#, 2
	note F_, 2
	octave 2
	note D#, 2
	note C_, 2
	octave 1
	note A#, 2
	octave 2
	note D#, 2
	note C_, 2
	octave 1
	note A#, 2
	octave 2
	note D#, 2
	note C_, 2
	octave 1
	note A#, 2
	octave 2
	note D#, 2
	note C_, 2
	octave 1
	note A#, 2
	octave 2
	note D#, 2
	note C_, 2
	octave 1
	note A#, 2
	note G_, 2
	note F_, 2
	octave 2
	note C_, 2
	octave 1
	note A#, 2
	note F_, 2
	octave 2
	note C_, 2
	octave 1
	note A#, 2
	note F_, 2
	octave 2
	note C_, 2
	octave 1
	note A#, 2
	note F_, 2
	octave 2
	note C_, 2
	octave 1
	note A#, 2
	note F_, 2
	octave 2
	note C_, 2
	octave 1
	note A#, 2
	note F_, 2
	octave 2
	note D#, 2
	note C_, 2
	octave 1
	note A#, 2
	octave 2
	note D#, 2
	note C_, 2
	octave 1
	note A#, 2
	octave 2
	note D#, 2
	note C_, 2
	octave 1
	note A#, 2
	octave 2
	note D#, 2
	note C_, 2
	octave 1
	note A#, 2
	octave 2
	note D#, 2
	note C_, 2
	octave 1
	note A#, 2
	note G_, 2
	note F_, 2
	octave 2
	note C_, 2
	octave 1
	note A#, 2
	note F_, 2
	octave 2
	note C_, 2
	octave 1
	note A#, 2
	note F_, 2
	octave 2
	note C_, 2
	octave 1
	note A#, 2
	note F_, 2
	octave 2
	note C_, 2
	octave 1
	note A#, 2
	note F_, 2
	note A_, 2
	note A#, 2
	octave 2
	note C_, 2
	note D_, 3
	note D_, 2
	note D_, 3
	rest 1
	note D_, 3
	note D_, 1
	octave 1
	note A_, 1
	octave 2
	note C_, 1
	note D_, 1
	note D#, 3
	note D#, 2
	note D#, 3
	rest 1
	note D#, 3
	note D#, 1
	octave 1
	note A#, 1
	octave 2
	note D_, 1
	note D#, 1
	note D_, 3
	note D_, 2
	note D_, 3
	rest 1
	note D_, 3
	note D_, 1
	octave 1
	note A_, 1
	octave 2
	note C_, 1
	note D_, 1
	note D#, 3
	note D#, 2
	note D#, 3
	rest 1
	note D#, 3
	note D#, 1
	octave 1
	note A#, 1
	octave 2
	note D_, 1
	note D#, 1
	note D_, 3
	note D_, 2
	note D_, 3
	rest 1
	note D_, 3
	note D_, 1
	octave 1
	note A_, 1
	octave 2
	note C_, 1
	note D_, 1
	note D#, 3
	note D#, 2
	note D#, 3
	rest 1
	note D#, 3
	note D#, 1
	octave 1
	note A#, 1
	octave 2
	note D_, 1
	note D#, 1
	note D_, 3
	note D_, 2
	note D_, 3
	rest 1
	note D_, 3
	note D_, 1
	octave 1
	note A_, 1
	octave 2
	note C_, 1
	note D_, 1
	note D#, 3
	note D#, 2
	note D#, 3
	rest 1
	note D#, 3
	note D#, 1
	octave 1
	note A#, 1
	octave 2
	note D_, 1
	note D#, 1
	note D_, 3
	note D_, 2
	note D_, 3
	rest 1
	note D_, 3
	note D_, 1
	octave 1
	note A_, 1
	octave 2
	note C_, 1
	note D_, 1
	note D#, 3
	note D#, 2
	note D#, 3
	rest 1
	note D#, 3
	note D#, 1
	octave 1
	note A#, 1
	octave 2
	note D_, 1
	note D#, 1
	note D_, 3
	note D_, 2
	note D_, 3
	rest 1
	note D_, 3
	note D_, 1
	octave 1
	note A_, 1
	octave 2
	note C_, 1
	note D_, 1
	note D#, 3
	note D#, 2
	note D#, 3
	rest 1
	note D#, 3
	note D#, 1
	octave 1
	note A#, 1
	octave 2
	note D_, 1
	note D#, 1
	note D_, 3
	note D_, 2
	note D_, 3
	rest 1
	note D_, 3
	note D_, 1
	octave 1
	note A_, 1
	octave 2
	note C_, 1
	note D_, 1
	note D#, 3
	note D#, 2
	note D#, 3
	rest 1
	note D#, 3
	note D#, 1
	octave 1
	note A#, 1
	octave 2
	note D_, 1
	note D#, 1
	note D_, 3
	note D_, 2
	note D_, 3
	rest 1
	note D_, 3
	note D_, 1
	octave 1
	note A_, 1
	octave 2
	note C_, 1
	note D_, 1
	note D#, 3
	note D#, 2
	note D#, 3
	rest 1
	note C_, 1
	note C_, 1
	octave 1
	note G_, 1
	octave 2
	note C_, 1
	note C_, 1
	octave 1
	note A#, 1
	octave 2
	note C_, 1
	rest 2
	octave 3
	note D_, 2
	note D_, 2
	note C_, 1
	octave 2
	note A#, 1
	octave 3
	note C_, 1
	octave 2
	note A#, 1
	note A_, 1
	note G_, 1
	note A_, 1
	note G_, 1
	note F_, 1
	note E_, 1
	note F_, 1
	note E_, 1
	note F_, 1
	note G_, 1
	note A_, 2
	note A_, 2
	note A_, 1
	note G_, 1
	note F_, 1
	note E_, 1
	note F_, 1
	note E_, 1
	note D_, 1
	note C_, 1
	note A_, 2
	note A_, 2
	note A_, 1
	note A_, 1
	note G_, 1
	note F_, 1
	note E_, 1
	note F_, 1
	note E_, 1
	note D_, 1
	note C_, 1
	note D_, 1
	note C_, 1
	octave 1
	note A#, 1
	octave 2
	note A_, 1
	note A_, 3
	note A_, 1
	note G_, 1
	note F_, 1
	note E_, 1
	note F_, 1
	note E_, 1
	note D_, 1
	note C_, 1
	note D_, 1
	note C_, 1
	octave 1
	note A#, 1
	note A_, 1
	rest 2
	octave 3
	note D_, 2
	note D_, 2
	note C_, 1
	octave 2
	note A#, 1
	octave 3
	note C_, 1
	octave 2
	note A#, 1
	note A_, 1
	note G_, 1
	note A_, 1
	note G_, 1
	note F_, 1
	note E_, 1
	note F_, 1
	note E_, 1
	note F_, 1
	note G_, 1
	note A_, 2
	note A_, 2
	note A_, 1
	note G_, 1
	note F_, 1
	note E_, 1
	note F_, 1
	note E_, 1
	note D_, 1
	note C_, 1
	note A_, 2
	note A_, 2
	note A_, 1
	note A_, 1
	note G_, 1
	note F_, 1
	note E_, 1
	note F_, 1
	note E_, 1
	note D_, 1
	note C_, 1
	note D_, 1
	note C_, 1
	octave 1
	note A#, 1
	octave 2
	note A_, 1
	note A_, 3
	note A_, 1
	note G_, 1
	note F_, 1
	note E_, 1
	note F_, 1
	note E_, 1
	note D_, 1
	note C_, 1
	note D_, 1
	note C_, 1
	octave 1
	note A#, 1
	note A_, 1
	octave 2
	note D_, 3
	note D_, 3
	note D_, 3
	note D_, 1
	note C_, 1
	note D_, 1
	octave 1
	note A_, 1
	note A_, 3
	note G_, 3
	note G_, 3
	note G_, 3
	note G_, 1
	note F#, 1
	note G_, 1
	octave 2
	note D_, 1
	note D_, 3
	note D_, 3
	note D_, 3
	note D_, 3
	note D_, 1
	note C_, 1
	note D_, 1
	octave 1
	note A_, 1
	note A_, 3
	note G_, 3
	note G_, 3
	note G_, 3
	note G_, 1
	note F#, 1
	note G_, 1
	octave 2
	note D_, 1
	octave 1
	note G_, 1
	note B_, 1
	octave 2
	note D_, 1
	note D_, 3
	note D_, 3
	note D_, 3
	note D_, 1
	note C_, 1
	note D_, 1
	octave 1
	note A_, 1
	note A_, 3
	note G_, 3
	note G_, 3
	note G_, 3
	note G_, 1
	note F#, 1
	note G_, 1
	octave 2
	note D_, 1
	octave 1
	note G_, 1
	note B_, 1
	octave 2
	note D_, 1
	octave 1
	note B_, 3
	note B_, 3
	note B_, 3
	note B_, 1
	note A_, 1
	note B_, 1
	octave 2
	note E_, 3
	rest 1
	octave 1
	note E_, 3
	note E_, 3
	note E_, 3
	note E_, 1
	note G#, 1
	note A_, 1
	note B_, 1
	note E_, 1
	note G#, 1
	note B_, 1
	note A_, 3
	note A_, 3
	note A_, 3
	note A_, 1
	note G_, 1
	note A_, 1
	octave 2
	note E_, 3
	rest 1
	note D_, 3
	note D_, 3
	note D_, 3
	note D_, 1
	note C_, 1
	note D_, 1
	octave 1
	note G_, 2
	note G_, 2
	note A_, 3
	note A_, 3
	note A_, 3
	note A_, 1
	note G_, 1
	note A_, 1
	octave 2
	note E_, 3
	rest 1
	note D_, 3
	note D_, 3
	note D_, 3
	note D_, 1
	note C_, 1
	note D_, 1
	octave 1
	note G_, 1
	note G_, 3
	note A_, 3
	note A_, 3
	note A_, 3
	note A_, 1
	note G_, 1
	note A_, 1
	octave 2
	note E_, 3
	rest 1
	note D_, 3
	note D_, 3
	note D_, 3
	note D_, 1
	note C_, 1
	note D_, 1
	octave 1
	note G_, 1
	note G_, 3
	note A_, 3
	note A_, 3
	note A_, 3
	note A_, 1
	note G_, 1
	note A_, 1
	octave 2
	note E_, 3
	rest 1
	note D_, 3
	note D_, 3
	note D_, 3
	note E_, 1
	note D_, 1
	note C_, 1
	note D_, 1
	note C_, 1
	octave 1
	note B_, 1
	note A_, 1
	sound_loop 0, Music_MewtwoBattle_Ch3_loop

Music_MewtwoBattle_Ch4:
	drum_speed 12
	rest 16
	toggle_noise 1
	drum_note 7, 15
	rest 1
	drum_note 7, 2
	drum_note 5, 1
	drum_note 5, 1
	drum_note 5, 2
	drum_note 5, 1
	drum_note 5, 1
	drum_note 5, 2
	drum_note 5, 1
	drum_note 5, 1
	drum_note 5, 2
	drum_note 5, 1
	drum_note 5, 1
	drum_note 5, 2
	drum_note 5, 1
	drum_note 5, 1
	drum_note 5, 2
	drum_note 5, 1
	drum_note 5, 1
	drum_note 5, 2
	drum_note 5, 1
	drum_note 5, 1
	drum_note 5, 2
	drum_note 5, 1
	drum_note 5, 1
	drum_note 5, 2
	drum_note 5, 1
	drum_note 5, 1
	drum_note 5, 2
	drum_note 5, 1
	drum_note 5, 1
	drum_note 5, 2
	drum_note 5, 1
	drum_note 5, 1
	drum_note 5, 2
	drum_note 5, 1
	drum_note 5, 1
	drum_note 5, 2
	drum_note 5, 1
	drum_note 5, 1
	drum_note 5, 2
	drum_note 5, 1
	drum_note 5, 1
	drum_note 5, 2
	drum_note 5, 1
	drum_note 5, 1
	drum_note 5, 2
	drum_note 5, 1
	drum_note 5, 1
	drum_note 5, 2
	drum_note 5, 1
	drum_note 5, 1
	drum_note 4, 2
	drum_note 5, 1
	drum_note 5, 1
	drum_note 5, 2
	drum_note 5, 1
	drum_note 5, 1
	drum_note 4, 2
	drum_note 5, 1
	drum_note 4, 1
	drum_note 5, 2
	drum_note 5, 1
	drum_note 5, 1
	drum_note 4, 2
	drum_note 5, 1
	drum_note 5, 1
	drum_note 5, 2
	drum_note 5, 1
	drum_note 5, 1
	drum_note 4, 2
	drum_note 5, 1
	drum_note 4, 1
	drum_note 5, 2
	drum_note 5, 1
	drum_note 5, 1
	drum_note 4, 2
	drum_note 5, 1
	drum_note 5, 1
	drum_note 5, 2
	drum_note 5, 1
	drum_note 5, 1
	drum_note 4, 2
	drum_note 5, 1
	drum_note 4, 1
	drum_note 5, 2
	drum_note 5, 1
	drum_note 5, 1
	drum_note 4, 2
	drum_note 5, 1
	drum_note 5, 1
	drum_note 4, 1
	drum_note 4, 1
	drum_note 4, 1
	drum_note 4, 1
	drum_note 4, 2
	drum_note 4, 1
	drum_note 4, 1
Music_MewtwoBattle_Ch4_loop:
	drum_note 7, 3
	rest 1
	drum_note 5, 1
	drum_note 5, 3
	rest 1

	drum_note 11, 3

	drum_note 5, 1
	drum_note 5, 1
	drum_note 7, 1
	drum_note 5, 1
	rest 1
	drum_note 5, 3
	drum_note 5, 1
	drum_note 5, 1

	drum_note 11, 3
	drum_note 11, 3

	drum_note 5, 1
	drum_note 5, 1
	drum_note 7, 1
	drum_note 5, 1
	drum_note 5, 1
	drum_note 5, 3
	drum_note 5, 1
	drum_note 5, 3
	rest 1

	drum_note 11, 3

	drum_note 5, 1
	drum_note 5, 1
	drum_note 7, 1
	drum_note 5, 1
	rest 1
	drum_note 5, 3
	drum_note 5, 1
	drum_note 5, 1

	drum_note 11, 3
	drum_note 11, 3
	drum_note 11, 2
	drum_note 11, 1
	drum_note 11, 1

	drum_note 7, 3
	rest 1
	drum_note 5, 1
	drum_note 5, 3
	rest 1

	drum_note 11, 3

	drum_note 5, 1
	drum_note 5, 1
	drum_note 7, 1
	drum_note 5, 1
	rest 1
	drum_note 5, 3
	drum_note 5, 1
	drum_note 5, 1

	drum_note 11, 3
	drum_note 11, 3

	drum_note 5, 1
	drum_note 5, 1
	drum_note 7, 1
	drum_note 5, 1
	drum_note 5, 1
	drum_note 5, 3
	drum_note 5, 1
	drum_note 5, 3
	rest 1

	drum_note 11, 3

	drum_note 5, 1
	drum_note 5, 1
	drum_note 7, 1
	drum_note 5, 1
	rest 1
	drum_note 5, 3
	drum_note 5, 1
	drum_note 5, 1

	drum_note 11, 3
	drum_note 11, 3
	drum_note 11, 2
	drum_note 11, 1
	drum_note 11, 1

	drum_note 7, 3
	rest 1
	drum_note 5, 1
	drum_note 5, 3
	rest 1

	drum_note 11, 3

	drum_note 5, 1
	drum_note 5, 1
	drum_note 7, 1
	drum_note 5, 1
	rest 1
	drum_note 5, 3
	drum_note 5, 1
	drum_note 5, 1

	drum_note 11, 3
	drum_note 11, 3

	drum_note 5, 1
	drum_note 5, 1
	drum_note 7, 1
	drum_note 5, 1
	drum_note 5, 1
	drum_note 5, 3
	drum_note 5, 1
	drum_note 5, 3
	rest 1

	drum_note 11, 3

	drum_note 5, 1
	drum_note 5, 1
	drum_note 7, 1
	drum_note 5, 1
	rest 1
	drum_note 5, 3
	drum_note 5, 1
	drum_note 5, 1

	drum_note 11, 3
	drum_note 11, 3
	drum_note 11, 2
	drum_note 11, 1
	drum_note 11, 1

	drum_note 7, 3
	rest 1
	drum_note 5, 1
	drum_note 5, 3
	rest 1

	drum_note 11, 3

	drum_note 5, 1
	drum_note 5, 1
	drum_note 7, 1
	drum_note 5, 1
	rest 1
	drum_note 5, 3
	drum_note 5, 1
	drum_note 5, 1

	drum_note 11, 3
	drum_note 11, 3

	drum_note 5, 1
	drum_note 5, 1
	drum_note 7, 1
	drum_note 5, 1
	drum_note 5, 1
	drum_note 5, 3
	drum_note 5, 1
	drum_note 5, 3
	rest 1

	drum_note 11, 3

	drum_note 5, 1
	drum_note 5, 1
	drum_note 7, 1
	drum_note 5, 1
	rest 1
	drum_note 5, 3
	drum_note 5, 1
	drum_note 5, 1

	drum_note 11, 3
	drum_note 11, 3
	drum_note 11, 2
	drum_note 11, 1
	drum_note 11, 1

	drum_note 7, 1
	drum_note 5, 1
	drum_note 7, 2
	drum_note 5, 1
	drum_note 5, 1
	drum_note 7, 2
	drum_note 5, 1
	drum_note 5, 1
	drum_note 7, 2
	drum_note 5, 1
	drum_note 5, 1
	drum_note 7, 2
	drum_note 5, 1
	drum_note 5, 1
	drum_note 7, 2
	drum_note 5, 1
	drum_note 5, 1
	drum_note 7, 2
	drum_note 5, 1
	drum_note 5, 1
	drum_note 7, 2
	drum_note 5, 1
	drum_note 5, 1
	drum_note 7, 2
	drum_note 5, 1
	drum_note 5, 1
	drum_note 7, 2
	drum_note 5, 1
	drum_note 5, 1
	drum_note 7, 2
	drum_note 5, 1
	drum_note 5, 1
	drum_note 7, 2
	drum_note 5, 1
	drum_note 5, 1
	drum_note 7, 2
	drum_note 5, 1
	drum_note 5, 1
	drum_note 7, 2
	drum_note 5, 1
	drum_note 5, 1
	drum_note 7, 2
	drum_note 5, 1
	drum_note 5, 1
	drum_note 5, 1
	drum_note 5, 1
	drum_note 5, 1
	drum_note 5, 1
	drum_note 7, 2
	drum_note 5, 1
	drum_note 5, 1
	drum_note 7, 2
	drum_note 5, 1
	drum_note 5, 1
	drum_note 7, 2
	drum_note 5, 1
	drum_note 5, 1
	drum_note 7, 2
	drum_note 5, 1
	drum_note 5, 1
	drum_note 7, 2
	drum_note 5, 1
	drum_note 5, 1
	drum_note 7, 2
	drum_note 5, 1
	drum_note 5, 1
	drum_note 7, 2
	drum_note 5, 1
	drum_note 5, 1
	drum_note 7, 2
	drum_note 5, 1
	drum_note 5, 1
	drum_note 7, 2
	drum_note 5, 1
	drum_note 5, 1
	drum_note 7, 2
	drum_note 5, 1
	drum_note 5, 1
	drum_note 7, 2
	drum_note 5, 1
	drum_note 5, 1
	drum_note 7, 2
	drum_note 5, 1
	drum_note 5, 1
	drum_note 7, 2
	drum_note 5, 1
	drum_note 5, 1
	drum_note 7, 2
	drum_note 5, 1
	drum_note 5, 1
	drum_note 7, 2
	drum_note 5, 1
	drum_note 5, 1
	drum_note 5, 1
	drum_note 5, 1
	drum_note 5, 1
	drum_note 5, 1
	drum_note 7, 2
	drum_note 5, 1
	drum_note 5, 1
	drum_note 7, 2
	drum_note 5, 1
	drum_note 5, 1
	drum_note 7, 2
	drum_note 5, 1
	drum_note 5, 1
	drum_note 7, 2
	drum_note 5, 1
	drum_note 5, 1
	drum_note 7, 2
	drum_note 5, 1
	drum_note 5, 1
	drum_note 7, 2
	drum_note 5, 1
	drum_note 5, 1
	drum_note 7, 2
	drum_note 5, 1
	drum_note 5, 1
	drum_note 7, 2
	drum_note 5, 1
	drum_note 5, 1
	drum_note 7, 2
	drum_note 5, 1
	drum_note 5, 1
	drum_note 7, 2
	drum_note 5, 1
	drum_note 5, 1
	drum_note 7, 2
	drum_note 5, 1
	drum_note 5, 1
	drum_note 7, 2
	drum_note 5, 1
	drum_note 5, 1
	drum_note 7, 2
	drum_note 5, 1
	drum_note 5, 1
	drum_note 7, 2
	drum_note 5, 1
	drum_note 5, 1
	drum_note 7, 2
	drum_note 5, 1
	drum_note 5, 1
	drum_note 5, 1
	drum_note 5, 1
	drum_note 5, 1
	drum_note 5, 1
	drum_note 7, 2
	drum_note 5, 1
	drum_note 5, 1
	drum_note 7, 2
	drum_note 5, 1
	drum_note 5, 1
	drum_note 7, 2
	drum_note 5, 1
	drum_note 5, 1
	drum_note 7, 2
	drum_note 5, 1
	drum_note 5, 1
	drum_note 7, 2
	drum_note 5, 1
	drum_note 5, 1
	drum_note 7, 2
	drum_note 5, 1
	drum_note 5, 1
	drum_note 7, 2
	drum_note 5, 1
	drum_note 5, 1
	drum_note 7, 2
	drum_note 5, 1
	drum_note 5, 1
	drum_note 7, 2
	drum_note 5, 1
	drum_note 5, 1
	drum_note 7, 2
	drum_note 5, 1
	drum_note 5, 1
	drum_note 7, 2
	drum_note 5, 1
	drum_note 5, 1
	drum_note 7, 2
	drum_note 5, 1
	drum_note 5, 1
	drum_note 7, 2
	drum_note 5, 1
	drum_note 5, 1
	drum_note 7, 2
	drum_note 5, 1
	drum_note 5, 1
	drum_note 7, 2
	drum_note 5, 1
	drum_note 5, 1
	drum_note 5, 1
	drum_note 5, 1
	drum_note 5, 1
	drum_note 5, 1
	drum_note 7, 2
	drum_note 5, 1
	drum_note 5, 1
	drum_note 7, 2
	drum_note 5, 1
	drum_note 5, 1
	drum_note 7, 2
	drum_note 5, 1
	drum_note 5, 1
	drum_note 7, 2
	drum_note 5, 1
	drum_note 5, 1
	drum_note 7, 2
	drum_note 5, 1
	drum_note 5, 1
	drum_note 7, 2
	drum_note 5, 1
	drum_note 5, 1
	drum_note 7, 2
	drum_note 5, 1
	drum_note 5, 1
	drum_note 7, 2
	drum_note 5, 1
	drum_note 5, 1
	drum_note 7, 2
	drum_note 5, 1
	drum_note 5, 1
	drum_note 7, 2
	drum_note 5, 1
	drum_note 5, 1
	drum_note 7, 2
	drum_note 5, 1
	drum_note 5, 1
	drum_note 7, 2
	drum_note 5, 1
	drum_note 5, 1
	drum_note 7, 2
	drum_note 4, 1
	drum_note 5, 1
	drum_note 7, 1
	drum_note 4, 1

	drum_note 11, 1

	drum_note 5, 1
	drum_note 7, 2
	drum_note 5, 1

	drum_note 11, 1

	drum_note 5, 1
	drum_note 5, 1

	drum_note 11, 1

	drum_note 5, 1
	drum_note 7, 1

	drum_note 11, 1

	drum_note 10, 1
	drum_note 7, 1
	drum_note 5, 1
	drum_note 4, 1

	drum_note 11, 1

	drum_note 5, 1
	drum_note 7, 2
	drum_note 4, 1
	drum_note 7, 1
	drum_note 4, 1
	drum_note 5, 1

	drum_note 11, 1

	drum_note 5, 1
	drum_note 7, 2
	drum_note 4, 1
	drum_note 7, 1
	drum_note 5, 1
	drum_note 4, 1

	drum_note 11, 1

	drum_note 5, 1
	drum_note 7, 2
	drum_note 5, 1

	drum_note 11, 1

	drum_note 7, 1
	drum_note 4, 1

	drum_note 11, 1

	drum_note 5, 1
	drum_note 7, 2
	drum_note 4, 1
	drum_note 7, 1
	drum_note 5, 1
	drum_note 4, 1

	drum_note 11, 1

	drum_note 5, 1
	drum_note 7, 2
	drum_note 4, 1
	drum_note 7, 1
	drum_note 4, 1
	drum_note 5, 1

	drum_note 11, 1

	drum_note 5, 1
	drum_note 7, 2
	drum_note 4, 1
	drum_note 7, 1
	drum_note 5, 1
	drum_note 4, 1

	drum_note 11, 1

	drum_note 5, 1
	drum_note 7, 2
	drum_note 5, 1

	drum_note 11, 1

	drum_note 7, 1
	drum_note 4, 1

	drum_note 11, 1

	drum_note 5, 1
	drum_note 7, 1

	drum_note 11, 1

	drum_note 10, 1
	drum_note 7, 1
	drum_note 5, 1
	drum_note 4, 1

	drum_note 11, 1

	drum_note 5, 1
	drum_note 7, 2
	drum_note 4, 1
	drum_note 7, 1
	drum_note 4, 1
	drum_note 5, 1

	drum_note 11, 1

	drum_note 5, 1
	drum_note 7, 2
	drum_note 4, 1
	drum_note 7, 1
	drum_note 5, 1
	drum_note 4, 1

	drum_note 11, 1

	drum_note 5, 1
	drum_note 7, 2
	drum_note 5, 1

	drum_note 11, 1

	drum_note 7, 1
	drum_note 4, 1

	drum_note 11, 1

	drum_note 5, 1
	drum_note 7, 2
	drum_note 4, 1
	drum_note 7, 1
	drum_note 5, 1
	drum_note 4, 1

	drum_note 11, 1

	drum_note 5, 1
	drum_note 7, 2
	drum_note 4, 1
	drum_note 7, 1
	drum_note 4, 1
	drum_note 5, 1

	drum_note 11, 1

	drum_note 5, 1
	drum_note 7, 2
	drum_note 4, 1
	drum_note 7, 1
	drum_note 5, 1
	drum_note 4, 1

	drum_note 11, 1

	drum_note 5, 1
	drum_note 7, 2
	drum_note 5, 1

	drum_note 11, 1

	drum_note 7, 1
	drum_note 4, 1

	drum_note 11, 1

	drum_note 5, 1
	drum_note 7, 1

	drum_note 11, 1

	drum_note 10, 1
	drum_note 7, 1
	drum_note 5, 1
	drum_note 4, 1

	drum_note 11, 1

	drum_note 5, 1
	drum_note 7, 2
	drum_note 4, 1
	drum_note 7, 1
	drum_note 4, 1
	drum_note 5, 1

	drum_note 11, 1

	drum_note 5, 1
	drum_note 7, 2
	drum_note 4, 1
	drum_note 7, 1
	drum_note 5, 1
	drum_note 4, 1

	drum_note 11, 1

	drum_note 5, 1
	drum_note 7, 2
	drum_note 5, 1

	drum_note 11, 1

	drum_note 7, 1
	drum_note 4, 1

	drum_note 11, 1

	drum_note 5, 1
	drum_note 7, 2
	drum_note 4, 1
	drum_note 7, 1
	drum_note 5, 1
	drum_note 4, 1

	drum_note 11, 1

	drum_note 5, 1
	drum_note 7, 2
	drum_note 4, 1
	drum_note 7, 1
	drum_note 4, 1
	drum_note 5, 1

	drum_note 11, 1

	drum_note 5, 1
	drum_note 7, 2
	drum_note 4, 1
	drum_note 7, 1
	drum_note 5, 1
	drum_note 4, 1

	drum_note 11, 1

	drum_note 5, 1
	drum_note 7, 2
	drum_note 5, 1

	drum_note 11, 1

	drum_note 7, 1
	drum_note 4, 1

	drum_note 11, 1

	drum_note 5, 1
	drum_note 7, 1

	drum_note 11, 1

	drum_note 10, 1
	drum_note 7, 1
	drum_note 5, 1
	drum_note 4, 1

	drum_note 11, 1

	drum_note 5, 1
	drum_note 7, 2
	drum_note 4, 1
	drum_note 7, 1
	drum_note 4, 1
	drum_note 5, 1

	drum_note 11, 1

	drum_note 5, 1
	drum_note 7, 2
	drum_note 4, 1
	drum_note 7, 1
	drum_note 5, 1
	drum_note 4, 1

	drum_note 11, 1

	drum_note 5, 1
	drum_note 7, 2
	drum_note 5, 1

	drum_note 11, 1

	drum_note 7, 1
	drum_note 4, 1

	drum_note 11, 1

	drum_note 5, 1
	drum_note 7, 2
	drum_note 4, 1
	drum_note 7, 1
	drum_note 5, 1
	drum_note 4, 1

	drum_note 11, 1

	drum_note 5, 1
	drum_note 7, 2
	drum_note 4, 1
	drum_note 7, 1
	drum_note 4, 1
	drum_note 5, 1

	drum_note 11, 1

	drum_note 5, 1
	drum_note 7, 2
	drum_note 4, 1
	drum_note 7, 1
	drum_note 5, 1
	drum_note 4, 1

	drum_note 11, 1

	drum_note 5, 1
	drum_note 7, 2
	drum_note 5, 1

	drum_note 11, 1

	drum_note 7, 1
	drum_note 4, 1
	drum_note 4, 1

	drum_note 11, 1
	drum_note 11, 1

	drum_note 7, 1

	drum_note 11, 1

	drum_note 4, 2
	drum_note 10, 2
	rest 1

	drum_note 11, 1

	drum_note 5, 1
	drum_note 5, 3
	rest 1
	drum_note 5, 1
	drum_note 5, 1

	drum_note 11, 1

	drum_note 5, 1
	drum_note 5, 1

	drum_note 11, 3
	rest 2

	drum_note 10, 2
	rest 1

	drum_note 11, 1

	drum_note 5, 1
	drum_note 5, 1

	drum_note 11, 1

	drum_note 5, 1

	drum_note 11, 1
	drum_note 11, 1

	drum_note 4, 2

	drum_note 11, 3

	drum_note 10, 1
	drum_note 5, 1
	drum_note 5, 2

	drum_note 11, 3
	drum_note 11, 2
	drum_note 11, 1
	drum_note 11, 1
	drum_note 11, 2

	drum_note 5, 1
	drum_note 5, 1
	drum_note 5, 2
	drum_note 10, 2
	drum_note 5, 1
	drum_note 5, 1

	drum_note 11, 2
	drum_note 11, 1
	drum_note 11, 1
	drum_note 11, 1
	drum_note 11, 1

	drum_note 4, 2
	drum_note 10, 2
	rest 2

	drum_note 11, 1

	drum_note 5, 1
	drum_note 5, 3
	rest 1
	drum_note 5, 1
	drum_note 5, 1

	drum_note 11, 1

	drum_note 5, 1
	drum_note 5, 1

	drum_note 11, 3
	rest 2

	drum_note 10, 2
	rest 1

	drum_note 11, 1

	drum_note 5, 1
	drum_note 5, 1

	drum_note 11, 1

	drum_note 5, 1

	drum_note 11, 1
	drum_note 11, 1

	drum_note 4, 2

	drum_note 11, 3

	drum_note 10, 1
	drum_note 5, 1
	drum_note 5, 2

	drum_note 11, 3
	drum_note 11, 2
	drum_note 11, 1
	drum_note 11, 1
	drum_note 11, 2

	drum_note 5, 1
	drum_note 5, 1
	drum_note 5, 2
	drum_note 10, 2
	drum_note 5, 1
	drum_note 5, 1

	drum_note 11, 2
	drum_note 11, 1
	drum_note 11, 1
	drum_note 11, 1
	drum_note 11, 1

	drum_note 10, 1
	drum_note 5, 1
	drum_note 7, 1
	drum_note 4, 1

	drum_note 11, 1

	drum_note 5, 1
	drum_note 7, 1
	drum_note 5, 1
	drum_note 5, 1
	drum_note 5, 1
	drum_note 7, 1
	drum_note 4, 1

	drum_note 11, 1

	drum_note 5, 1
	drum_note 7, 1
	drum_note 5, 1
	drum_note 4, 1
	drum_note 5, 1
	drum_note 7, 1
	drum_note 4, 1

	drum_note 11, 1

	drum_note 5, 1
	drum_note 7, 1
	drum_note 5, 1
	drum_note 5, 1
	drum_note 5, 1
	drum_note 7, 1
	drum_note 4, 1

	drum_note 11, 1

	drum_note 5, 1
	drum_note 7, 1
	drum_note 5, 1
	drum_note 4, 1
	drum_note 5, 1
	drum_note 7, 1
	drum_note 4, 1

	drum_note 11, 1

	drum_note 5, 1
	drum_note 7, 1
	drum_note 5, 1
	drum_note 5, 1
	drum_note 5, 1
	drum_note 7, 1
	drum_note 4, 1

	drum_note 11, 1

	drum_note 5, 1
	drum_note 7, 1
	drum_note 5, 1
	drum_note 4, 1
	drum_note 5, 1
	drum_note 7, 1
	drum_note 4, 1

	drum_note 11, 1

	drum_note 5, 1
	drum_note 7, 1
	drum_note 5, 1
	drum_note 5, 1
	drum_note 5, 1
	drum_note 7, 1
	drum_note 4, 1

	drum_note 11, 1

	drum_note 5, 1
	drum_note 7, 1

	drum_note 11, 1

	drum_note 4, 1
	drum_note 5, 1
	drum_note 7, 1
	drum_note 4, 1

	drum_note 11, 1

	drum_note 5, 1
	drum_note 7, 1
	drum_note 5, 1
	drum_note 5, 1
	drum_note 5, 1
	drum_note 7, 1
	drum_note 4, 1

	drum_note 11, 1

	drum_note 5, 1
	drum_note 7, 1
	drum_note 5, 1
	drum_note 4, 1
	drum_note 5, 1
	drum_note 7, 1
	drum_note 4, 1

	drum_note 11, 1

	drum_note 5, 1
	drum_note 7, 1
	drum_note 5, 1
	drum_note 5, 1
	drum_note 5, 1
	drum_note 7, 1
	drum_note 4, 1

	drum_note 11, 1

	drum_note 5, 1
	drum_note 7, 1
	drum_note 5, 1
	drum_note 4, 1
	drum_note 5, 1
	drum_note 7, 1
	drum_note 4, 1

	drum_note 11, 1

	drum_note 5, 1
	drum_note 7, 1
	drum_note 5, 1
	drum_note 5, 1
	drum_note 5, 1
	drum_note 7, 1
	drum_note 4, 1

	drum_note 11, 1

	drum_note 5, 1
	drum_note 7, 1
	drum_note 5, 1
	drum_note 4, 1
	drum_note 5, 1
	drum_note 7, 1
	drum_note 4, 1

	drum_note 11, 1

	drum_note 5, 1
	drum_note 7, 1
	drum_note 5, 1
	drum_note 5, 1
	drum_note 5, 1
	drum_note 7, 1
	drum_note 4, 1

	drum_note 11, 1

	drum_note 5, 1
	drum_note 7, 1

	drum_note 11, 1

	drum_note 4, 1
	drum_note 5, 1
	drum_note 7, 1
	drum_note 4, 1

	drum_note 11, 1

	drum_note 5, 1
	drum_note 7, 1
	drum_note 5, 1
	drum_note 5, 1
	drum_note 5, 1
	drum_note 7, 1
	drum_note 4, 1

	drum_note 11, 1

	drum_note 5, 1
	drum_note 7, 1
	drum_note 5, 1
	drum_note 4, 1
	drum_note 5, 1
	drum_note 7, 1
	drum_note 4, 1

	drum_note 11, 1

	drum_note 5, 1
	drum_note 7, 1
	drum_note 5, 1
	drum_note 5, 1
	drum_note 5, 1
	drum_note 7, 1
	drum_note 4, 1

	drum_note 11, 1

	drum_note 5, 1
	drum_note 7, 1
	drum_note 5, 1
	drum_note 4, 1
	drum_note 5, 1
	drum_note 7, 1
	drum_note 4, 1

	drum_note 11, 1

	drum_note 5, 1
	drum_note 7, 1
	drum_note 5, 1
	drum_note 5, 1
	drum_note 5, 1
	drum_note 7, 1
	drum_note 4, 1

	drum_note 11, 1

	drum_note 5, 1
	drum_note 7, 1
	drum_note 5, 1
	drum_note 4, 1
	drum_note 5, 1
	drum_note 7, 1
	drum_note 4, 1

	drum_note 11, 1

	drum_note 5, 1
	drum_note 7, 1
	drum_note 5, 1
	drum_note 5, 1
	drum_note 5, 1
	drum_note 7, 1
	drum_note 4, 1

	drum_note 11, 1

	drum_note 5, 1
	drum_note 7, 1

	drum_note 11, 1

	drum_note 4, 1
	drum_note 5, 1
	drum_note 7, 1
	drum_note 4, 1

	drum_note 11, 1

	drum_note 5, 1
	drum_note 7, 1
	drum_note 5, 1
	drum_note 5, 1
	drum_note 5, 1
	drum_note 7, 1
	drum_note 4, 1

	drum_note 11, 1

	drum_note 5, 1
	drum_note 7, 1
	drum_note 5, 1
	drum_note 4, 1
	drum_note 5, 1
	drum_note 7, 1
	drum_note 4, 1

	drum_note 11, 1

	drum_note 5, 1
	drum_note 7, 1
	drum_note 5, 1
	drum_note 5, 1
	drum_note 5, 1
	drum_note 7, 1
	drum_note 4, 1

	drum_note 11, 1

	drum_note 5, 1
	drum_note 7, 1
	drum_note 5, 1
	drum_note 4, 1
	drum_note 5, 1
	drum_note 7, 1
	drum_note 4, 1

	drum_note 11, 1

	drum_note 5, 1
	drum_note 7, 1
	drum_note 5, 1
	drum_note 5, 1
	drum_note 5, 1
	drum_note 7, 1
	drum_note 4, 1

	drum_note 11, 1

	drum_note 5, 1
	drum_note 7, 1
	drum_note 5, 1
	drum_note 4, 1
	drum_note 5, 1
	drum_note 7, 1
	drum_note 4, 1

	drum_note 11, 1

	drum_note 5, 1
	drum_note 7, 1
	drum_note 5, 1
	drum_note 5, 1

	drum_note 11, 1

	drum_note 5, 1
	drum_note 5, 1
	drum_note 5, 2
	drum_note 5, 1
	drum_note 5, 1
	sound_loop 0, Music_MewtwoBattle_Ch4_loop
