Music_MoravilSchool:
	channel_count 4
	channel 1, Music_MoravilSchool_Ch1
	channel 2, Music_MoravilSchool_Ch2
	channel 3, Music_MoravilSchool_Ch3
	channel 4, Music_MoravilSchool_Ch4

Music_MoravilSchool_Ch1:
	volume 7, 7
	duty_cycle 2
	note_type 12, 10, 7
	tempo 129
	octave 3
	note B_, 2
	octave 4
	note D_, 2
	note F#, 2
	octave 3
	note B_, 2
	octave 4
	note G_, 4
	note F#, 2
	note E_, 2
	note D_, 4
	note E_, 2
	note D_, 2
	note C#, 8
	note D_, 2
	note F#, 2
	note A_, 2
	note D_, 2
	note B_, 4
	note A_, 2
	note G_, 2
	note F#, 4
	note G_, 2
	note F#, 2
	note E_, 4
	note F#, 2
	note G_, 2
	note A_, 8
	note C#, 4
	note E_, 4
	note D_, 1
	note C#, 2
	note D_, 1
	octave 3
	note B_, 8
	octave 4
	note G_, 2
	note A_, 2
	note B_, 8
	note D_, 4
	note G_, 4
	note F#, 1
	note G_, 2
	note F#, 1
	note E_, 8
	note A_, 2
	note B_, 2
	octave 5
	note C#, 10
	octave 4
	note A_, 2
	note B_, 2
	octave 5
	note C#, 2
	note E_, 1
	note D_, 1
	note C#, 1
	note D_, 1
	octave 4
	note B_, 6
	note A_, 2
	note G_, 2
	note F#, 2
	note E_, 10
	note C_, 2
	note D_, 2
	note E_, 2
	note D_, 8
	note C#, 4
	octave 3
	note A_, 4
	octave 4
	note D_, 16
	note D_, 13
	note C#, 1
	octave 3
	note B_, 1
	octave 4
	note C#, 1
	note D_, 16
	note D_, 12
	note F#, 1
	note E_, 1
	note D_, 1
	note E_, 1
	note F#, 16
	note F#, 12
	note A_, 1
	note G_, 1
	note F#, 1
	note G_, 1
	note A_, 16
	note A_, 8
	note F#, 1
	note E_, 1
	note D_, 1
	note C#, 1
	note E_, 1
	note D_, 1
	note C#, 1
	octave 3
	note A#, 1
	octave 8
	sound_loop, 0, Music_MoravilSchool_Ch1
	sound_ret

Music_MoravilSchool_Ch2:
	duty_cycle 1
	note_type 12, 10, 7
	octave 3
	note B_, 2
	octave 4
	note D_, 2
	note F#, 2
	octave 3
	note B_, 2
	octave 4
	note G_, 4
	note F#, 2
	note E_, 2
	note D_, 4
	note E_, 2
	note D_, 2
	note C#, 8
	note D_, 2
	note F#, 2
	note A_, 2
	note D_, 2
	note B_, 4
	note A_, 2
	note G_, 2
	note F#, 4
	note G_, 2
	note F#, 2
	note E_, 4
	note F#, 2
	note G_, 2
	note A_, 8
	note C#, 4
	note E_, 4
	note D_, 1
	note C#, 2
	note D_, 1
	octave 3
	note B_, 8
	octave 4
	note G_, 2
	note A_, 2
	note B_, 8
	note D_, 4
	note G_, 4
	note F#, 1
	note G_, 2
	note F#, 1
	note E_, 8
	note A_, 2
	note B_, 2
	octave 5
	note C#, 10
	octave 4
	note A_, 2
	note B_, 2
	octave 5
	note C#, 2
	note E_, 1
	note D_, 1
	note C#, 1
	note D_, 1
	octave 4
	note B_, 6
	note A_, 2
	note G_, 2
	note F#, 2
	note E_, 10
	note C_, 2
	note D_, 2
	note E_, 2
	note D_, 8
	note C#, 4
	octave 3
	note A_, 4
	octave 4
	note D_, 16
	note D_, 13
	note C#, 1
	octave 3
	note B_, 1
	octave 4
	note C#, 1
	note D_, 16
	note D_, 12
	note F#, 1
	note E_, 1
	note D_, 1
	note E_, 1
	note F#, 16
	note F#, 12
	note A_, 1
	note G_, 1
	note F#, 1
	note G_, 1
	note A_, 16
	note A_, 8
	note F#, 1
	note E_, 1
	note D_, 1
	note C#, 1
	note E_, 1
	note D_, 1
	note C#, 1
	octave 3
	note A#, 1
	note_type 12, 12, 7
	sound_loop, 0, Music_MoravilSchool_Ch2
	sound_ret

Music_MoravilSchool_Ch3:
	note_type 12, 2, 0
	octave 2
	note B_, 8
	octave 3
	note E_, 8
	note G_, 8
	note A_, 4
	note G_, 4
	note D_, 8
	note G_, 8
	note B_, 8
	note A_, 2
	note E_, 1
	rest 1
	note C#, 1
	rest 1
	octave 2
	note A_, 1
	rest 3
	note F#, 2
	octave 3
	note C#, 1
	rest 1
	note F#, 1
	rest 3
	octave 2
	note F#, 1
	rest 1
	octave 3
	note F#, 2
	note C#, 1
	rest 3
	octave 2
	note B_, 2
	octave 3
	note F#, 1
	rest 1
	note B_, 1
	rest 3
	octave 2
	note B_, 1
	rest 1
	octave 3
	note B_, 2
	note F#, 1
	rest 3
	octave 2
	note G_, 2
	octave 3
	note D_, 1
	rest 1
	note G_, 1
	rest 3
	octave 2
	note G_, 1
	rest 1
	octave 3
	note G_, 2
	note D_, 1
	rest 3
	octave 2
	note A_, 2
	octave 3
	note E_, 1
	rest 1
	note A_, 1
	rest 3
	octave 2
	note A_, 1
	rest 1
	octave 3
	note A_, 2
	note E_, 1
	rest 3
	octave 2
	note F#, 2
	octave 3
	note C#, 1
	rest 1
	note F#, 1
	rest 3
	octave 2
	note F#, 1
	rest 1
	octave 3
	note F#, 2
	note C#, 1
	rest 3
	octave 2
	note B_, 2
	octave 3
	note F#, 1
	rest 1
	note B_, 1
	rest 3
	octave 2
	note B_, 1
	rest 1
	octave 3
	note B_, 2
	note F#, 1
	rest 1
	note C_, 2
	octave 4
	note C_, 1
	rest 1
	octave 3
	note C_, 2
	octave 4
	note C_, 1
	rest 1
	octave 3
	note C_, 2
	octave 4
	note C_, 1
	rest 1
	octave 3
	note C_, 2
	octave 4
	note C_, 1
	rest 1
	octave 2
	note A_, 2
	octave 3
	note A_, 1
	rest 1
	octave 2
	note A_, 2
	octave 3
	note A_, 1
	rest 1
	octave 2
	note A_, 2
	octave 3
	note A_, 1
	rest 1
	octave 2
	note A_, 2
	octave 3
	note A_, 1
	rest 1
	note D_, 2
	note A_, 1
	rest 3
	note A_, 1
	rest 1
	note D_, 2
	note B_, 1
	rest 3
	note B_, 1
	rest 1
	note D_, 2
	octave 4
	note C#, 1
	rest 3
	note C#, 1
	rest 1
	octave 3
	note D_, 2
	note B_, 1
	rest 3
	note B_, 1
	rest 1
	note D_, 2
	note A_, 1
	rest 3
	note A_, 1
	rest 1
	note D_, 2
	note B_, 1
	rest 3
	note B_, 1
	rest 1
	note D_, 2
	octave 4
	note C#, 1
	rest 3
	note C#, 1
	rest 1
	octave 3
	note D_, 2
	note B_, 1
	rest 3
	note B_, 1
	rest 1
	note D_, 2
	note A_, 1
	rest 3
	note A_, 1
	rest 1
	note D_, 2
	note B_, 1
	rest 3
	note B_, 1
	rest 1
	note D_, 2
	octave 4
	note C#, 1
	rest 3
	note C#, 1
	rest 1
	octave 3
	note D_, 2
	note B_, 1
	rest 3
	note B_, 1
	rest 1
	note D_, 2
	note A_, 1
	rest 3
	note A_, 1
	rest 1
	note D_, 2
	note B_, 1
	rest 3
	note B_, 1
	rest 1
	note D_, 2
	octave 4
	note C#, 1
	rest 3
	note C#, 1
	rest 1
	octave 3
	note F#, 2
	octave 4
	note C#, 1
	rest 1
	octave 3
	note F#, 2
	octave 4
	note C#, 1
	rest 1
	sound_loop, 0, Music_MoravilSchool_Ch3
	sound_ret

Music_MoravilSchool_Ch4:
	toggle_noise 1
	drum_speed 12
	drum_note 12, 2
	drum_note 7, 2
	drum_note 12, 2
	drum_note 7, 2
	drum_note 12, 2
	drum_note 8, 2
	drum_note 12, 2
	drum_note 8, 2
	drum_note 3, 2
	drum_note 8, 2
	drum_note 3, 2
	drum_note 8, 2
	drum_note 5, 2
	drum_note 10, 2
	drum_note 5, 2
	drum_note 10, 2
	drum_note 3, 2
	drum_note 10, 2
	drum_note 3, 2
	drum_note 10, 2
	drum_note 3, 2
	drum_note 12, 2
	drum_note 3, 2
	drum_note 12, 2
	drum_note 3, 2
	drum_note 12, 2
	drum_note 3, 2
	drum_note 12, 2
	drum_note 2, 2
	drum_note 10, 2
	drum_note 2, 2
	drum_note 10, 2
	drum_note 10, 8
	drum_note 10, 8
	drum_note 7, 8
	drum_note 7, 8
	drum_note 12, 8
	drum_note 12, 8
	drum_note 2, 8
	drum_note 2, 8
	drum_note 10, 8
	drum_note 10, 8
	drum_note 7, 8
	drum_note 7, 8
	drum_note 5, 2
	drum_note 8, 2
	drum_note 5, 2
	drum_note 8, 2
	drum_note 5, 2
	drum_note 8, 2
	drum_note 5, 2
	drum_note 8, 2
	drum_note 5, 2
	drum_note 8, 2
	drum_note 5, 2
	drum_note 8, 2
	drum_note 10, 1
	drum_note 8, 1
	drum_note 7, 1
	drum_note 5, 1
	drum_note 7, 1
	drum_note 5, 1
	drum_note 3, 1
	drum_note 2, 1
	drum_note 7, 4
	drum_note 3, 4
	drum_note 8, 4
	drum_note 3, 4
	drum_note 10, 2
	drum_note 10, 2
	drum_note 3, 2
	drum_note 10, 2
	drum_note 8, 4
	drum_note 5, 4
	drum_note 7, 4
	drum_note 3, 4
	drum_note 8, 4
	drum_note 3, 4
	drum_note 10, 2
	drum_note 10, 2
	drum_note 3, 2
	drum_note 10, 2
	drum_note 8, 4
	drum_note 5, 4
	drum_note 7, 4
	drum_note 3, 4
	drum_note 8, 4
	drum_note 3, 4
	drum_note 10, 2
	drum_note 10, 2
	drum_note 3, 2
	drum_note 10, 2
	drum_note 8, 4
	drum_note 5, 4
	drum_note 7, 4
	drum_note 3, 4
	drum_note 8, 4
	drum_note 3, 4
	drum_note 10, 2
	drum_note 10, 2
	drum_note 3, 2
	drum_note 10, 2
	drum_note 7, 4
	drum_note 5, 4
	sound_loop, 0, Music_MoravilSchool_Ch4
	sound_ret
