Music_ScantelesTown:
	channel_count 4
	channel 1, Music_ScantelesTown_Ch1
	channel 2, Music_ScantelesTown_Ch2
	channel 3, Music_ScantelesTown_Ch3
	channel 4, Music_ScantelesTown_Ch4

Music_ScantelesTown_Ch1:
	volume 7, 7
	duty_cycle 2
	note_type 12, 9, 7
	tempo 150
Music_ScantelesTown_Ch1_Loop:
	octave 3
	note F_, 2
	volume_envelope 8, 7
	note F#, 2
	rest 2
	volume_envelope 9, 7
	note F#, 2
	note F_, 2
	volume_envelope 8, 7
	note F#, 2
	rest 2
	volume_envelope 9, 7
	note F#, 2
	note G_, 2
	note F#, 2
	rest 2
	note F#, 2
	note F_, 2
	note F#, 2
	rest 2
	note F#, 2
	note A_, 8
	note G_, 8
	note F#, 10
	rest 6
	note F_, 2
	volume_envelope 8, 7
	note F#, 2
	rest 2
	volume_envelope 9, 7
	note F#, 2
	note F_, 2
	volume_envelope 8, 7
	note F#, 2
	rest 2
	volume_envelope 9, 7
	note F#, 2
	note G_, 2
	note F#, 2
	rest 2
	note F#, 2
	note F_, 2
	note F#, 2
	rest 2
	note F#, 2
	note A_, 8
	note G_, 8
	note F#, 10
	rest 6
	volume_envelope 11, 7
	note F#, 4
	note F#, 2
	note G_, 2
	note F#, 6
	note C#, 2
	note E_, 2
	note F#, 2
	note G_, 2
	note A_, 2
	note F#, 4
	note C#, 2
	note C#, 2
	note E_, 6
	note D_, 2
	note C#, 4
	octave 2
	note B_, 2
	octave 3
	note D_, 8
	rest 10
	volume_envelope 10, 7
	note F#, 4
	note F#, 2
	note G_, 2
	note F#, 6
	note C#, 2
	note E_, 2
	note F#, 2
	note G_, 2
	note A_, 2
	note F#, 4
	note F_, 2
	note F#, 2
	note B_, 8
	note A_, 4
	note A_, 2
	note G_, 2
	note F#, 2
	note F#, 2
	note F_, 2
	note G_, 8
	rest 16
	rest 16
	rest 16
	rest 16
	rest 2
	sound_loop 0, Music_ScantelesTown_Ch1_Loop

Music_ScantelesTown_Ch2:
	duty_cycle 1
	note_type 12, 7, 7
	octave 3
Music_ScantelesTown_Ch2_Loop:
	note C_, 2
	note C#, 2
	rest 2
	note C#, 2
	note C_, 2
	note C#, 2
	rest 2
	note C#, 2
	note D_, 2
	note C#, 2
	rest 2
	note C#, 2
	note C_, 2
	note C#, 2
	rest 2
	note C#, 2
	octave 2
	note A_, 8
	note B_, 8
	octave 3
	note C#, 10
	rest 6
	note C_, 2
	note C#, 2
	rest 2
	note C#, 2
	note C_, 2
	note C#, 2
	rest 2
	note C#, 2
	note D_, 2
	note C#, 2
	rest 2
	note C#, 2
	note C_, 2
	note C#, 2
	rest 2
	note C#, 2
	octave 2
	note A_, 8
	note B_, 8
	octave 3
	note C#, 10
	rest 16
	rest 16
	rest 16
	rest 16
	rest 16
	rest 16
	rest 6
	note D_, 8
	rest 14
	octave 2
	note B_, 8
	octave 3
	rest 16
	rest 16
	rest 16
	rest 16
	rest 2
	sound_loop 0, Music_ScantelesTown_Ch2_Loop

Music_ScantelesTown_Ch3:
	note_type 12, 1, 0
	octave 3
Music_ScantelesTown_Ch3_Loop:
	volume_envelope 2, 0
	note C_, 2
	note C#, 2
	note C#, 2
	note C#, 2
	note D_, 2
	note C#, 2
	note C_, 2
	note D_, 2
	note C#, 2
	note C_, 2
	note D_, 2
	note C#, 2
	octave 2
	note B_, 2
	octave 3
	note C_, 2
	note C#, 4
	note C_, 2
	note C#, 2
	note C#, 2
	note C#, 2
	note D_, 2
	note C#, 2
	note C_, 2
	note D_, 2
	note C#, 2
	note C_, 2
	note D_, 2
	note C#, 2
	octave 2
	note B_, 2
	octave 3
	note C_, 2
	note C#, 4
	note C_, 2
	note C#, 2
	note C#, 2
	note C#, 2
	note D_, 2
	note C#, 2
	note C_, 2
	note D_, 2
	note C#, 2
	note C_, 2
	note D_, 2
	note C#, 2
	octave 2
	note B_, 2
	octave 3
	note C_, 2
	note C#, 4
	note C_, 2
	note C#, 2
	note C#, 2
	note C#, 2
	note D_, 2
	note C#, 2
	note C_, 2
	note D_, 2
	note C#, 2
	note C_, 2
	note D_, 2
	note C#, 2
	octave 2
	note B_, 2
	octave 3
	note C_, 2
	note C#, 4
	note C_, 2
	note C#, 2
	note C#, 2
	note C#, 2
	note D_, 2
	note C#, 2
	note C_, 2
	note D_, 2
	note C#, 2
	note C_, 2
	note D_, 2
	note C#, 2
	octave 2
	note B_, 2
	octave 3
	note C_, 2
	note C#, 4
	note C_, 2
	note C#, 2
	note C#, 2
	note C#, 2
	note D_, 2
	note C#, 2
	note C_, 2
	note D_, 2
	note C#, 2
	note C_, 2
	note D_, 2
	note C#, 2
	octave 2
	note B_, 2
	octave 3
	note C_, 2
	note C#, 4
	note C_, 2
	note C#, 2
	note C#, 2
	note C#, 2
	note D_, 2
	note C#, 2
	note C_, 2
	note D_, 2
	note C#, 2
	note C_, 2
	note D_, 2
	note C#, 2
	octave 2
	note B_, 2
	octave 3
	note C_, 2
	note C#, 4
	note C_, 2
	note C#, 2
	note C#, 2
	note C#, 2
	note D_, 2
	note C#, 2
	note C_, 2
	note D_, 2
	note C#, 2
	note C_, 2
	note D_, 2
	note C#, 2
	octave 2
	note B_, 2
	octave 3
	note C_, 2
	note C#, 4
	note C_, 2
	note C#, 2
	note C#, 2
	note C#, 2
	note D_, 2
	note C#, 2
	note C_, 2
	note D_, 2
	note C#, 2
	note C_, 2
	note D_, 2
	note C#, 2
	octave 2
	note B_, 2
	octave 3
	note C_, 2
	note C#, 4
	note C_, 2
	note C#, 2
	note C#, 2
	note C#, 2
	note D_, 2
	note C#, 2
	note C_, 2
	note D_, 2
	note C#, 2
	note C_, 2
	note D_, 2
	note C#, 2
	octave 2
	note B_, 2
	octave 3
	note C_, 2
	note C#, 4
	sound_loop 0, Music_ScantelesTown_Ch3_Loop

Music_ScantelesTown_Ch4:
	toggle_noise 1
	drum_speed 12
Music_ScantelesTown_Ch4_Loop:
	drum_note 4, 2
	drum_note 4, 2
	drum_note 5, 2
	drum_note 4, 1
	drum_note 4, 1
	drum_note 3, 1
	drum_note 4, 1
	drum_note 3, 1
	drum_note 3, 1
	drum_note 5, 2
	drum_note 3, 2
	drum_note 3, 1
	drum_note 4, 1
	drum_note 3, 1
	drum_note 3, 1
	drum_note 4, 1
	drum_note 4, 1
	drum_note 3, 1
	drum_note 3, 1
	drum_note 4, 2
	drum_note 5, 2
	drum_note 5, 2
	drum_note 4, 1
	drum_note 4, 1
	drum_note 3, 2
	drum_note 4, 2
	drum_note 5, 2
	drum_note 4, 1
	drum_note 4, 1
	drum_note 3, 2
	drum_note 4, 2
	drum_note 3, 1
	drum_note 3, 1
	drum_note 5, 2
	drum_note 3, 2
	drum_note 3, 1
	drum_note 4, 1
	drum_note 3, 1
	drum_note 3, 1
	drum_note 4, 1
	drum_note 4, 1
	drum_note 3, 1
	drum_note 3, 1
	drum_note 4, 2
	drum_note 5, 2
	drum_note 5, 2
	drum_note 4, 1
	drum_note 4, 1
	drum_note 3, 2
	drum_note 4, 2
	drum_note 5, 2
	drum_note 4, 1
	drum_note 4, 1
	drum_note 3, 1
	drum_note 4, 1
	drum_note 3, 1
	drum_note 3, 1
	drum_note 5, 2
	drum_note 3, 2
	drum_note 3, 1
	drum_note 4, 1
	drum_note 3, 1
	drum_note 3, 1
	drum_note 4, 1
	drum_note 4, 1
	drum_note 3, 1
	drum_note 3, 1
	drum_note 4, 2
	drum_note 5, 2
	drum_note 5, 2
	drum_note 4, 1
	drum_note 4, 1
	drum_note 3, 2
	drum_note 4, 2
	drum_note 5, 2
	drum_note 4, 1
	drum_note 4, 1
	drum_note 3, 1
	drum_note 4, 1
	drum_note 3, 1
	drum_note 3, 1
	drum_note 5, 2
	drum_note 3, 2
	drum_note 3, 1
	drum_note 4, 1
	drum_note 3, 1
	drum_note 3, 1
	drum_note 4, 1
	drum_note 4, 1
	drum_note 3, 1
	drum_note 3, 1
	drum_note 4, 2
	drum_note 5, 2
	drum_note 5, 2
	drum_note 4, 1
	drum_note 4, 1
	drum_note 2, 2
	drum_note 2, 1
	drum_note 2, 1
	drum_note 1, 2
	drum_note 2, 1
	drum_note 1, 1
	drum_note 2, 1
	drum_note 1, 1
	drum_note 2, 2
	drum_note 1, 2
	drum_note 2, 1
	drum_note 1, 1
	drum_note 2, 2
	drum_note 2, 1
	drum_note 2, 1
	drum_note 1, 2
	drum_note 2, 1
	drum_note 1, 2
	drum_note 1, 2
	drum_note 2, 1
	drum_note 1, 2
	drum_note 2, 1
	drum_note 2, 1
	drum_note 2, 2
	drum_note 2, 1
	drum_note 2, 1
	drum_note 2, 1
	drum_note 1, 1
	drum_note 2, 1
	drum_note 2, 1
	drum_note 1, 1
	drum_note 1, 1
	drum_note 2, 1
	drum_note 2, 1
	drum_note 1, 2
	drum_note 2, 1
	drum_note 1, 1
	drum_note 2, 2
	drum_note 2, 1
	drum_note 2, 1
	drum_note 1, 2
	drum_note 2, 1
	drum_note 1, 1
	drum_note 2, 1
	drum_note 2, 1
	drum_note 1, 1
	drum_note 2, 1
	drum_note 1, 2
	drum_note 2, 1
	drum_note 1, 1
	drum_note 2, 2
	drum_note 2, 1
	drum_note 2, 1
	drum_note 1, 2
	drum_note 2, 1
	drum_note 1, 1
	drum_note 2, 1
	drum_note 1, 1
	drum_note 2, 2
	drum_note 1, 2
	drum_note 2, 1
	drum_note 1, 1
	drum_note 2, 2
	drum_note 2, 1
	drum_note 2, 1
	drum_note 1, 2
	drum_note 2, 1
	drum_note 1, 2
	drum_note 1, 2
	drum_note 2, 1
	drum_note 1, 2
	drum_note 2, 1
	drum_note 2, 1
	drum_note 2, 2
	drum_note 2, 1
	drum_note 2, 1
	drum_note 2, 1
	drum_note 1, 1
	drum_note 2, 1
	drum_note 2, 1
	drum_note 1, 1
	drum_note 1, 1
	drum_note 2, 1
	drum_note 2, 1
	drum_note 1, 2
	drum_note 2, 1
	drum_note 1, 1
	drum_note 2, 2
	drum_note 2, 1
	drum_note 2, 1
	drum_note 1, 2
	drum_note 2, 1
	drum_note 1, 1
	drum_note 2, 1
	drum_note 2, 1
	drum_note 1, 1
	drum_note 2, 1
	drum_note 1, 2
	drum_note 4, 2
	drum_note 4, 2
	drum_note 5, 2
	drum_note 4, 1
	drum_note 4, 1
	drum_note 3, 1
	drum_note 4, 1
	drum_note 3, 1
	drum_note 3, 1
	drum_note 5, 2
	drum_note 3, 2
	drum_note 3, 1
	drum_note 4, 1
	drum_note 3, 1
	drum_note 3, 1
	drum_note 4, 1
	drum_note 4, 1
	drum_note 3, 1
	drum_note 3, 1
	drum_note 4, 2
	drum_note 5, 2
	drum_note 5, 2
	drum_note 4, 1
	drum_note 4, 1
	drum_note 4, 2
	drum_note 4, 2
	drum_note 5, 2
	drum_note 4, 1
	drum_note 4, 1
	drum_note 3, 1
	drum_note 4, 1
	drum_note 3, 1
	drum_note 3, 1
	drum_note 5, 2
	drum_note 3, 2
	drum_note 3, 1
	drum_note 4, 1
	drum_note 3, 1
	drum_note 3, 1
	drum_note 4, 1
	drum_note 4, 1
	drum_note 3, 1
	drum_note 3, 1
	drum_note 4, 2
	drum_note 5, 2
	drum_note 5, 2
	drum_note 4, 1
	drum_note 4, 1
	sound_loop 0, Music_ScantelesTown_Ch4_Loop
