; Music by Monstarules
Music_VictoryRoadRSE:
	channel_count 4
	channel 1, Music_VictoryRoadRSE_Ch1
	channel 2, Music_VictoryRoadRSE_Ch2
	channel 3, Music_VictoryRoadRSE_Ch3
	channel 4, Music_VictoryRoadRSE_Ch4

Music_VictoryRoadRSE_Ch1:
	tempo $8F
	volume 7, 7
	stereo_panning TRUE, TRUE
	duty_cycle 2
	pitch_offset $0002
	octave 2
	note_type 12, 4, -7
	note D#, 8
	note E_, 8
	duty_cycle 1
	volume_envelope 12, 2
	note F_, 4
	rest 4
	note F_, 4
	rest 4
	note F_, 4
	note F_, 4
	note_type 8, 5, 2
	note D#, 2
	volume_envelope 6, 2
	note D#, 2
	volume_envelope 7, 2
	note D#, 2
	volume_envelope 8, 2
	note D#, 2
	volume_envelope 9, 2
	note D#, 2
	volume_envelope 10, 2
	note E_, 2
	volume_envelope 12, 2
	note F_, 6
	rest 6
	note F_, 6
	rest 6
	note F_, 6
	note F_, 6
	volume_envelope 9, 2
	note C#, 1
	note D_, 1
	note D#, 1
	note E_, 1
	note F_, 1
	note F#, 1
	note G_, 1
	note G#, 1
	note A_, 1
	note A#, 1
	note B_, 1
	octave 3
	note C_, 1
Music_VictoryRoadRSE_Ch1_loop:
	volume_envelope 9, 4
	note E_, 4
	note C#, 2
	note G#, 6
	note C#, 4
	octave 2
	note G#, 2
	octave 3
	note E_, 6
	note D_, 4
	note G#, 2
	note F#, 6
	octave 2
	note G#, 6
	octave 3
	note F#, 6
	volume_envelope 12, 0
	note E_, 9
	volume_envelope 12, 7
	note E_, 15
	volume_envelope 5, 2
	octave 2
	note G#, 2
	volume_envelope 6, 2
	note F#, 2
	volume_envelope 7, 2
	note G#, 2
	volume_envelope 8, 2
	octave 3
	note D_, 2
	volume_envelope 9, 2
	octave 2
	note G#, 2
	volume_envelope 10, 2
	octave 3
	note D_, 2
	volume_envelope 12, 5
	note D_, 6
	volume_envelope 12, 2
	note F#, 2
	note D_, 2
	note F#, 2
	volume_envelope 10, 0
	octave 1
	note C#, 2
	note D_, 2
	note E_, 2
	note D_, 2
	note C#, 2
	note C_, 2
	note C#, 2
	note D_, 2
	note E_, 2
	note C#, 2
	note D_, 2
	note E_, 2
	note D_, 2
	note E_, 2
	note F#, 2
	note E_, 2
	note D_, 2
	note C#, 2
	note D_, 2
	note E_, 2
	note F#, 2
	note E_, 2
	note D_, 2
	note C#, 2
	note C#, 2
	note D_, 2
	note E_, 2
	note D_, 2
	note C#, 2
	note C_, 2
	note C#, 2
	note D_, 2
	note E_, 2
	note C#, 2
	note D_, 2
	note E_, 2
	note D_, 2
	note E_, 2
	note F#, 2
	note E_, 2
	note D_, 2
	note C#, 2
	note D_, 2
	note E_, 2
	note F#, 2
	note G#, 6
	rest 6
	volume_envelope 12, 3
	octave 3
	note G_, 6
	note F#, 6
	note D#, 6
	note E_, 6
	octave 2
	note B_, 6
	octave 3
	note C#, 6
	note E_, 6
	rest 6
	pitch_offset $0001
	volume_envelope 12, 1
	octave 2
	note A_, 2
	octave 3
	note C#, 2
	note E_, 2
	note G#, 2
	note E_, 2
	note C#, 2
	octave 2
	note A_, 2
	octave 3
	note C_, 2
	note D#, 2
	volume_envelope 12, 4
	octave 4
	note C#, 6
	octave 3
	note A#, 6
	octave 4
	note C#, 6
	note E_, 6
	note D#, 6
	octave 3
	note D#, 6
	note D#, 12
	volume_envelope 9, 4
	note C#, 4
	octave 2
	note G#, 2
	octave 3
	note C#, 6
	octave 2
	note G#, 2
	octave 3
	note C#, 2
	octave 2
	note G#, 2
	note C#, 2
	note G#, 2
	octave 3
	note C#, 2
	octave 2
	note B_, 4
	note F#, 2
	note B_, 6
	note F#, 2
	note B_, 2
	note F#, 2
	octave 1
	note B_, 2
	octave 2
	note F#, 2
	note B_, 2
	volume_envelope 12, 4
	octave 3
	note G#, 4
	note F#, 2
	note E_, 6
	volume_envelope 10, 4
	note D#, 6
	note C#, 6
	duty_cycle 0
	volume_envelope 13, 4
	note A_, 2
	note E_, 2
	note C#, 2
	octave 2
	note A_, 2
	octave 3
	note C#, 2
	note A_, 2
	note F#, 6
	note B_, 6
	duty_cycle 1
	volume_envelope 9, 4
	note C#, 4
	octave 2
	note G#, 2
	octave 3
	note C#, 6
	octave 2
	note G#, 2
	octave 3
	note C#, 2
	octave 2
	note G#, 2
	note C#, 2
	note G#, 2
	octave 3
	note C#, 2
	octave 2
	note B_, 4
	note F#, 2
	note B_, 6
	note F#, 2
	note B_, 2
	note F#, 2
	octave 1
	note B_, 2
	octave 2
	note F#, 2
	note B_, 2
	volume_envelope 12, 4
	octave 3
	note C#, 2
	note C_, 2
	note C#, 8
	note E_, 6
	note F#, 6
	duty_cycle 0
	volume_envelope 13, 4
	note A_, 2
	note E_, 2
	note C#, 2
	octave 2
	note A_, 2
	octave 3
	note C#, 2
	note A_, 2
	note F#, 6
	octave 4
	note C#, 6
	duty_cycle 1
	volume_envelope 13, 2
	octave 3
	note D#, 6
	rest 6
	note D#, 6
	rest 6
	note D#, 6
	note D#, 6
	volume_envelope 5, 2
	note C#, 2
	volume_envelope 6, 2
	note C#, 2
	volume_envelope 7, 2
	note C#, 2
	volume_envelope 8, 2
	note C#, 2
	volume_envelope 9, 2
	note C#, 2
	volume_envelope 10, 2
	note D_, 2
	volume_envelope 13, 2
	note D#, 6
	rest 6
	note D#, 6
	rest 6
	note D#, 6
	note D#, 6
	volume_envelope 9, 2
	octave 2
	note C#, 1
	note D_, 1
	note D#, 1
	note E_, 1
	note F_, 1
	note F#, 1
	note G_, 1
	note G#, 1
	note A_, 1
	note A#, 1
	note B_, 1
	octave 3
	note C_, 1
	sound_loop 0, Music_VictoryRoadRSE_Ch1_loop

Music_VictoryRoadRSE_Ch2:
	octave 4
	note_type 12, 4, -7
	note D#, 8
	note E_, 8
	volume_envelope 12, 2
	note F_, 4
	rest 4
	note F_, 4
	rest 4
	note F_, 4
	note F_, 4
	note_type 8, 5, 2
	note D#, 2
	volume_envelope 6, 2
	note D#, 2
	volume_envelope 7, 2
	note D#, 2
	volume_envelope 8, 2
	note D#, 2
	volume_envelope 9, 2
	note D#, 2
	volume_envelope 10, 2
	note E_, 2
	volume_envelope 12, 2
	note F_, 6
	rest 6
	note F_, 6
	rest 6
	note F_, 6
	note F_, 6
	volume_envelope 9, 2
	note G#, 1
	note G_, 1
	note F#, 1
	note F_, 1
	note E_, 1
	note D#, 1
	note D_, 1
	note C#, 1
	note C_, 1
	octave 3
	note B_, 1
	note A#, 1
	note A_, 1
Music_VictoryRoadRSE_Ch2_loop:
	volume_envelope 12, 4
	vibrato 8, 2, 4
	note C#, 10
	note E_, 2
	volume_envelope 12, 5
	note G#, 12
	volume_envelope 12, 4
	note D_, 10
	note F#, 2
	volume_envelope 12, 5
	note B_, 4
	volume_envelope 12, 0
	note A#, 1
	note B_, 1
	volume_envelope 12, 7
	note A_, 4
	note F#, 2
	volume_envelope 12, 0
	note G#, 9
	volume_envelope 12, 7
	note G#, 15
	volume_envelope 5, 2
	note D_, 2
	volume_envelope 6, 2
	octave 2
	note A_, 2
	volume_envelope 7, 2
	octave 3
	note D_, 2
	volume_envelope 8, 2
	note F#, 2
	volume_envelope 9, 2
	note D_, 2
	volume_envelope 10, 2
	note F#, 2
	volume_envelope 12, 2
	note A_, 2
	volume_envelope 12, 1
	note A_, 1
	note A_, 1
	volume_envelope 12, 2
	note A_, 2
	note A_, 2
	note F#, 2
	octave 4
	note D_, 2
	duty_cycle 1
	volume_envelope 10, 5
	octave 3
	note G#, 4
	note E_, 2
	octave 4
	note C#, 6
	octave 3
	note E_, 4
	note C#, 2
	note G#, 6
	note A_, 4
	note F#, 2
	octave 4
	note D_, 4
	note D_, 1
	note C#, 1
	octave 3
	note A_, 6
	note B_, 2
	octave 4
	note C#, 2
	note D_, 2
	note E_, 10
	note D_, 1
	note E_, 1
	note C#, 10
	note E_, 2
	octave 3
	note A_, 10
	note F#, 1
	note B_, 1
	octave 4
	note E_, 6
	note D_, 6
	volume_envelope 10, 2
	octave 2
	note C#, 6
	volume_envelope 12, 3
	octave 4
	note E_, 6
	note D#, 6
	note C_, 6
	note C#, 6
	octave 3
	note G#, 6
	note A#, 6
	octave 4
	note C_, 6
	octave 2
	note C#, 6
	volume_envelope 12, 4
	octave 4
	note E_, 2
	note C#, 2
	octave 3
	note G#, 2
	octave 4
	note D#, 2
	note C_, 2
	octave 3
	note G#, 2
	octave 4
	note D_, 2
	octave 3
	note B_, 2
	note F#, 2
	octave 4
	note E_, 6
	note C#, 6
	note E_, 6
	note G_, 6
	note G#, 6
	octave 3
	note G#, 6
	note G#, 2
	volume_envelope 12, 1
	note G_, 1
	note G#, 1
	volume_envelope 12, 4
	note G#, 2
	note G#, 2
	note A#, 2
	octave 4
	note C_, 2
	volume_envelope 10, 1
	vibrato 0, 0, 0
	note C#, 1
	octave 3
	note G#, 1
	note E_, 1
	note D#, 1
	note C#, 1
	note C_, 1
	note C#, 1
	note D#, 1
	note E_, 1
	note G#, 1
	octave 4
	note C#, 1
	note E_, 1
	note G#, 1
	note A#, 1
	note B_, 1
	note A#, 1
	note G#, 1
	note F#, 1
	note E_, 1
	note D#, 1
	note C#, 1
	octave 3
	note B_, 1
	note A#, 1
	note B_, 1
	octave 4
	note D#, 1
	octave 3
	note B_, 1
	note F#, 1
	note E_, 1
	note D#, 1
	note C#, 1
	octave 2
	note B_, 1
	octave 3
	note C#, 1
	note D#, 1
	note F#, 1
	note G#, 1
	note A#, 1
	note B_, 1
	octave 4
	note C#, 1
	note D#, 1
	note E_, 1
	note F#, 1
	note G#, 1
	note A#, 1
	note B_, 1
	octave 5
	note C#, 1
	octave 4
	note B_, 1
	note F#, 1
	note D#, 1
	octave 3
	note A#, 1
	note G#, 1
	note F#, 1
	note E_, 1
	note D#, 1
	note C#, 1
	note D#, 1
	note E_, 1
	note F#, 1
	note G#, 1
	note A#, 1
	note B_, 1
	octave 4
	note C#, 1
	note D#, 1
	note F_, 1
	note F#, 1
	note G#, 1
	note A_, 1
	note A#, 1
	note A_, 1
	note G#, 1
	note F#, 1
	note E_, 1
	note D#, 1
	volume_envelope 12, 4
	note C#, 4
	octave 3
	note G#, 2
	octave 4
	note C#, 6
	note D#, 6
	note F#, 6
	volume_envelope 10, 1
	note C#, 1
	octave 3
	note B_, 1
	note A_, 1
	note G#, 1
	note F#, 1
	note E_, 1
	note D#, 1
	note E_, 1
	note F#, 1
	note G#, 1
	note A_, 1
	note B_, 1
	octave 4
	note C#, 1
	note D#, 1
	note E_, 1
	note F#, 1
	note E_, 1
	note D#, 1
	note C#, 1
	octave 3
	note B_, 1
	note A_, 1
	note G#, 1
	note F#, 1
	note E_, 1
	note B_, 1
	note A_, 1
	note G#, 1
	note F#, 1
	note E_, 1
	note F#, 1
	note G#, 1
	note A_, 1
	note B_, 1
	octave 4
	note C#, 1
	note D#, 1
	note E_, 1
	note F#, 1
	note G#, 1
	note A_, 1
	note B_, 1
	note A_, 1
	note F#, 1
	note E_, 1
	note D#, 1
	note C#, 1
	octave 3
	note B_, 1
	note A_, 1
	note G#, 1
	volume_envelope 9, 4
	octave 2
	note G#, 4
	note F#, 2
	note G#, 6
	note F#, 2
	note G#, 2
	note F#, 2
	note C#, 2
	note F#, 2
	note G#, 2
	duty_cycle 0
	volume_envelope 13, 2
	octave 4
	note C#, 2
	note C_, 2
	note C#, 2
	note C#, 4
	note D_, 2
	note D#, 2
	note D_, 2
	note D#, 2
	note C#, 2
	note D#, 2
	note F#, 2
	note G#, 6
	rest 6
	note G#, 6
	rest 6
	note G#, 6
	note G#, 6
	volume_envelope 5, 2
	note F#, 2
	volume_envelope 6, 2
	note F#, 2
	volume_envelope 7, 2
	note F#, 2
	volume_envelope 8, 2
	note F#, 2
	volume_envelope 9, 2
	note F#, 2
	volume_envelope 10, 2
	note G_, 2
	volume_envelope 13, 2
	note G#, 6
	rest 6
	note G#, 6
	rest 6
	note G#, 6
	note G#, 6
	volume_envelope 9, 2
	note B_, 1
	note A#, 1
	note A_, 1
	note G#, 1
	note G_, 1
	note F#, 1
	note F_, 1
	note E_, 1
	note D#, 1
	note D_, 1
	note C#, 1
	note C_, 1
	octave 3
	sound_loop 0, Music_VictoryRoadRSE_Ch2_loop

Music_VictoryRoadRSE_Ch3:
	duty_cycle 6
	pitch_offset $0001
	octave 2
	note_type 12, 1, 6
	note G_, 8
	note F#, 8
	note F_, 3
	rest 5
	note F_, 3
	rest 5
	note F_, 3
	rest 1
	note F_, 3
	rest 1
	octave 3
	note_type 8, 1, 6
	note F_, 2
	note C_, 2
	note F_, 2
	note B_, 4
	octave 4
	note C_, 2
	octave 2
	note_type 12, 1, 6
	note F_, 3
	rest 5
	note F_, 3
	rest 5
	note F_, 3
	rest 1
	note F_, 3
	rest 1
	octave 3
	note G#, 3
	volume_envelope 2, 6
	note G#, 1
	volume_envelope 3, 6
	note G#, 1
	volume_envelope 2, 6
	note G#, 1
	volume_envelope 1, 6
	note G#, 2
Music_VictoryRoadRSE_Ch3_loop:
	octave 2
	note_type 8, 1, 6
	note C#, 2
	note D_, 2
	note E_, 2
	note G#, 6
	note C#, 2
	note D_, 2
	note E_, 2
	note C#, 2
	note D_, 2
	note E_, 2
	note D_, 2
	note E_, 2
	note F#, 2
	note A_, 6
	note D_, 2
	note E_, 2
	note F#, 2
	note D_, 2
	note E_, 2
	note F#, 2
	note C#, 2
	note D_, 2
	note E_, 2
	note C#, 2
	note D_, 2
	note E_, 2
	note C#, 2
	note D_, 2
	note E_, 2
	note D_, 2
	note C#, 2
	octave 1
	note B_, 2
	volume_envelope 2, 6
	octave 2
	note D_, 2
	note E_, 2
	note F#, 2
	note E_, 2
	note D_, 2
	note C#, 2
	volume_envelope 1, 6
	note D_, 2
	note E_, 2
	note F#, 2
	note E_, 2
	note D#, 2
	note C#, 2
	vibrato 0, 2, 5
	octave 4
	note C#, 4
	note E_, 2
	note G#, 10
	note G_, 1
	note F#, 1
	note E_, 6
	note D_, 4
	note F#, 2
	note A_, 4
	note A_, 1
	note G#, 1
	note F#, 6
	note B_, 2
	note A_, 2
	note F#, 2
	note G#, 10
	note F#, 1
	note G#, 1
	note E_, 10
	note G#, 2
	note F#, 10
	note D_, 1
	note F#, 1
	note B_, 6
	note A_, 6
	vibrato 0, 0, 0
	octave 2
	note C#, 6
	octave 3
	note C#, 2
	note E_, 2
	note G#, 2
	octave 4
	note C#, 2
	octave 3
	note G#, 2
	note E_, 2
	note C#, 2
	note E_, 2
	note G#, 2
	note A#, 2
	note G_, 2
	note E_, 2
	note C#, 2
	note E_, 2
	note G#, 2
	octave 4
	note C#, 2
	octave 3
	note A#, 1
	note A_, 1
	note A#, 2
	note G#, 2
	note G#, 2
	note G#, 2
	octave 2
	note C#, 6
	octave 3
	note C#, 2
	note E_, 2
	note G#, 2
	octave 4
	note C#, 2
	octave 3
	note G#, 2
	note E_, 2
	note C#, 2
	note E_, 2
	note G#, 2
	note A#, 2
	note G_, 2
	note E_, 2
	note C#, 2
	note E_, 2
	note G_, 2
	note B_, 2
	note G_, 2
	note E_, 2
	note C#, 2
	note G_, 2
	octave 4
	note C#, 2
	note D#, 6
	octave 3
	note D#, 6
	note D#, 2
	note D#, 1
	note D_, 1
	note D#, 2
	note D#, 2
	note F_, 2
	note G_, 2
	duty_cycle 2
	volume_envelope 1, 2
	vibrato 8, 2, 4
	octave 5
	note C#, 10
	note E_, 2
	note G#, 12
	note D#, 10
	note F#, 2
	note B_, 6
	note A_, 4
	note F#, 2
	note_type 12, 1, 2
	note G#, 12
	volume_envelope 2, 2
	note G#, 4
	note_type 8, 1, 2
	note A_, 4
	note E_, 2
	note A_, 6
	note B_, 6
	octave 6
	note D#, 1
	note C#, 1
	note C_, 1
	octave 5
	note B_, 1
	note A#, 1
	note G#, 1
	note C#, 2
	note C_, 2
	note C#, 2
	note E_, 4
	note F#, 2
	note G#, 12
	note D#, 2
	note D_, 2
	note D#, 2
	note F#, 4
	note G#, 2
	note B_, 6
	note A_, 4
	note F#, 2
	note G#, 2
	note G_, 2
	note G#, 14
	volume_envelope 2, 2
	note G#, 6
	volume_envelope 1, 2
	note A_, 2
	note G#, 2
	note A_, 2
	note A_, 4
	note A#, 2
	note B_, 2
	note A#, 2
	note B_, 2
	octave 6
	note C#, 2
	note D#, 2
	note E_, 2
	duty_cycle 6
	octave 2
	note_type 12, 1, 6
	note G#, 3
	rest 5
	note G#, 3
	rest 5
	note G#, 3
	rest 1
	note G#, 3
	rest 1
	octave 3
	note_type 8, 1, 6
	note G#, 2
	note D#, 2
	note G#, 2
	octave 4
	note D_, 4
	note D#, 2
	octave 2
	note_type 12, 1, 6
	note G#, 3
	rest 5
	note G#, 3
	rest 5
	note G#, 3
	rest 1
	note G#, 3
	rest 1
	note B_, 3
	volume_envelope 2, 6
	note B_, 1
	volume_envelope 3, 6
	note B_, 1
	volume_envelope 2, 6
	note B_, 1
	volume_envelope 1, 6
	note B_, 2
	sound_loop 0, Music_VictoryRoadRSE_Ch3_loop

Music_VictoryRoadRSE_Ch4:
	drum_speed 12
	rest 16
	toggle_noise 3
Music_VictoryRoadRSE_Ch4_loop:
	drum_speed 8
	drum_note 12, 4
	drum_note 2, 1
	drum_note 2, 1
	drum_note 2, 2
	drum_note 2, 1
	rest 1
	drum_note 2, 2
	drum_note 12, 4
	drum_note 2, 1
	drum_note 2, 1
	drum_note 2, 2
	drum_note 2, 1
	rest 1
	drum_note 2, 2
	drum_note 12, 4
	drum_note 2, 1
	drum_note 2, 1
	drum_note 2, 2
	drum_note 2, 1
	rest 1
	drum_note 2, 2
	drum_note 1, 2
	rest 10
	drum_note 12, 4
	drum_note 2, 1
	drum_note 2, 1
	drum_note 2, 2
	drum_note 2, 1
	rest 1
	drum_note 2, 2
	drum_note 12, 4
	drum_note 2, 1
	drum_note 2, 1
	drum_note 2, 2
	drum_note 2, 1
	rest 1
	drum_note 2, 2
	drum_note 12, 4
	drum_note 2, 1
	drum_note 2, 1
	drum_note 2, 2
	drum_note 2, 1
	rest 1
	drum_note 2, 2
	drum_note 1, 2
	rest 4
	drum_note 2, 1
	drum_note 2, 1
	drum_note 2, 1
	drum_note 2, 1
	drum_note 2, 1
	drum_note 2, 1
	drum_note 1, 2
	drum_note 2, 2
	drum_note 3, 2
	drum_note 3, 2
	drum_note 2, 2
	drum_note 3, 2
	drum_note 1, 2
	drum_note 2, 2
	drum_note 3, 2
	drum_note 3, 2
	drum_note 2, 2
	drum_note 3, 2
	drum_note 1, 2
	drum_note 2, 2
	drum_note 3, 2
	drum_note 3, 2
	drum_note 2, 2
	drum_note 3, 2
	drum_note 1, 2
	drum_note 2, 1
	drum_note 2, 1
	drum_note 3, 2
	drum_note 3, 2
	drum_note 2, 2
	drum_note 3, 2
	drum_note 1, 2
	drum_note 2, 2
	drum_note 3, 2
	drum_note 3, 2
	drum_note 2, 2
	drum_note 3, 2
	drum_note 1, 2
	drum_note 2, 2
	drum_note 3, 2
	drum_note 3, 2
	drum_note 2, 2
	drum_note 3, 2
	drum_note 1, 2
	drum_note 2, 2
	drum_note 3, 2
	drum_note 3, 2
	drum_note 2, 2
	drum_note 3, 2
	drum_note 1, 2
	drum_note 2, 1
	drum_note 2, 1
	drum_note 3, 2
	drum_note 3, 2
	drum_note 2, 2
	drum_note 1, 2
	drum_note 1, 2
	drum_note 2, 2
	drum_note 3, 2
	drum_note 3, 2
	drum_note 2, 2
	drum_note 3, 2
	drum_note 1, 2
	drum_note 2, 2
	drum_note 3, 2
	drum_note 3, 2
	drum_note 2, 2
	drum_note 3, 2
	drum_note 1, 2
	drum_note 2, 2
	drum_note 3, 2
	drum_note 3, 2
	drum_note 2, 2
	drum_note 3, 2
	drum_note 1, 2
	drum_note 2, 1
	drum_note 2, 1
	drum_note 3, 2
	drum_note 3, 2
	drum_note 2, 2
	drum_note 3, 2
	drum_note 1, 2
	drum_note 2, 2
	drum_note 3, 2
	drum_note 3, 2
	drum_note 2, 2
	drum_note 3, 2
	drum_note 1, 2
	drum_note 2, 2
	drum_note 3, 2
	drum_note 3, 2
	drum_note 2, 2
	drum_note 3, 2
	drum_note 1, 2
	drum_note 2, 2
	drum_note 3, 2
	drum_note 3, 2
	drum_note 2, 2
	drum_note 3, 2
	drum_note 1, 2
	drum_note 2, 1
	drum_note 2, 1
	drum_note 3, 2
	drum_note 4, 2
	drum_note 4, 2
	drum_note 4, 2
	drum_note 4, 5
	rest 15
	drum_note 4, 2
	drum_note 4, 2
	drum_note 12, 5
	rest 16
	rest 3
	drum_note 4, 5
	rest 15
	drum_note 4, 2
	drum_note 4, 2
	drum_note 12, 5
	rest 13
	drum_note 4, 5
	rest 1
	drum_note 4, 5
	rest 1
	drum_note 4, 5
	rest 1
	drum_note 4, 2
	drum_note 4, 2
	drum_note 4, 2
	drum_note 4, 2
	drum_note 4, 2
	drum_note 4, 2
	drum_note 1, 2
	drum_note 2, 2
	drum_note 3, 2
	drum_note 3, 2
	drum_note 2, 2
	drum_note 3, 2
	drum_note 1, 2
	drum_note 2, 2
	drum_note 3, 2
	drum_note 3, 2
	drum_note 2, 2
	drum_note 3, 2
	drum_note 1, 2
	drum_note 2, 2
	drum_note 3, 2
	drum_note 3, 2
	drum_note 2, 2
	drum_note 3, 2
	drum_note 1, 2
	drum_note 2, 1
	drum_note 2, 1
	drum_note 3, 2
	drum_note 3, 2
	drum_note 2, 2
	drum_note 3, 2
	drum_note 1, 2
	drum_note 2, 2
	drum_note 3, 2
	drum_note 3, 2
	drum_note 2, 2
	drum_note 3, 2
	drum_note 1, 2
	drum_note 2, 2
	drum_note 3, 2
	drum_note 3, 2
	drum_note 2, 2
	drum_note 3, 2
	drum_note 1, 2
	drum_note 2, 2
	drum_note 3, 2
	drum_note 3, 2
	drum_note 2, 2
	drum_note 3, 2
	drum_note 1, 2
	drum_note 2, 1
	drum_note 2, 1
	drum_note 3, 2
	drum_note 3, 2
	drum_note 2, 2
	drum_note 1, 2
	drum_note 1, 2
	drum_note 2, 2
	drum_note 3, 2
	drum_note 3, 2
	drum_note 2, 2
	drum_note 3, 2
	drum_note 1, 2
	drum_note 2, 2
	drum_note 3, 2
	drum_note 3, 2
	drum_note 2, 2
	drum_note 3, 2
	drum_note 1, 2
	drum_note 2, 2
	drum_note 3, 2
	drum_note 3, 2
	drum_note 2, 2
	drum_note 3, 2
	drum_note 1, 2
	drum_note 2, 1
	drum_note 2, 1
	drum_note 3, 2
	drum_note 3, 2
	drum_note 2, 2
	drum_note 3, 2
	drum_note 1, 2
	drum_note 2, 2
	drum_note 3, 2
	drum_note 3, 2
	drum_note 2, 2
	drum_note 3, 2
	drum_note 1, 2
	drum_note 2, 2
	drum_note 3, 2
	drum_note 3, 2
	drum_note 2, 2
	drum_note 3, 2
	drum_note 1, 2
	drum_note 2, 2
	drum_note 3, 2
	drum_note 3, 2
	drum_note 2, 2
	drum_note 3, 2
	drum_note 1, 2
	drum_note 2, 1
	drum_note 2, 1
	drum_note 3, 2
	drum_note 4, 2
	drum_note 4, 2
	drum_note 4, 2
	sound_loop 0, Music_VictoryRoadRSE_Ch4_loop
